<?xml version="1.0" standalone="no"?>
<!DOCTYPE svg PUBLIC "-//W3C//DTD SVG 1.1//EN" "http://www.w3.org/Graphics/SVG/1.1/DTD/svg11.dtd" >
<svg xmlns="http://www.w3.org/2000/svg" xmlns:xlink="http://www.w3.org/1999/xlink" version="1.1">
<metadata></metadata>
<defs>
<font id="acronym-lightuploaded_file" horiz-adv-x="1548" >
<font-face units-per-em="2048" ascent="1593" descent="-455" />
<missing-glyph horiz-adv-x="384" />
<glyph unicode="AE" horiz-adv-x="2062" d="M-8 0l1023 1454h943v-117h-777v-552h677v-116h-677v-552h784v-117h-916v412h-621l-285 -412h-151zM509 528h540v781z" />
<glyph unicode="ae" horiz-adv-x="1866" d="M81 269q0 69 21 121q20 50 55 85q32 32 81 55q52 24 92 34q43 10 98 18q8 1 73 8q15 2 39.5 4t33.5 3q30 3 68 9q25 4 63 15q26 8 52 22t43 33q15 17 26 46q11 30 11 64q0 29 -14 63q-12 30 -44 65q-28 31 -91 53q-57 20 -141 20q-133 0 -210 -54q-76 -54 -91 -152h-124 q5 47 19 87q15 43 48 83q36 44 78 71q49 32 118 49q76 19 161 19q164 0 257 -60q94 -61 129 -157q60 104 155 160q96 57 224 57q221 0 349 -153q128 -154 128 -409l-1 -50h-824q14 -184 110 -292q97 -109 244 -109q100 0 176 50q79 52 125 142h139q-59 -141 -170 -218 q-112 -77 -270 -77q-147 0 -255 73q-106 72 -161 204q-92 -277 -447 -277q-189 0 -281 77t-92 218zM205 276q0 -94 65 -146q67 -53 196 -53q371 0 371 446v77q-24 -25 -64 -46q-37 -19 -98 -33q-80 -18 -100 -21q-8 -1 -49.5 -7.5t-73.5 -11.5q-38 -6 -73 -14 q-27 -6 -65 -23q-34 -15 -57 -36q-22 -21 -37 -55q-15 -35 -15 -77zM963 581h697q-12 192 -106 300q-93 106 -237 106q-150 0 -246 -112q-96 -113 -108 -294z" />
<glyph unicode="OE" horiz-adv-x="2335" d="M94 727q0 223 87 396q89 176 241 269q155 95 352 95q176 0 319 -83t229 -230v280h909v-117h-777v-552h677v-116h-677v-552h784v-117h-916v280q-87 -149 -229 -231t-319 -82q-197 0 -352 95q-152 93 -241 269q-87 173 -87 396zM226 727q0 -148 44 -272t118 -204 q75 -81 174 -126q97 -44 212 -44t212 44q99 45 174 126q74 80 118 204t44 272t-44 272t-118 204q-75 81 -174 126q-97 44 -212 44t-212 -44q-99 -45 -174 -126q-74 -80 -118 -204t-44 -272z" />
<glyph unicode="oe" horiz-adv-x="1969" d="M81 531q0 252 133 406q132 153 361 153q146 0 258 -76q111 -75 168 -209q52 133 159 209q106 76 253 76q222 0 349 -153q128 -154 128 -409l-1 -50h-824q13 -182 111 -292q97 -109 243 -109q100 0 176 50q79 52 125 142h140q-59 -141 -170 -218q-112 -77 -271 -77 q-150 0 -257 74q-109 75 -161 208q-59 -134 -169 -207q-113 -75 -257 -75q-229 0 -361 152q-133 153 -133 405zM206 531q0 -203 104 -328q105 -126 265 -126q154 0 262 127q108 128 108 327q0 201 -108 328q-108 128 -262 128q-160 0 -265 -126q-104 -125 -104 -330z M1065 581h697q-12 192 -106 300q-93 106 -237 106q-149 0 -245 -112q-97 -114 -109 -294z" />
<glyph unicode="&#xfb01;" horiz-adv-x="1133" d="M48 954v109h234v90q0 164 68 236q69 73 210 73q32 0 65 -3q13 -1 30 -3t18 -2l15 -3v-117q-74 12 -128 12q-86 0 -120 -43t-34 -150v-90h282v-109h-282v-954h-124v954h-234zM865 1256v198h134v-198h-134zM870 0v1063h124v-1063h-124z" />
<glyph unicode="&#xfb02;" horiz-adv-x="1133" d="M48 954v109h234v90q0 164 68 236q69 73 210 73q32 0 65 -3q13 -1 30 -3t18 -2l15 -3v-117q-74 12 -128 12q-86 0 -120 -43t-34 -150v-90h282v-109h-282v-954h-124v954h-234zM870 0v1454h124v-1454h-124z" />
<glyph unicode="&#xfb03;" horiz-adv-x="1864" d="M48 954v109h234v90q0 164 68 236q69 73 210 73q32 0 65 -3q13 -1 30 -3t18 -2l15 -3v-117q-74 12 -128 12q-86 0 -120 -43t-34 -150v-90h282v-109h-282v-954h-124v954h-234zM801 954v109h212v90q0 164 68 236q69 73 210 73q32 0 65 -3q13 -1 30 -3t18 -2l15 -3v-117 q-73 12 -128 12q-86 0 -120 -43t-34 -150v-90h282v-109h-282v-954h-124v954h-212zM1596 1256v198h135v-198h-135zM1602 0v1063h123v-1063h-123z" />
<glyph unicode="&#xfb04;" horiz-adv-x="1864" d="M48 954v109h234v90q0 164 68 236q69 73 210 73q32 0 65 -3q13 -1 30 -3t18 -2l15 -3v-117q-74 12 -128 12q-86 0 -120 -43t-34 -150v-90h282v-109h-282v-954h-124v954h-234zM801 954v109h212v90q0 164 68 236q69 73 210 73q32 0 65 -3q13 -1 30 -3t18 -2l15 -3v-117 q-73 12 -128 12q-86 0 -120 -43t-34 -150v-90h282v-109h-282v-954h-124v954h-212zM1602 0v1454h123v-1454h-123z" />
<glyph horiz-adv-x="0" />
<glyph unicode="&#xd;" horiz-adv-x="681" />
<glyph unicode=" "  horiz-adv-x="384" />
<glyph unicode="&#x09;" horiz-adv-x="384" />
<glyph unicode="&#xa0;" horiz-adv-x="384" />
<glyph unicode="!" horiz-adv-x="379" d="M115 0v220h148v-220h-148zM128 901v553h123v-553l-24 -530h-75z" />
<glyph unicode="&#x22;" horiz-adv-x="596" d="M84 1011v443h130l-48 -443h-82zM391 1011v443h130l-48 -443h-82z" />
<glyph unicode="#" horiz-adv-x="1295" d="M55 421l15 110h253l52 391h-253l14 110h254l56 422h113l-56 -422h373l56 422h112l-56 -422h252l-15 -110h-252l-52 -391h251l-14 -110h-252l-56 -421h-113l57 421h-373l-56 -421h-113l56 421h-253zM435 531h373l52 391h-373z" />
<glyph unicode="$" horiz-adv-x="1214" d="M73 394h141q0 -141 98 -221q98 -81 254 -91v613q-60 14 -103 27q-61 18 -94 30q-54 20 -90 39q-32 17 -74 48q-37 27 -61 64q-20 31 -36 80q-15 47 -15 101q0 170 133 282q134 113 340 120v172h82v-172q208 -15 339 -130q132 -116 132 -288h-135q0 123 -93 207 q-92 83 -243 97v-576q193 -48 272 -80q159 -69 203 -199q19 -59 19 -125q0 -178 -134 -297q-133 -118 -360 -127v-172h-82v172q-219 12 -356 125t-137 301zM225 1084q0 -57 20 -99t67 -72q46 -30 104 -51q69 -25 150 -46v556q-150 -7 -245 -82q-96 -75 -96 -206zM648 82 q79 5 138 23q62 19 114 56t80 95q30 63 30 136q0 42 -10 80q-8 31 -33 61q-24 29 -49 47q-24 17 -73 37q-43 17 -88 30q-49 14 -109 29v-594z" />
<glyph unicode="%" horiz-adv-x="1737" d="M41 1038q0 194 91 314q90 118 246 118t246 -118q91 -120 91 -314q0 -193 -91 -313q-90 -119 -246 -119t-246 119q-91 120 -91 313zM153 1038q0 -150 60 -243q61 -94 165 -94t165 94q60 93 60 243q0 151 -60 244t-165 93t-165 -93t-60 -244zM376 -33l871 1520h115 l-870 -1520h-116zM1023 416q0 193 91 313q90 119 246 119t246 -119q91 -120 91 -313q0 -194 -91 -314q-90 -118 -246 -118t-246 118q-91 120 -91 314zM1135 416q0 -151 60 -244t165 -93t165 93t60 244q0 150 -60 243q-61 94 -165 94t-165 -94q-60 -93 -60 -243z" />
<glyph unicode="&#x26;" horiz-adv-x="1335" d="M65 379q0 87 27 156q27 70 78 119q49 47 104 82q51 32 125 66q-86 95 -130 180q-43 83 -43 174q0 147 104 239t275 92q173 0 279 -93t106 -234q0 -44 -14 -88q-14 -42 -33 -75q-18 -31 -56 -64q-35 -31 -64 -52q-26 -19 -76 -45q-35 -18 -75 -37q-2 -1 -76 -32l422 -441 q74 105 115 230q43 133 52 257h124q-12 -160 -63 -311q-50 -148 -140 -269l222 -233h-167l-137 143q-190 -176 -469 -176q-222 0 -357 109q-133 108 -133 303zM197 380q0 -144 98 -221q99 -78 269 -78q217 0 375 152l-460 484q-59 -26 -114 -60q-47 -29 -87 -69 q-42 -42 -61 -92q-20 -52 -20 -116zM352 1155q0 -71 37 -139q39 -73 127 -166q60 25 110 47q55 24 86 41q40 21 69 45q25 20 45 46q23 30 30 57q8 32 8 68q0 104 -66 161t-189 57q-126 0 -191 -58q-66 -58 -66 -159z" />
<glyph unicode="'" horiz-adv-x="289" d="M84 1011v443h130l-48 -443h-82z" />
<glyph unicode="(" horiz-adv-x="485" d="M98 575q0 168 21 324q21 158 51 262q27 93 61 186q27 74 52 118l20 38h118q-2 -4 -9.5 -17.5t-12.5 -23.5q-12 -23 -47 -117q-38 -100 -61 -192q-27 -105 -47 -258q-22 -165 -22 -320q0 -163 21 -317q22 -161 49 -261q22 -80 59 -188q28 -82 49 -122l21 -39h-118 q-1 1 -9 15t-13 24q-11 20 -49 116q-37 93 -63 189q-26 97 -49 258q-22 154 -22 325z" />
<glyph unicode=")" horiz-adv-x="485" d="M65 -352q2 4 9 17.5t12 23.5q16 32 48 117q34 92 60 192q29 114 48 257q21 157 21 320q0 171 -20 318q-21 154 -50 261q-25 94 -58 188q-26 77 -50 122l-20 39h117q0 -1 8.5 -15t13.5 -24q11 -20 49 -116q37 -93 63 -189q26 -97 49 -258q22 -154 22 -326q0 -167 -21 -323 q-21 -158 -51 -262q-27 -93 -61 -186q-29 -80 -51 -118l-21 -38h-117z" />
<glyph unicode="*" horiz-adv-x="995" d="M63 1108l31 93l360 -123l-5 376h98l-5 -376l359 123l31 -93l-363 -113l232 -309l-79 -58l-224 317l-225 -317l-78 58l231 309z" />
<glyph unicode="+" horiz-adv-x="1143" d="M115 476v111h401v407h112v-407h401v-111h-401v-407h-112v407h-401z" />
<glyph unicode="," horiz-adv-x="377" d="M115 0v220h148v-191q0 -66 -20 -133l-34 -119h-90l63 223h-67z" />
<glyph unicode="-" horiz-adv-x="766" d="M115 476v111h537v-111h-537z" />
<glyph unicode="." horiz-adv-x="377" d="M115 0v220h148v-220h-148z" />
<glyph unicode="/" horiz-adv-x="896" d="M67 0l627 1454h135l-628 -1454h-134z" />
<glyph unicode="0" horiz-adv-x="1298" d="M100 727q0 159 36 296t104 241q66 101 174 163q105 60 236 60q173 0 300 -104q126 -103 187 -272q61 -168 61 -384q0 -215 -61 -383q-62 -170 -187 -273q-127 -104 -300 -104q-131 0 -236 60q-108 62 -174 163q-68 104 -104 241t-36 296zM232 727q0 -188 49 -337 q47 -144 144 -228q94 -82 225 -82t225 82t142 228t48 337t-48 337t-142 228t-225 82t-225 -82q-97 -84 -144 -228q-49 -149 -49 -337z" />
<glyph unicode="1" horiz-adv-x="739" d="M77 941v115q80 1 148 27q67 25 111 65q42 37 75 93q32 53 47 106q14 50 19 107h109v-1454h-132v1144q-108 -203 -377 -203z" />
<glyph unicode="2" horiz-adv-x="1119" d="M84 0v33q0 62 11 109q13 57 29 92q20 44 49 82q35 45 61 71q31 32 78 66q35 26 87 60q18 12 98 61q43 26 92 57q30 19 83 56q52 36 76 59q23 22 59 61q35 38 50 70q17 35 28 76q11 40 11 90q0 147 -93 239q-92 91 -242 91q-161 0 -253 -104t-92 -275v-36h-132v37 q0 227 131 360q130 132 347 132q211 0 339 -121t128 -315q0 -111 -40 -198q-41 -89 -107 -151q-67 -62 -146 -116q-71 -48 -164 -103q-84 -49 -156 -99t-125 -119q-55 -72 -69 -148h820v-117h-958z" />
<glyph unicode="3" horiz-adv-x="1186" d="M77 435h132q0 -67 15 -121q15 -53 38 -90q22 -36 57 -63q34 -26 68 -42q33 -15 73 -24q41 -9 70 -12q20 -2 64 -2q193 0 292 89q101 90 101 230q0 78 -30 138q-29 58 -80 95q-48 35 -111 54q-60 18 -125 18h-128v109h155q127 0 198 73t71 191q0 141 -101 218t-241 77 q-75 0 -138 -22q-68 -24 -119 -65q-54 -44 -86 -118q-32 -75 -32 -168h-126q0 119 40 211q41 94 109 153q69 60 158 91q91 32 191 32q128 0 233 -46q106 -46 172 -138q66 -91 66 -212q0 -116 -58 -205t-162 -127q59 -19 105 -46q45 -27 87 -72q41 -44 63 -106t22 -139 q0 -192 -138 -310q-139 -119 -389 -119q-237 0 -377 116q-139 115 -139 352z" />
<glyph unicode="4" horiz-adv-x="1285" d="M71 329v118l765 1007h135v-1009h250v-116h-250v-329h-131v329h-769zM214 445h626v824z" />
<glyph unicode="5" horiz-adv-x="1218" d="M82 436h132q0 -89 34 -157q36 -71 91 -112q56 -41 127 -64q69 -22 147 -22q188 0 291 118q104 119 104 293q0 179 -107 298q-105 117 -286 117q-73 0 -137 -21t-106 -52q-39 -29 -70 -60q-30 -30 -44 -52l-12 -22h-130l125 754h811v-114h-710l-80 -484q150 161 377 161 q153 0 268 -72q117 -73 175 -190q59 -120 59 -267q0 -230 -144 -375q-144 -146 -387 -146q-229 0 -379 130q-149 129 -149 339z" />
<glyph unicode="6" horiz-adv-x="1251" d="M98 677q0 234 65 415q65 182 197 288q133 107 314 107q86 0 161 -26q77 -27 124 -65q52 -42 88 -93q37 -52 57 -101q21 -52 31 -97h-138q-12 42 -33 85q-19 38 -58 85q-35 43 -97 69q-61 26 -134 26q-104 0 -191 -52q-84 -50 -142 -142q-58 -91 -89 -213 q-33 -127 -34 -265q41 144 158 236q118 92 300 92q221 0 358 -146q136 -145 136 -381q0 -165 -70 -287q-69 -121 -186 -183q-116 -62 -261 -62q-50 0 -95 7q-50 8 -105 28q-60 22 -105 53q-55 37 -96 87q-47 56 -80 128q-33 73 -54 176q-21 105 -21 231zM251 481 q0 -41 6 -86q25 -77 60 -130q38 -58 77 -91t88 -56q45 -21 87 -29q43 -8 81 -8q170 0 279 114q110 115 110 305q0 185 -106 297t-285 112t-288 -122t-109 -306z" />
<glyph unicode="7" horiz-adv-x="1177" d="M86 1337v117h996v-105q-3 -3 -12 -12.5t-16 -16.5q-13 -13 -72 -85q-47 -58 -105 -141q-54 -79 -118 -194q-65 -119 -122 -249q-53 -121 -104 -300q-51 -176 -77 -351h-148q22 159 66 315q45 160 91 276q46 115 111 237q60 112 112 193q56 86 106 151q48 61 85 105 q17 20 55 60h-848z" />
<glyph unicode="8" horiz-adv-x="1267" d="M73 396q0 140 81 239q82 100 226 146q-113 41 -172 119q-61 81 -61 192q0 173 132 284t355 111t355 -111q131 -110 131 -284q0 -112 -60 -192q-59 -78 -172 -119q144 -46 226 -146q81 -99 81 -239q0 -89 -35 -167q-34 -77 -102 -135t-177 -93q-108 -34 -247 -34t-247 34 q-109 35 -177 93t-102 135q-35 78 -35 167zM206 401q0 -144 111 -232q110 -88 317 -88t317 88q111 88 111 232q0 151 -117 237q-118 86 -311 86t-311 -86q-117 -86 -117 -237zM273 1090q0 -120 93 -189q91 -67 268 -67t268 67q92 68 92 189q0 127 -97 205q-98 78 -263 78 q-166 0 -263 -78q-98 -78 -98 -205z" />
<glyph unicode="9" horiz-adv-x="1251" d="M80 955q0 165 70 287q69 121 186 183q116 62 261 62q51 0 96 -7q49 -8 104 -28q62 -23 106 -53q52 -36 95 -87q49 -59 81 -128q33 -73 54 -176q20 -100 20 -231q0 -234 -65 -415q-65 -182 -197 -288q-133 -107 -313 -107q-87 0 -162 26q-77 27 -124 65q-50 40 -87 93 q-39 55 -58 101q-19 47 -30 97h137q10 -38 34 -85q19 -38 58 -85q36 -43 96 -69q61 -26 135 -26q103 0 190 52q85 51 143 142q56 89 88 213q33 127 34 265q-41 -144 -158 -236q-118 -92 -300 -92q-221 0 -358 146q-136 145 -136 381zM212 954q0 -185 106 -297t285 -112 t288 122t109 306q0 41 -6 86q-25 77 -60 130q-38 58 -77 91q-40 34 -87 56q-48 23 -88 30q-38 7 -81 7q-169 0 -279 -114q-110 -115 -110 -305z" />
<glyph unicode=":" horiz-adv-x="377" d="M115 0v220h148v-220h-148zM115 843v220h148v-220h-148z" />
<glyph unicode=";" horiz-adv-x="377" d="M115 0v220h148v-191q0 -66 -20 -133l-34 -119h-90l63 223h-67zM115 843v220h148v-220h-148z" />
<glyph unicode="&#x3c;" horiz-adv-x="1123" d="M98 471v121l915 430v-120l-792 -371l792 -369v-120z" />
<glyph unicode="=" horiz-adv-x="1143" d="M115 250v110h914v-110h-914zM115 702v111h914v-111h-914z" />
<glyph unicode="&#x3e;" horiz-adv-x="1123" d="M111 42v120l791 369l-791 371v120l914 -430v-121z" />
<glyph unicode="?" horiz-adv-x="1029" d="M46 1008v21q5 218 135 338t327 120q198 0 331 -121t133 -327q0 -75 -23 -139q-23 -63 -58 -106q-37 -45 -79 -81q-55 -47 -86 -72q-39 -31 -79 -71q-35 -35 -58 -87t-23 -112h-114q0 75 21 136t56 102t77 77q23 20 83 69q40 33 76 72q35 38 56 93q22 58 22 122 q0 155 -98 245t-240 90q-148 0 -238 -96t-95 -260v-13h-126zM435 0v220h149v-220h-149z" />
<glyph unicode="@" horiz-adv-x="1628" d="M84 541q0 157 51 298q51 140 145 251q92 108 240 174q147 65 322 65q162 0 296 -55q136 -56 225 -152q93 -100 141 -231q49 -132 49 -291q0 -215 -90 -346q-90 -130 -246 -130q-177 0 -211 171q-75 -171 -252 -171q-136 0 -214 105q-77 104 -77 293q0 213 96 351 q97 139 252 139q163 0 217 -174l12 147h107l-42 -506q-7 -83 -7 -120q0 -158 125 -158q105 0 172 108q67 107 67 287q0 187 -73 333q-74 149 -215 233q-143 86 -331 86q-153 0 -283 -59t-212 -157q-83 -99 -128 -226q-45 -126 -45 -264q0 -286 180 -469t473 -183 q93 0 181 20q84 19 124 40l36 19l40 -67q-4 -4 -16 -11q-4 -2 -47 -22q-32 -15 -77 -28q-47 -14 -106 -22q-66 -9 -135 -9q-216 0 -384 89t-264 257t-96 385zM580 526q0 -141 53 -221q52 -79 143 -79q104 0 165 103q59 100 59 271q0 154 -49 231q-49 78 -134 78 q-106 0 -171 -110q-66 -111 -66 -273z" />
<glyph unicode="A" horiz-adv-x="1284" d="M8 0l569 1454h131l568 -1454h-137l-157 409h-681l-156 -409h-137zM346 525h592l-296 773z" />
<glyph unicode="B" horiz-adv-x="1299" d="M127 0v1454h593q220 0 336 -97t116 -275q0 -240 -199 -328q123 -42 190 -134q66 -92 66 -224q0 -183 -124 -289q-125 -107 -353 -107h-625zM259 115h473q365 0 365 283q0 146 -93 220q-94 74 -272 74h-473v-577zM259 803h456q159 0 242 68t83 205q0 263 -325 263h-456 v-536z" />
<glyph unicode="C" horiz-adv-x="1488" d="M94 727q0 221 86 396q85 174 238 269q152 95 343 95q241 0 418 -154q175 -153 216 -407h-134q-39 207 -180 327t-322 120q-107 0 -206 -44q-96 -43 -169 -125q-74 -83 -115 -204q-43 -126 -43 -273t43 -273q41 -121 115 -204q73 -82 169 -125q99 -44 206 -44 q182 0 322 119q141 120 180 328h134q-41 -254 -216 -407q-177 -154 -418 -154q-191 0 -343 95q-153 95 -238 269q-86 175 -86 396z" />
<glyph unicode="D" horiz-adv-x="1372" d="M127 0v1454h468q315 0 499 -195q184 -194 184 -532t-184 -532q-184 -195 -499 -195h-468zM259 115h341q244 0 395 161t151 451t-151 451t-395 161h-341v-1224z" />
<glyph unicode="E" horiz-adv-x="1218" d="M127 0v1454h987v-117h-855v-552h755v-116h-755v-552h862v-117h-994z" />
<glyph unicode="F" horiz-adv-x="1160" d="M127 0v1454h949v-117h-817v-563h726v-117h-726v-657h-132z" />
<glyph unicode="G" horiz-adv-x="1529" d="M94 723q0 225 86 400q85 174 238 269q152 95 346 95q227 0 399 -121q174 -122 229 -330h-134q-51 159 -188 248q-136 89 -308 89q-110 0 -208 -45t-170 -126q-73 -82 -115 -205q-43 -126 -43 -271q0 -290 154 -468q153 -177 398 -177q217 0 360 143q144 144 160 383h-479 v114h594v-721h-115v270q-68 -139 -206 -221t-321 -82q-148 0 -272 54q-126 55 -215 151q-91 99 -140 239q-50 144 -50 312z" />
<glyph unicode="H" horiz-adv-x="1376" d="M127 0v1454h132v-669h858v669h132v-1454h-132v669h-858v-669h-132z" />
<glyph unicode="I" horiz-adv-x="439" d="M154 0v1454h132v-1454h-132z" />
<glyph unicode="J" horiz-adv-x="1196" d="M48 531v48h133v-44q0 -219 92 -331q102 -123 287 -123q186 0 288 123q50 60 71 136q21 78 21 195v919h133v-928q0 -256 -122 -401q-134 -158 -390 -158q-257 0 -391 158q-122 145 -122 406z" />
<glyph unicode="K" horiz-adv-x="1267" d="M127 0v1454h132v-943l807 943h172l-488 -559l526 -895h-154l-462 792l-401 -459v-333h-132z" />
<glyph unicode="L" horiz-adv-x="1136" d="M127 0v1454h132v-1337h790v-117h-922z" />
<glyph unicode="M" horiz-adv-x="1701" d="M127 0v1454h156l568 -1299l568 1299h156v-1454h-129v1219l-532 -1219h-127l-531 1219v-1219h-129z" />
<glyph unicode="N" horiz-adv-x="1356" d="M127 0v1454h121l850 -1227v1227h132v-1454h-121l-850 1227v-1227h-132z" />
<glyph unicode="O" d="M94 727q0 223 87 396q89 176 241 269q155 95 352 95t352 -95q154 -94 242 -269q86 -171 86 -396t-86 -396q-88 -175 -242 -269q-155 -95 -352 -95t-352 95q-152 93 -241 269q-87 173 -87 396zM226 727q0 -148 44 -272t118 -204q75 -81 174 -126q97 -44 212 -44t212 44 q99 45 174 126q74 80 118 204t44 272t-44 272t-118 204q-75 81 -174 126q-97 44 -212 44t-212 -44q-99 -45 -174 -126q-74 -80 -118 -204t-44 -272z" />
<glyph unicode="P" horiz-adv-x="1240" d="M127 0v1454h602q214 0 338 -113q123 -113 123 -319t-123 -319q-122 -112 -338 -112h-470v-591h-132zM259 708h457q72 0 130 16q60 16 108 51q49 35 76 98q28 65 28 149t-28 149q-26 60 -76 98q-47 35 -108 52q-58 16 -130 16h-457v-629z" />
<glyph unicode="Q" d="M94 727q0 223 87 396q89 176 241 269q155 95 352 95t352 -95q154 -94 242 -269q86 -171 86 -396q0 -188 -61 -340q-61 -153 -174 -255l188 -221l-79 -71l-193 228q-160 -101 -361 -101q-197 0 -352 95q-152 93 -241 269q-87 173 -87 396zM226 727q0 -148 44 -272 t118 -204q75 -81 174 -126q97 -44 212 -44q156 0 281 81l-268 316l79 70l272 -320q184 181 184 499q0 148 -44 272t-118 204q-75 81 -174 126q-97 44 -212 44t-212 -44q-99 -45 -174 -126q-74 -80 -118 -204t-44 -272z" />
<glyph unicode="R" horiz-adv-x="1303" d="M127 0v1454h618q214 0 337 -115q122 -114 122 -325q0 -159 -69 -262q-70 -105 -196 -148l331 -604h-145l-310 578q-46 -4 -70 -4h-486v-574h-132zM259 691h475q154 0 246 78t92 245t-92 245t-246 78h-475v-646z" />
<glyph unicode="S" horiz-adv-x="1261" d="M86 394h141q0 -100 56 -173q55 -71 146 -106q89 -34 205 -34q86 0 153 17q72 18 130 54q59 36 93 97q33 59 33 143q0 36 -6 66t-22 53q-19 28 -32 42q-18 19 -49 35q-9 4 -28 14.5t-29 14.5q-26 12 -75 26q-62 17 -83 22q-16 3 -98 23q-213 51 -297 89q-176 80 -209 229 q-9 45 -9 78q0 175 146 289t369 114q229 0 381 -117q151 -117 151 -302h-135q0 134 -111 220q-110 85 -284 85q-165 0 -275 -75q-109 -75 -109 -214q0 -32 6 -59q7 -30 22 -51q19 -26 33 -40q18 -18 50 -34q42 -21 61 -29q27 -11 77 -27q36 -11 89 -25q30 -8 104 -25 q197 -48 278 -83q159 -71 200 -203q17 -54 17 -116q0 -185 -146 -305t-392 -120q-159 0 -282 49t-197 147q-73 97 -73 231z" />
<glyph unicode="T" horiz-adv-x="1327" d="M86 1337v117h1155v-117h-512v-1337h-131v1337h-512z" />
<glyph unicode="U" horiz-adv-x="1359" d="M123 586v868h132v-870q0 -257 107 -373q57 -61 139 -95q85 -35 179 -35t179 35q81 33 138 95q108 117 108 373v870h132v-868q0 -318 -154 -469q-153 -150 -403 -150q-251 0 -404 150t-153 469z" />
<glyph unicode="V" horiz-adv-x="1226" d="M22 1454h137l456 -1295l455 1295h135l-519 -1454h-142z" />
<glyph unicode="W" horiz-adv-x="1910" d="M54 1454h137l308 -1277l385 1277h143l385 -1277l307 1277h138l-366 -1454h-150l-386 1278l-386 -1278h-149z" />
<glyph unicode="X" horiz-adv-x="1217" d="M16 0l518 730l-510 724h154l431 -621l430 621h155l-510 -724l517 -730h-160l-433 626l-432 -626h-160z" />
<glyph unicode="Y" horiz-adv-x="1277" d="M14 1454h148l476 -838l478 838h148l-559 -972v-482h-133v483z" />
<glyph unicode="Z" horiz-adv-x="1231" d="M94 0v105l871 1232h-863v117h1025v-104l-871 -1233h882v-117h-1044z" />
<glyph unicode="[" horiz-adv-x="683" d="M115 -352v1855h470v-101h-355v-1653h355v-101h-470z" />
<glyph unicode="\" horiz-adv-x="896" d="M67 1454h135l627 -1454h-134z" />
<glyph unicode="]" horiz-adv-x="683" d="M98 -251h355v1653h-355v101h470v-1855h-470v101z" />
<glyph unicode="^" horiz-adv-x="990" d="M46 686l389 768h120l389 -768h-139l-310 629l-311 -629h-138z" />
<glyph unicode="_" horiz-adv-x="1242" d="M115 0v104h1012v-104h-1012z" />
<glyph unicode="`" horiz-adv-x="606" d="M95 1454h150l251 -268h-105z" />
<glyph unicode="a" horiz-adv-x="1089" d="M81 270q0 67 21 119t54 85q32 32 81 55q43 20 93 34q39 11 98 19q8 1 73 8q15 2 39.5 4t33.5 3q30 3 68 9q25 4 63 15q26 8 52 22t43 33q15 17 26 46q11 30 11 64q0 29 -14 63q-12 30 -44 65q-28 31 -91 53q-57 20 -141 20q-133 0 -210 -54q-76 -54 -91 -152h-124 q5 47 19 87q15 43 48 83q34 42 79 71q49 32 118 49q76 19 161 19q93 0 167 -21q75 -22 119 -55q46 -35 75 -80t41 -92t12 -98v-471q0 -72 8 -146q7 -60 16 -98l7 -29h-125q-20 65 -28 193q-98 -219 -394 -219q-181 0 -272 78q-92 78 -92 218zM205 276q0 -94 65 -146 q67 -53 196 -53q371 0 371 446v77q-24 -25 -64 -46q-37 -19 -98 -33q-80 -18 -100 -21q-8 -1 -49.5 -7.5t-73.5 -11.5q-38 -6 -73 -14q-27 -6 -65 -23q-34 -15 -57 -36q-22 -21 -37 -55q-15 -35 -15 -77z" />
<glyph unicode="b" horiz-adv-x="1173" d="M121 0v1454h124v-583q119 219 395 219q137 0 241 -74q105 -74 158 -199q55 -128 55 -286q0 -243 -124 -400t-330 -157q-277 0 -395 217v-191h-124zM245 531q0 -211 102 -332q102 -122 259 -122q160 0 262 122q102 121 102 332t-102 334q-101 122 -262 122 q-158 0 -259 -122q-102 -123 -102 -334z" />
<glyph unicode="c" horiz-adv-x="1117" d="M81 531q0 254 130 406q131 153 357 153q180 0 303 -108t163 -292h-129q-38 137 -128 217q-91 80 -209 80q-159 0 -261 -126t-102 -330q0 -202 102 -328t261 -126q120 0 210 81t128 215h128q-39 -187 -164 -292q-127 -107 -302 -107q-226 0 -357 152q-130 151 -130 405z " />
<glyph unicode="d" horiz-adv-x="1173" d="M80 531q0 160 54 286q53 125 158 199q104 74 242 74q276 0 395 -219v583h124v-1454h-124v191q-118 -217 -395 -217q-207 0 -331 157q-123 156 -123 400zM204 531q0 -211 102 -332q102 -122 261 -122q158 0 260 122q102 121 102 332t-102 334q-101 122 -260 122 q-160 0 -261 -122q-102 -123 -102 -334z" />
<glyph unicode="e" horiz-adv-x="1112" d="M81 529q0 251 126 406t349 155q222 0 349 -153q128 -154 128 -409l-1 -50h-824q14 -184 110 -292q97 -109 244 -109q100 0 176 50q79 52 125 142h139q-59 -142 -169 -218q-112 -77 -271 -77q-226 0 -353 151q-128 152 -128 404zM208 581h697q-12 192 -106 300 q-93 106 -237 106q-150 0 -246 -112q-96 -113 -108 -294z" />
<glyph unicode="f" horiz-adv-x="731" d="M48 954v109h234v90q0 164 68 236q69 73 210 73q32 0 65 -3q13 -1 30 -3t18 -2l15 -3v-117q-74 12 -128 12q-86 0 -120 -43t-34 -150v-90h282v-109h-282v-954h-124v954h-234z" />
<glyph unicode="g" horiz-adv-x="1174" d="M81 531q0 160 54 286q53 125 158 199q104 74 242 74q276 0 395 -219v192h124v-905q0 -79 -4 -130t-17 -119q-11 -59 -34 -108q-22 -46 -57 -89q-34 -41 -87 -70q-48 -26 -122 -43q-70 -16 -164 -16q-98 0 -178 20q-81 20 -128 56q-49 37 -81 81q-32 45 -53 102h125 q81 -156 317 -156q112 0 182 29q71 30 110 94q36 60 52 145q15 81 15 204v33q-118 -217 -395 -217q-207 0 -331 157q-123 156 -123 400zM205 531q0 -211 102 -332q102 -122 261 -122q158 0 260 122q102 121 102 332t-102 334q-101 122 -260 122q-160 0 -261 -122 q-102 -123 -102 -334z" />
<glyph unicode="h" horiz-adv-x="1140" d="M121 0v1454h124v-587q98 223 389 223q193 0 290 -103q98 -104 98 -323v-664h-124v647q0 181 -74 260q-74 78 -212 78q-178 0 -273 -126q-94 -125 -94 -355v-504h-124z" />
<glyph unicode="i" horiz-adv-x="402" d="M134 1256v198h134v-198h-134zM139 0v1063h124v-1063h-124z" />
<glyph unicode="j" horiz-adv-x="402" d="M-52 -291h19q83 0 128 49q44 48 44 165v1140h124v-1147q0 -307 -269 -307h-46v100zM134 1256v198h134v-198h-134z" />
<glyph unicode="k" horiz-adv-x="1040" d="M121 0v1454h124v-1030l603 639h167l-406 -415l432 -648h-141l-380 557l-275 -284v-273h-124z" />
<glyph unicode="l" horiz-adv-x="402" d="M139 0v1454h124v-1454h-124z" />
<glyph unicode="m" horiz-adv-x="1756" d="M121 0v1063h124v-184q91 211 351 211q266 0 323 -245q16 45 42 85q23 35 68 77q41 38 110 61q66 22 154 22q344 0 344 -405v-685h-124v662q0 323 -243 323q-155 0 -242 -120t-87 -340v-525h-124v662q0 323 -245 323q-154 0 -241 -120q-86 -119 -86 -340v-525h-124z" />
<glyph unicode="n" horiz-adv-x="1136" d="M121 0v1063h124v-195q98 222 387 222q191 0 289 -103q97 -101 97 -323v-664h-124v647q0 181 -73 260q-72 78 -211 78q-179 0 -272 -126t-93 -355v-504h-124z" />
<glyph unicode="o" horiz-adv-x="1152" d="M81 531q0 252 133 406q132 153 361 153q220 0 358 -155t138 -404q0 -250 -138 -403q-139 -154 -358 -154q-229 0 -361 152q-133 153 -133 405zM206 531q0 -203 104 -328q105 -126 265 -126q154 0 262 127q108 128 108 327q0 201 -108 328q-108 128 -262 128 q-160 0 -265 -126q-104 -125 -104 -330z" />
<glyph unicode="p" horiz-adv-x="1173" d="M121 -391v1454h124v-192q119 219 395 219q138 0 242 -74q105 -74 158 -199q54 -126 54 -286q0 -243 -124 -400t-330 -157q-277 0 -395 217v-582h-124zM245 531q0 -211 102 -332q102 -122 259 -122q160 0 262 122q102 121 102 332t-102 334q-101 122 -262 122 q-158 0 -259 -122q-102 -123 -102 -334z" />
<glyph unicode="q" horiz-adv-x="1173" d="M80 531q0 160 54 286t157 199q104 74 243 74q276 0 395 -219v192h124v-1454h-124v582q-118 -217 -395 -217q-207 0 -331 157q-123 156 -123 400zM204 531q0 -211 102 -332q102 -122 261 -122q158 0 260 122q102 121 102 332t-102 334q-101 122 -260 122q-160 0 -261 -122 q-102 -123 -102 -334z" />
<glyph unicode="r" horiz-adv-x="776" d="M121 0v1063h124v-202q18 43 45 77q27 35 68 68q40 33 102 51t136 18q36 0 66 -3q25 -2 43 -7l12 -4v-110q-48 16 -117 16q-355 0 -355 -508v-459h-124z" />
<glyph unicode="s" horiz-adv-x="1038" d="M87 291h125q0 -103 78 -159q77 -55 228 -55q158 0 234 57t76 152q0 36 -9 65q-9 27 -31 48q-24 22 -45 34q-24 13 -62 24q-25 7 -71 17q-34 8 -84 15q-3 1 -7 1h-1h-1l-1 2h-1h-1h-1h-1h-1l-1 1h-1h-1q-179 30 -249 61q-149 64 -156 210v17q0 140 104 224q105 85 305 85 q196 0 309 -83t113 -226h-121q0 90 -77 148t-223 58q-143 0 -214 -55q-73 -56 -73 -142q0 -99 86 -141q47 -23 199 -49h1h1h1h1l1 -1h1h2q177 -30 248 -56q151 -57 178 -186q6 -30 6 -63q0 -146 -108 -233t-327 -87q-213 0 -321 84t-108 233z" />
<glyph unicode="t" horiz-adv-x="755" d="M40 954v109h233v321l124 49v-370h283v-109h-283v-630q0 -129 48 -180q49 -52 141 -52q24 0 48 3q9 1 20.5 3t14.5 2l11 3v-99q-68 -12 -131 -12q-143 0 -209 82q-67 84 -67 250v630h-233z" />
<glyph unicode="u" horiz-adv-x="1129" d="M119 400v663h124v-646q0 -183 71 -260q72 -78 209 -78q179 0 270 125q92 127 92 356v503h124v-1063h-124v190q-96 -216 -383 -216q-190 0 -287 103q-96 102 -96 323z" />
<glyph unicode="v" horiz-adv-x="1033" d="M14 1063h137l365 -925l367 925h136l-434 -1063h-136z" />
<glyph unicode="w" horiz-adv-x="1646" d="M38 1063h136l286 -905l296 905h135l295 -905l287 905h136l-353 -1063h-140l-293 907l-293 -907h-140z" />
<glyph unicode="x" horiz-adv-x="1064" d="M32 0l424 535l-421 528h151l345 -439l347 439h151l-421 -528l424 -535h-161l-340 442l-338 -442h-161z" />
<glyph unicode="y" horiz-adv-x="1033" d="M14 1063h137l365 -921l366 921h137l-597 -1454h-130l163 380z" />
<glyph unicode="z" horiz-adv-x="1000" d="M80 0v100l672 863h-665v100h810v-100l-673 -863h697v-100h-841z" />
<glyph unicode="{" horiz-adv-x="817" d="M79 525v101q116 0 166 56q52 58 52 205v355q0 134 59 197q60 64 186 64h176v-101h-170q-69 0 -102 -33t-33 -115v-372q0 -247 -146 -307q146 -60 146 -306v-372q0 -82 33 -115t102 -33h170v-101h-176q-126 0 -186 64q-59 63 -59 197v355q0 146 -52 204q-51 57 -166 57z " />
<glyph unicode="|" horiz-adv-x="371" d="M128 -282v1972h116v-1972h-116z" />
<glyph unicode="}" horiz-adv-x="817" d="M99 -251h170q69 0 102 33t33 115v372q0 246 146 306q-146 60 -146 307v372q0 82 -33 115t-102 33h-170v101h176q126 0 186 -64q59 -63 59 -197v-355q0 -147 52 -205q50 -56 166 -56v-101q-115 0 -166 -57q-52 -58 -52 -204v-355q0 -134 -59 -197q-60 -64 -186 -64h-176 v101z" />
<glyph unicode="~" horiz-adv-x="1213" d="M96 374q0 144 71 227q70 82 192 82q61 0 114 -21q55 -22 147 -77t98 -58q28 -15 65 -28q36 -13 70 -13q150 0 155 203h109q0 -145 -70 -227t-193 -82q-62 0 -114 21q-51 21 -146 77q-85 51 -99 58q-24 13 -65 28q-35 13 -71 13q-150 0 -153 -203h-110z" />
<glyph unicode="&#xa1;" horiz-adv-x="379" d="M115 843v220h148v-220h-148zM128 162l24 530h75l24 -530v-553h-123v553z" />
<glyph unicode="&#xa2;" horiz-adv-x="1117" d="M81 531q0 239 115 388q116 150 320 168v173h82v-171q168 -9 283 -116q114 -106 153 -283h-129q-37 130 -117 207t-190 88v-907q109 11 191 90t117 205h128q-38 -176 -154 -282q-118 -107 -282 -116v-172h-82v173q-204 18 -320 168q-115 149 -115 387zM205 531 q0 -183 86 -307q85 -122 225 -143v902q-140 -21 -225 -144q-86 -124 -86 -308z" />
<glyph unicode="&#xa3;" horiz-adv-x="1222" d="M109 0v103q7 3 35 19q16 10 59 44q32 26 66 68q31 39 53 96t22 123q0 60 -17 122h-218v111h178q-5 11 -30 67q-26 58 -32 73q-4 10 -25 67q-15 41 -21 81q-6 41 -6 82q0 188 131 310q130 121 337 121q214 0 350 -131q135 -130 135 -341v-18h-132v17q0 171 -101 265 q-103 95 -252 95q-147 0 -241 -87q-95 -87 -95 -231q0 -46 12 -98q12 -51 24 -85q20 -55 38 -99l36 -88h386v-111h-349q16 -61 16 -122q0 -108 -50 -194q-49 -85 -121 -142h829v-117h-1017z" />
<glyph unicode="&#xa4;" horiz-adv-x="1124" d="M68 301l206 207q-70 92 -70 219t70 219l-206 207l69 69l207 -207q94 69 218 69q122 0 217 -69l208 207l70 -69l-207 -207q71 -95 71 -219t-71 -219l207 -207l-70 -69l-208 206q-93 -68 -217 -68q-125 0 -218 68l-207 -206zM301 727q0 -116 74 -193t187 -77t187 77t74 193 q0 117 -74 194q-73 76 -187 76t-187 -76q-74 -77 -74 -194z" />
<glyph unicode="&#xa5;" horiz-adv-x="1209" d="M14 1454h140l450 -840l452 840h139l-352 -648h220v-111h-281l-99 -184h380v-111h-392v-400h-132v400h-393v111h380l-100 184h-280v111h221z" />
<glyph unicode="&#xa6;" horiz-adv-x="371" d="M128 -282v862h116v-862h-116zM128 956v734h116v-734h-116z" />
<glyph unicode="&#xa7;" horiz-adv-x="1153" d="M86 588q0 194 166 293q-139 85 -139 244q0 163 129 263q128 100 330 100q205 0 340 -105t135 -269h-125q0 117 -98 189q-97 72 -253 72q-145 0 -241 -66t-96 -184q0 -20 6 -52q5 -24 19 -43q17 -22 29 -34q16 -16 44 -30q8 -4 53 -25q17 -8 69 -23q68 -20 78 -22 q11 -2 42 -10.5t52 -13.5q22 -5 54.5 -13.5t43.5 -11.5q28 -7 90 -28q50 -17 84 -35q28 -14 67 -44q36 -27 56 -59t33 -73q13 -40 13 -94q0 -197 -166 -293q139 -85 139 -245q0 -162 -129 -262q-128 -100 -330 -100q-206 0 -340 107q-135 108 -135 277h125q0 -121 98 -196 q97 -75 253 -75q145 0 241 66t96 183q0 21 -6 53q-5 24 -19 43q-17 22 -29 34q-16 16 -44 30q-22 11 -52 25q-15 7 -70 23q-68 20 -78 22t-23.5 5.5t-34.5 8.5t-36 9q-22 5 -54.5 13.5t-43.5 11.5q-18 4 -90 29q-50 17 -84 35q-28 14 -67 44q-38 28 -56 58q-19 31 -33 74 q-13 40 -13 94zM203 588q0 -36 9 -64q9 -29 22 -49t42 -40q27 -19 54 -32q17 -9 71 -26q26 -8 82 -23q13 -3 47 -11t52 -12q140 -33 216 -61q70 34 111 96t41 148q0 36 -9 64q-9 29 -22 49t-42 40q-22 15 -54 31q-23 12 -71 27q-26 8 -82 23q-13 3 -47 11t-52 12 q-138 31 -217 60q-71 -35 -111 -95q-40 -61 -40 -148z" />
<glyph unicode="&#xa8;" horiz-adv-x="736" d="M111 1201v215h118v-215h-118zM507 1201v215h119v-215h-119z" />
<glyph unicode="&#xa9;" horiz-adv-x="1632" d="M94 727q0 165 57 307q57 143 153 239t229 152t283 56q149 0 284 -56q133 -55 230 -152q96 -97 152 -239q56 -144 56 -307t-56 -307q-56 -142 -152 -239q-96 -96 -230 -152q-135 -56 -284 -56q-150 0 -283 56t-229 152t-153 239q-57 142 -57 307zM161 727q0 -155 50 -281 q51 -129 139 -220q86 -89 208 -140t258 -51t258 51q124 52 209 140q86 89 138 220q50 126 50 281t-50 281q-52 131 -138 220q-87 90 -209 141q-119 50 -258 50t-258 -50q-121 -51 -208 -141q-88 -91 -139 -220q-50 -126 -50 -281zM446 728q0 194 105 316q105 121 274 121 q140 0 238 -88t122 -234h-89q-21 115 -96 180q-74 63 -176 63q-127 0 -208 -94q-80 -93 -80 -264t80 -264q81 -94 208 -94q102 0 176 63q76 65 96 180h89q-24 -146 -122 -234t-238 -88q-169 0 -274 121q-105 122 -105 316z" />
<glyph unicode="&#xaa;" horiz-adv-x="807" d="M68 902q0 188 248 222q38 5 66 7q23 2 69 7q20 2 58 11q33 7 53 20q16 10 32 36q13 22 13 55q0 51 -46 91t-148 40q-91 0 -150 -37q-56 -35 -65 -98h-102q9 91 86 154t227 63q81 0 143 -21t94 -56q33 -36 48 -75q16 -42 16 -84v-336q0 -62 5 -102q5 -42 11 -69l5 -20 h-102q-17 49 -21 129q-74 -148 -279 -148q-131 0 -197 58q-64 57 -64 153zM170 908q0 -61 46 -98t137 -37q125 0 190 77q64 76 64 222v65q-21 -27 -57 -43q-35 -16 -66 -22q-27 -6 -82 -12q-20 -2 -42 -5t-24 -3q-166 -27 -166 -144z" />
<glyph unicode="&#xab;" horiz-adv-x="1158" d="M102 483v115l467 460v-163l-367 -354l367 -355v-162zM575 483v115l467 460v-163l-367 -354l367 -355v-162z" />
<glyph unicode="&#xac;" horiz-adv-x="1143" d="M115 620v110h914v-592h-111v482h-803z" />
<glyph unicode="&#xad;" horiz-adv-x="766" d="M115 476v111h537v-111h-537z" />
<glyph unicode="&#xae;" horiz-adv-x="1102" d="M92 993q0 212 131 346t328 134q195 0 328 -135q132 -134 132 -345t-132 -344q-132 -134 -328 -134q-197 0 -328 134t-131 344zM148 993q0 -187 116 -306t287 -119q172 0 288 119q115 118 115 306t-115 307t-288 119q-172 0 -287 -119q-116 -121 -116 -307zM373 736v521 h218q77 0 121 -42t44 -116q0 -60 -28 -98q-27 -38 -80 -53l123 -212h-77l-116 205h-135v-205h-70zM443 1005h145q44 0 70 23q27 24 27 70t-27 71q-26 25 -70 25h-145v-189z" />
<glyph unicode="&#xaf;" horiz-adv-x="773" d="M111 1266v92h552v-92h-552z" />
<glyph unicode="&#xb0;" horiz-adv-x="833" d="M84 1142q0 141 95 236t238 95q142 0 237 -95q96 -96 96 -236q0 -141 -96 -237q-94 -94 -237 -94q-144 0 -238 94q-95 95 -95 237zM184 1142q0 -103 67 -171q68 -69 166 -69q97 0 165 69q67 68 67 171t-67 171t-165 68q-99 0 -166 -68t-67 -171z" />
<glyph unicode="&#xb1;" horiz-adv-x="1143" d="M115 0v111h914v-111h-914zM115 613v111h401v408h112v-408h401v-111h-401v-353h-112v353h-401z" />
<glyph unicode="&#xb2;" horiz-adv-x="692" d="M71 882v21q0 53 13 95q14 44 33 74t57 63q31 28 67 52q10 7 38 24.5t44 28.5q49 30 77 50q18 13 57 48q31 28 45 61q13 30 13 70q0 74 -47 119q-46 45 -121 45q-80 0 -127 -53t-47 -139v-21h-102v22q0 130 75 205t201 75q124 0 196 -68q74 -69 74 -181q0 -59 -21 -107 q-22 -51 -56 -83q-40 -38 -78 -64q-51 -35 -87 -55q-47 -26 -85 -53q-43 -30 -70 -62q-30 -36 -42 -78h448v-89h-555z" />
<glyph unicode="&#xb3;" horiz-adv-x="732" d="M67 1130h102q0 -48 14 -80q15 -34 35 -53q20 -18 50 -31q28 -12 53 -15q24 -3 49 -3q99 0 149 46t50 117q0 73 -52 113q-53 41 -126 41h-70v89h83q64 0 100 38t36 95q0 71 -51 110t-122 39q-80 0 -136 -49t-56 -141h-99q0 129 83 203q82 73 207 73q114 0 193 -61 q80 -62 80 -164q0 -67 -34 -116q-33 -48 -94 -69q72 -22 116 -71q45 -51 45 -135q0 -108 -80 -176t-225 -68q-142 0 -221 67t-79 201z" />
<glyph unicode="&#xb4;" horiz-adv-x="606" d="M111 1186l250 268h150l-296 -268h-104z" />
<glyph unicode="&#xb5;" horiz-adv-x="1131" d="M121 -391v1454h124v-646q0 -183 71 -260q72 -78 209 -78q179 0 270 125q92 127 92 356v503h124v-1063h-124v190q-96 -216 -383 -216q-172 0 -259 93v-458h-124z" />
<glyph unicode="&#xb6;" horiz-adv-x="1300" d="M50 1025q0 207 123 318t337 111h664v-1776h-125v1676h-239v-1676h-124v917h-176q-213 0 -337 112q-123 111 -123 318z" />
<glyph unicode="&#xb7;" horiz-adv-x="377" d="M115 421v220h148v-220h-148z" />
<glyph unicode="&#xb8;" horiz-adv-x="702" d="M98 -396l21 59q12 -11 33 -23q22 -14 75 -30q54 -17 108 -17q75 0 118 29q42 29 42 82q0 52 -38 82q-39 31 -107 31q-34 0 -59 -7q-26 -7 -37 -15l-10 -7l-43 24l134 188h73l-99 -136q35 9 79 9q89 0 153 -44q63 -44 63 -128q0 -87 -70 -130t-183 -43q-72 0 -130 17 q-64 19 -85 32q-19 12 -38 27z" />
<glyph unicode="&#xb9;" horiz-adv-x="489" d="M67 1394v89q107 3 162 68q57 67 64 153h87v-822h-102v622q-59 -110 -211 -110z" />
<glyph unicode="&#xba;" horiz-adv-x="872" d="M80 1081q0 175 98 284q98 108 258 108q162 0 259 -108q98 -109 98 -284q0 -173 -98 -282q-97 -108 -259 -108q-160 0 -258 108q-98 109 -98 282zM182 1081q0 -146 72 -227t182 -81t182 81t72 227q0 147 -72 228q-73 82 -182 82t-182 -82q-72 -81 -72 -228z" />
<glyph unicode="&#xbb;" horiz-adv-x="1158" d="M116 24v162l367 355l-367 354v163l467 -460v-115zM589 24v162l367 355l-367 354v163l467 -460v-115z" />
<glyph unicode="&#xbc;" horiz-adv-x="1598" d="M67 1144v89q107 3 162 69q57 67 64 152h87v-822h-102v622q-59 -110 -211 -110zM268 -33l911 1520h104l-909 -1520h-106zM878 180v85l419 557h110v-555h131v-87h-131v-180h-102v180h-427zM984 267h321v425z" />
<glyph unicode="&#xbd;" horiz-adv-x="1633" d="M67 1144v89q107 3 162 69q57 67 64 152h87v-822h-102v622q-59 -110 -211 -110zM268 -33l911 1520h104l-909 -1520h-106zM1012 0v22q0 50 14 95t32 73q20 30 57 63q37 32 67 53q9 6 36.5 23t45.5 29q38 23 77 51q23 16 57 47q31 28 45 61q13 30 13 71q0 73 -46 118 q-48 46 -122 46q-79 0 -127 -54q-47 -53 -47 -139v-20h-102v21q0 130 75 205q76 76 201 76q122 0 196 -69q75 -70 75 -181q0 -59 -21 -107q-21 -49 -57 -83q-40 -38 -78 -64q-51 -35 -87 -55q-47 -26 -85 -53q-43 -30 -70 -62q-30 -36 -42 -78h448v-89h-555z" />
<glyph unicode="&#xbe;" horiz-adv-x="1744" d="M67 881h102q0 -49 14 -81q15 -34 35 -53q20 -18 50 -31q28 -12 53 -15q24 -3 49 -3q99 0 149 46t50 117q0 73 -52 113q-53 41 -126 41h-70v89h83q64 0 100 38t36 95q0 72 -51 111q-50 38 -122 38q-80 0 -136 -49t-56 -141h-99q0 129 83 203t207 74q114 0 193 -61 q80 -62 80 -165q0 -66 -34 -115t-94 -70q72 -22 116 -71q45 -51 45 -135q0 -108 -80 -176t-225 -68q-142 0 -221 67t-79 202zM415 -33l910 1520h105l-910 -1520h-105zM1024 180v85l420 557h109v-555h131v-87h-131v-180h-102v180h-427zM1130 267h321v425z" />
<glyph unicode="&#xbf;" horiz-adv-x="1029" d="M57 24q0 75 23 139q23 63 58 106q37 45 79 81q55 47 86 72q39 31 79 71q35 35 58 87t23 112h115q0 -72 -22 -136q-21 -61 -56 -102t-77 -77q-23 -20 -83 -69q-40 -33 -76 -72q-35 -38 -56 -93q-22 -58 -22 -123q0 -154 98 -244t240 -90q148 0 238 96t95 260v13h126v-21 q-5 -218 -135 -338t-327 -120q-198 0 -331 121t-133 327zM445 843v220h149v-220h-149z" />
<glyph unicode="&#xc0;" horiz-adv-x="1284" d="M8 0l569 1454h131l568 -1454h-137l-157 409h-681l-156 -409h-137zM346 525h592l-296 773zM360 1845h150l251 -268h-105z" />
<glyph unicode="&#xc1;" horiz-adv-x="1284" d="M8 0l569 1454h131l568 -1454h-137l-157 409h-681l-156 -409h-137zM346 525h592l-296 773zM523 1577l251 268h150l-296 -268h-105z" />
<glyph unicode="&#xc2;" horiz-adv-x="1284" d="M8 0l569 1454h131l568 -1454h-137l-157 409h-681l-156 -409h-137zM330 1556l256 289h112l257 -289h-129l-184 223l-183 -223h-129zM346 525h592l-296 773z" />
<glyph unicode="&#xc3;" horiz-adv-x="1284" d="M8 0l569 1454h131l568 -1454h-137l-157 409h-681l-156 -409h-137zM299 1586q1 224 173 224q49 0 84 -15q40 -17 106 -55q59 -34 83 -44q30 -12 60 -12q46 0 72 31q24 29 26 105h82q-1 -62 -15 -108q-13 -45 -55 -81q-40 -34 -106 -34q-41 0 -77 15q-43 18 -109 55 q-59 34 -86 45q-24 10 -56 10q-49 0 -75 -30q-24 -29 -26 -106h-81zM346 525h592l-296 773z" />
<glyph unicode="&#xc4;" horiz-adv-x="1284" d="M8 0l569 1454h131l568 -1454h-137l-157 409h-681l-156 -409h-137zM346 525h592l-296 773zM385 1592v215h119v-215h-119zM781 1592v215h119v-215h-119z" />
<glyph unicode="&#xc5;" horiz-adv-x="1284" d="M8 0l569 1454h131l568 -1454h-137l-157 409h-681l-156 -409h-137zM346 525h592l-296 773zM449 1729q0 74 52 123q53 50 141 50t141 -50t53 -123q0 -74 -53 -124t-141 -50t-141 50q-52 49 -52 124zM537 1729q0 -46 28 -75q29 -30 77 -30t77 30q29 31 29 75q0 43 -29 74 q-28 30 -77 30q-48 0 -77 -30q-28 -29 -28 -74z" />
<glyph unicode="&#xc7;" horiz-adv-x="1488" d="M94 727q0 221 86 396q85 174 238 269q152 95 343 95q241 0 418 -154q175 -153 216 -407h-134q-39 207 -180 327t-322 120q-107 0 -206 -44q-96 -43 -169 -125q-74 -83 -115 -204q-43 -126 -43 -273t43 -273q41 -121 115 -204q73 -82 169 -125q99 -44 206 -44 q182 0 322 119q141 120 180 328h134q-41 -251 -212 -404q-170 -152 -410 -157l-75 -103q34 9 79 9q89 0 153 -44q63 -44 63 -128q0 -87 -70 -130t-183 -43q-72 0 -130 17q-64 19 -85 32q-19 12 -38 27l21 59q12 -11 33 -23q23 -14 75 -30q54 -17 108 -17q75 0 118 29 q42 29 42 82q0 52 -38 82q-39 31 -107 31q-34 0 -59 -7q-26 -7 -37 -15l-10 -7l-43 24l112 157q-268 22 -438 231t-170 527z" />
<glyph unicode="&#xc8;" horiz-adv-x="1218" d="M127 0v1454h987v-117h-855v-552h755v-116h-755v-552h862v-117h-994zM330 1845h149l251 -268h-104z" />
<glyph unicode="&#xc9;" horiz-adv-x="1218" d="M127 0v1454h987v-117h-855v-552h755v-116h-755v-552h862v-117h-994zM503 1577l251 268h149l-296 -268h-104z" />
<glyph unicode="&#xca;" horiz-adv-x="1218" d="M127 0v1454h987v-117h-855v-552h755v-116h-755v-552h862v-117h-994zM311 1556l256 289h113l257 -289h-129l-184 223l-184 -223h-129z" />
<glyph unicode="&#xcb;" horiz-adv-x="1218" d="M127 0v1454h987v-117h-855v-552h755v-116h-755v-552h862v-117h-994zM367 1592v215h118v-215h-118zM763 1592v215h119v-215h-119z" />
<glyph unicode="&#xcc;" horiz-adv-x="439" d="M-71 1845h150l251 -268h-105zM154 0v1454h132v-1454h-132z" />
<glyph unicode="&#xcd;" horiz-adv-x="439" d="M110 1577l250 268h150l-296 -268h-104zM154 0v1454h132v-1454h-132z" />
<glyph unicode="&#xce;" horiz-adv-x="439" d="M-93 1556l256 289h112l257 -289h-129l-184 223l-183 -223h-129zM154 0v1454h132v-1454h-132z" />
<glyph unicode="&#xcf;" horiz-adv-x="439" d="M-38 1592v215h119v-215h-119zM154 0v1454h132v-1454h-132zM358 1592v215h119v-215h-119z" />
<glyph unicode="&#xd0;" horiz-adv-x="1434" d="M-1 669v116h716v-116h-716zM189 0v1454h468q315 0 500 -195q183 -193 183 -532t-183 -532q-185 -195 -500 -195h-468zM322 115h341q243 0 394 161t151 451t-151 451t-394 161h-341v-1224z" />
<glyph unicode="&#xd1;" horiz-adv-x="1356" d="M127 0v1454h121l850 -1227v1227h132v-1454h-121l-850 1227v-1227h-132zM335 1586q1 224 173 224q48 0 83 -15q40 -17 106 -55q57 -33 84 -44q30 -12 60 -12q45 0 71 31q26 30 27 105h82q-1 -62 -15 -108q-13 -45 -55 -81q-40 -34 -106 -34q-42 0 -78 15q-43 18 -109 55 q-59 34 -86 45q-24 10 -55 10q-49 0 -75 -30q-24 -29 -26 -106h-81z" />
<glyph unicode="&#xd2;" d="M94 727q0 223 87 396q89 176 241 269q155 95 352 95t352 -95q154 -94 242 -269q86 -171 86 -396t-86 -396q-88 -175 -242 -269q-155 -95 -352 -95t-352 95q-152 93 -241 269q-87 173 -87 396zM226 727q0 -148 44 -272t118 -204q75 -81 174 -126q97 -44 212 -44t212 44 q99 45 174 126q74 80 118 204t44 272t-44 272t-118 204q-75 81 -174 126q-97 44 -212 44t-212 -44q-99 -45 -174 -126q-74 -80 -118 -204t-44 -272zM481 1845h150l251 -268h-105z" />
<glyph unicode="&#xd3;" d="M94 727q0 223 87 396q89 176 241 269q155 95 352 95t352 -95q154 -94 242 -269q86 -171 86 -396t-86 -396q-88 -175 -242 -269q-155 -95 -352 -95t-352 95q-152 93 -241 269q-87 173 -87 396zM226 727q0 -148 44 -272t118 -204q75 -81 174 -126q97 -44 212 -44t212 44 q99 45 174 126q74 80 118 204t44 272t-44 272t-118 204q-75 81 -174 126q-97 44 -212 44t-212 -44q-99 -45 -174 -126q-74 -80 -118 -204t-44 -272zM667 1577l251 268h149l-296 -268h-104z" />
<glyph unicode="&#xd4;" d="M94 727q0 223 87 396q89 176 241 269q155 95 352 95t352 -95q154 -94 242 -269q86 -171 86 -396t-86 -396q-88 -175 -242 -269q-155 -95 -352 -95t-352 95q-152 93 -241 269q-87 173 -87 396zM226 727q0 -148 44 -272t118 -204q75 -81 174 -126q97 -44 212 -44t212 44 q99 45 174 126q74 80 118 204t44 272t-44 272t-118 204q-75 81 -174 126q-97 44 -212 44t-212 -44q-99 -45 -174 -126q-74 -80 -118 -204t-44 -272zM462 1556l256 289h112l257 -289h-129l-184 223l-183 -223h-129z" />
<glyph unicode="&#xd5;" d="M94 727q0 223 87 396q89 176 241 269q155 95 352 95t352 -95q154 -94 242 -269q86 -171 86 -396t-86 -396q-88 -175 -242 -269q-155 -95 -352 -95t-352 95q-152 93 -241 269q-87 173 -87 396zM226 727q0 -148 44 -272t118 -204q75 -81 174 -126q97 -44 212 -44t212 44 q99 45 174 126q74 80 118 204t44 272t-44 272t-118 204q-75 81 -174 126q-97 44 -212 44t-212 -44q-99 -45 -174 -126q-74 -80 -118 -204t-44 -272zM431 1586q1 224 173 224q49 0 84 -15q40 -17 106 -55q57 -33 84 -44q30 -12 59 -12q46 0 72 31q24 29 26 105h82 q-1 -62 -15 -108t-54 -81q-40 -34 -107 -34q-41 0 -77 15q-43 18 -109 55q-59 34 -86 45q-24 10 -56 10q-49 0 -75 -30q-24 -29 -26 -106h-81z" />
<glyph unicode="&#xd6;" d="M94 727q0 223 87 396q89 176 241 269q155 95 352 95t352 -95q154 -94 242 -269q86 -171 86 -396t-86 -396q-88 -175 -242 -269q-155 -95 -352 -95t-352 95q-152 93 -241 269q-87 173 -87 396zM226 727q0 -148 44 -272t118 -204q75 -81 174 -126q97 -44 212 -44t212 44 q99 45 174 126q74 80 118 204t44 272t-44 272t-118 204q-75 81 -174 126q-97 44 -212 44t-212 -44q-99 -45 -174 -126q-74 -80 -118 -204t-44 -272zM517 1592v215h119v-215h-119zM913 1592v215h119v-215h-119z" />
<glyph unicode="&#xd7;" horiz-adv-x="1033" d="M115 205l326 326l-326 327l74 75l327 -327l328 328l75 -76l-327 -327l327 -326l-76 -76l-327 327l-327 -327z" />
<glyph unicode="&#xd8;" d="M94 727q0 223 87 396q89 176 241 269q155 95 352 95q263 0 447 -167l151 183l56 -50l-155 -188q181 -208 181 -538q0 -225 -86 -396q-88 -175 -242 -269q-155 -95 -352 -95q-259 0 -440 161l-147 -177l-56 50l150 181q-187 213 -187 545zM226 727q0 -272 136 -445 l779 941q-153 150 -367 150q-115 0 -212 -44q-99 -45 -174 -126q-74 -80 -118 -204t-44 -272zM414 225q147 -144 360 -144q115 0 212 44q99 45 174 126q74 80 118 204t44 272q0 262 -131 438z" />
<glyph unicode="&#xd9;" horiz-adv-x="1359" d="M123 586v868h132v-870q0 -257 107 -373q57 -61 139 -95q85 -35 179 -35t179 35q81 33 138 95q108 117 108 373v870h132v-868q0 -318 -154 -469q-153 -150 -403 -150q-251 0 -404 150t-153 469zM394 1845h150l251 -268h-105z" />
<glyph unicode="&#xda;" horiz-adv-x="1359" d="M123 586v868h132v-870q0 -257 107 -373q57 -61 139 -95q85 -35 179 -35t179 35q81 33 138 95q108 117 108 373v870h132v-868q0 -318 -154 -469q-153 -150 -403 -150q-251 0 -404 150t-153 469zM565 1577l251 268h150l-296 -268h-105z" />
<glyph unicode="&#xdb;" horiz-adv-x="1359" d="M123 586v868h132v-870q0 -257 107 -373q57 -61 139 -95q85 -35 179 -35t179 35q81 33 138 95q108 117 108 373v870h132v-868q0 -318 -154 -469q-153 -150 -403 -150q-251 0 -404 150t-153 469zM368 1556l256 289h112l257 -289h-129l-184 223l-183 -223h-129z" />
<glyph unicode="&#xdc;" horiz-adv-x="1359" d="M123 586v868h132v-870q0 -257 107 -373q57 -61 139 -95q85 -35 179 -35t179 35q81 33 138 95q108 117 108 373v870h132v-868q0 -318 -154 -469q-153 -150 -403 -150q-251 0 -404 150t-153 469zM423 1593v215h119v-215h-119zM819 1593v215h119v-215h-119z" />
<glyph unicode="&#xdd;" horiz-adv-x="1277" d="M14 1454h148l476 -838l478 838h148l-559 -972v-482h-133v483zM517 1577l251 268h150l-296 -268h-105z" />
<glyph unicode="&#xde;" horiz-adv-x="1240" d="M127 0v1454h132v-256h470q214 0 338 -113q123 -113 123 -319t-123 -319q-122 -112 -338 -112h-470v-335h-132zM259 452h457q72 0 130 16q60 16 108 51q49 35 76 98q28 65 28 149t-28 149q-26 60 -76 98q-47 35 -108 52q-58 16 -130 16h-457v-629z" />
<glyph unicode="&#xdf;" horiz-adv-x="1152" d="M117 0v967q0 110 23 200q22 88 63 148q40 59 98 98q57 38 124 56t146 18q195 0 315 -99q121 -100 121 -277q0 -52 -12 -97q-13 -51 -36 -89q-26 -44 -72 -80q-42 -32 -113 -55q143 -41 223 -146t80 -259q0 -181 -112 -289q-113 -108 -319 -108q-38 0 -78 3q-35 3 -60 8 l-22 4v100q57 -15 134 -15q160 0 246 86q85 85 85 221q0 155 -105 248t-272 93h-88v101h45q89 0 146 15q64 17 101 42q38 26 62 62q22 34 32 72q9 36 9 77q0 131 -86 206q-85 75 -224 75q-69 0 -128 -21q-55 -20 -104 -67q-46 -45 -72 -124q-25 -76 -25 -184v-990h-125z" />
<glyph unicode="&#xe0;" horiz-adv-x="1089" d="M81 270q0 67 21 119t54 85q32 32 81 55q43 20 93 34q39 11 98 19q8 1 73 8q15 2 39.5 4t33.5 3q30 3 68 9q25 4 63 15q26 8 52 22t43 33q15 17 26 46q11 30 11 64q0 29 -14 63q-12 30 -44 65q-28 31 -91 53q-57 20 -141 20q-133 0 -210 -54q-76 -54 -91 -152h-124 q5 47 19 87q15 43 48 83q34 42 79 71q49 32 118 49q76 19 161 19q93 0 167 -21q75 -22 119 -55q46 -35 75 -80t41 -92t12 -98v-471q0 -72 8 -146q7 -60 16 -98l7 -29h-125q-20 65 -28 193q-98 -219 -394 -219q-181 0 -272 78q-92 78 -92 218zM205 276q0 -94 65 -146 q67 -53 196 -53q371 0 371 446v77q-24 -25 -64 -46q-37 -19 -98 -33q-80 -18 -100 -21q-8 -1 -49.5 -7.5t-73.5 -11.5q-38 -6 -73 -14q-27 -6 -65 -23q-34 -15 -57 -36q-22 -21 -37 -55q-15 -35 -15 -77zM303 1454h150l250 -268h-104z" />
<glyph unicode="&#xe1;" horiz-adv-x="1089" d="M81 270q0 67 21 119t54 85q32 32 81 55q43 20 93 34q39 11 98 19q8 1 73 8q15 2 39.5 4t33.5 3q30 3 68 9q25 4 63 15q26 8 52 22t43 33q15 17 26 46q11 30 11 64q0 29 -14 63q-12 30 -44 65q-28 31 -91 53q-57 20 -141 20q-133 0 -210 -54q-76 -54 -91 -152h-124 q5 47 19 87q15 43 48 83q34 42 79 71q49 32 118 49q76 19 161 19q93 0 167 -21q75 -22 119 -55q46 -35 75 -80t41 -92t12 -98v-471q0 -72 8 -146q7 -60 16 -98l7 -29h-125q-20 65 -28 193q-98 -219 -394 -219q-181 0 -272 78q-92 78 -92 218zM205 276q0 -94 65 -146 q67 -53 196 -53q371 0 371 446v77q-24 -25 -64 -46q-37 -19 -98 -33q-80 -18 -100 -21q-8 -1 -49.5 -7.5t-73.5 -11.5q-38 -6 -73 -14q-27 -6 -65 -23q-34 -15 -57 -36q-22 -21 -37 -55q-15 -35 -15 -77zM468 1186l251 268h149l-296 -268h-104z" />
<glyph unicode="&#xe2;" horiz-adv-x="1089" d="M81 270q0 67 21 119t54 85q32 32 81 55q43 20 93 34q39 11 98 19q8 1 73 8q15 2 39.5 4t33.5 3q30 3 68 9q25 4 63 15q26 8 52 22t43 33q15 17 26 46q11 30 11 64q0 29 -14 63q-12 30 -44 65q-28 31 -91 53q-57 20 -141 20q-133 0 -210 -54q-76 -54 -91 -152h-124 q5 47 19 87q15 43 48 83q34 42 79 71q49 32 118 49q76 19 161 19q93 0 167 -21q75 -22 119 -55q46 -35 75 -80t41 -92t12 -98v-471q0 -72 8 -146q7 -60 16 -98l7 -29h-125q-20 65 -28 193q-98 -219 -394 -219q-181 0 -272 78q-92 78 -92 218zM205 276q0 -94 65 -146 q67 -53 196 -53q371 0 371 446v77q-24 -25 -64 -46q-37 -19 -98 -33q-80 -18 -100 -21q-8 -1 -49.5 -7.5t-73.5 -11.5q-38 -6 -73 -14q-27 -6 -65 -23q-34 -15 -57 -36q-22 -21 -37 -55q-15 -35 -15 -77zM268 1165l256 289h113l257 -289h-129l-184 223l-184 -223h-129z" />
<glyph unicode="&#xe3;" horiz-adv-x="1089" d="M81 270q0 67 21 119t54 85q32 32 81 55q43 20 93 34q39 11 98 19q8 1 73 8q15 2 39.5 4t33.5 3q30 3 68 9q25 4 63 15q26 8 52 22t43 33q15 17 26 46q11 30 11 64q0 29 -14 63q-12 30 -44 65q-28 31 -91 53q-57 20 -141 20q-133 0 -210 -54q-76 -54 -91 -152h-124 q5 47 19 87q15 43 48 83q34 42 79 71q49 32 118 49q76 19 161 19q93 0 167 -21q75 -22 119 -55q46 -35 75 -80t41 -92t12 -98v-471q0 -72 8 -146q7 -60 16 -98l7 -29h-125q-20 65 -28 193q-98 -219 -394 -219q-181 0 -272 78q-92 78 -92 218zM205 276q0 -94 65 -146 q67 -53 196 -53q371 0 371 446v77q-24 -25 -64 -46q-37 -19 -98 -33q-80 -18 -100 -21q-8 -1 -49.5 -7.5t-73.5 -11.5q-38 -6 -73 -14q-27 -6 -65 -23q-34 -15 -57 -36q-22 -21 -37 -55q-15 -35 -15 -77zM238 1195q1 224 173 224q45 0 83 -16q47 -20 106 -54q57 -33 84 -44 q30 -12 59 -12q46 0 72 31q26 30 27 104h82q-2 -62 -15 -108q-13 -44 -55 -80q-40 -34 -106 -34q-42 0 -78 15q-43 18 -109 55q-53 30 -86 44q-27 11 -55 11q-49 0 -75 -31q-25 -30 -27 -105h-80z" />
<glyph unicode="&#xe4;" horiz-adv-x="1089" d="M81 270q0 67 21 119t54 85q32 32 81 55q43 20 93 34q39 11 98 19q8 1 73 8q15 2 39.5 4t33.5 3q30 3 68 9q25 4 63 15q26 8 52 22t43 33q15 17 26 46q11 30 11 64q0 29 -14 63q-12 30 -44 65q-28 31 -91 53q-57 20 -141 20q-133 0 -210 -54q-76 -54 -91 -152h-124 q5 47 19 87q15 43 48 83q34 42 79 71q49 32 118 49q76 19 161 19q93 0 167 -21q75 -22 119 -55q46 -35 75 -80t41 -92t12 -98v-471q0 -72 8 -146q7 -60 16 -98l7 -29h-125q-20 65 -28 193q-98 -219 -394 -219q-181 0 -272 78q-92 78 -92 218zM205 276q0 -94 65 -146 q67 -53 196 -53q371 0 371 446v77q-24 -25 -64 -46q-37 -19 -98 -33q-80 -18 -100 -21q-8 -1 -49.5 -7.5t-73.5 -11.5q-38 -6 -73 -14q-27 -6 -65 -23q-34 -15 -57 -36q-22 -21 -37 -55q-15 -35 -15 -77zM324 1201v215h118v-215h-118zM720 1201v215h119v-215h-119z" />
<glyph unicode="&#xe5;" horiz-adv-x="1089" d="M81 270q0 67 21 119t54 85q32 32 81 55q43 20 93 34q39 11 98 19q8 1 73 8q15 2 39.5 4t33.5 3q30 3 68 9q25 4 63 15q26 8 52 22t43 33q15 17 26 46q11 30 11 64q0 29 -14 63q-12 30 -44 65q-28 31 -91 53q-57 20 -141 20q-133 0 -210 -54q-76 -54 -91 -152h-124 q5 47 19 87q15 43 48 83q34 42 79 71q49 32 118 49q76 19 161 19q93 0 167 -21q75 -22 119 -55q46 -35 75 -80t41 -92t12 -98v-471q0 -72 8 -146q7 -60 16 -98l7 -29h-125q-20 65 -28 193q-98 -219 -394 -219q-181 0 -272 78q-92 78 -92 218zM205 276q0 -94 65 -146 q67 -53 196 -53q371 0 371 446v77q-24 -25 -64 -46q-37 -19 -98 -33q-80 -18 -100 -21q-8 -1 -49.5 -7.5t-73.5 -11.5q-38 -6 -73 -14q-27 -6 -65 -23q-34 -15 -57 -36q-22 -21 -37 -55q-15 -35 -15 -77zM387 1337q0 75 52 124t142 49q89 0 141 -49t52 -124t-52 -124 t-141 -49q-90 0 -142 49t-52 124zM475 1337q0 -43 29 -74q29 -30 77 -30q47 0 76 30q29 31 29 74q0 44 -29 75q-29 30 -76 30q-49 0 -77 -30q-29 -31 -29 -75z" />
<glyph unicode="&#xe7;" horiz-adv-x="1117" d="M81 531q0 254 130 406q131 153 357 153q180 0 303 -108t163 -292h-129q-38 137 -128 217q-91 80 -209 80q-159 0 -261 -126t-102 -330q0 -202 102 -328t261 -126q120 0 210 81t128 215h128q-38 -182 -158 -287q-123 -108 -291 -112l-80 -110q35 9 79 9q89 0 153 -44 q63 -44 63 -128q0 -87 -70 -130t-183 -43q-73 0 -131 17q-62 18 -84 32q-19 12 -38 27l20 59q12 -11 33 -23q23 -14 75 -30q54 -17 108 -17q75 0 118 29q42 29 42 82q0 52 -38 82q-39 31 -106 31q-35 0 -60 -7t-36 -15l-11 -7l-43 24l118 165q-203 18 -318 168t-115 386z " />
<glyph unicode="&#xe8;" horiz-adv-x="1112" d="M81 529q0 251 126 406t349 155q222 0 349 -153q128 -154 128 -409l-1 -50h-824q14 -184 110 -292q97 -109 244 -109q100 0 176 50q79 52 125 142h139q-59 -142 -169 -218q-112 -77 -271 -77q-226 0 -353 151q-128 152 -128 404zM208 581h697q-12 192 -106 300 q-93 106 -237 106q-150 0 -246 -112q-96 -113 -108 -294zM269 1454h150l251 -268h-105z" />
<glyph unicode="&#xe9;" horiz-adv-x="1112" d="M81 529q0 251 126 406t349 155q222 0 349 -153q128 -154 128 -409l-1 -50h-824q14 -184 110 -292q97 -109 244 -109q100 0 176 50q79 52 125 142h139q-59 -142 -169 -218q-112 -77 -271 -77q-226 0 -353 151q-128 152 -128 404zM208 581h697q-12 192 -106 300 q-93 106 -237 106q-150 0 -246 -112q-96 -113 -108 -294zM444 1186l251 268h150l-296 -268h-105z" />
<glyph unicode="&#xea;" horiz-adv-x="1112" d="M81 529q0 251 126 406t349 155q222 0 349 -153q128 -154 128 -409l-1 -50h-824q14 -184 110 -292q97 -109 244 -109q100 0 176 50q79 52 125 142h139q-59 -142 -169 -218q-112 -77 -271 -77q-226 0 -353 151q-128 152 -128 404zM208 581h697q-12 192 -106 300 q-93 106 -237 106q-150 0 -246 -112q-96 -113 -108 -294zM247 1165l256 289h112l257 -289h-129l-184 223l-183 -223h-129z" />
<glyph unicode="&#xeb;" horiz-adv-x="1112" d="M81 529q0 251 126 406t349 155q222 0 349 -153q128 -154 128 -409l-1 -50h-824q14 -184 110 -292q97 -109 244 -109q100 0 176 50q79 52 125 142h139q-59 -142 -169 -218q-112 -77 -271 -77q-226 0 -353 151q-128 152 -128 404zM208 581h697q-12 192 -106 300 q-93 106 -237 106q-150 0 -246 -112q-96 -113 -108 -294zM302 1201v215h119v-215h-119zM698 1201v215h119v-215h-119z" />
<glyph unicode="&#xec;" horiz-adv-x="402" d="M-93 1454h149l251 -268h-104zM139 0v1063h124v-1063h-124z" />
<glyph unicode="&#xed;" horiz-adv-x="402" d="M95 1186l251 268h150l-296 -268h-105zM139 0v1063h124v-1063h-124z" />
<glyph unicode="&#xee;" horiz-adv-x="402" d="M-112 1165l256 289h113l257 -289h-129l-184 223l-184 -223h-129zM139 0v1063h124v-1063h-124z" />
<glyph unicode="&#xef;" horiz-adv-x="402" d="M-56 1201v215h118v-215h-118zM139 0v1063h124v-1063h-124zM340 1201v215h119v-215h-119z" />
<glyph unicode="&#xf0;" horiz-adv-x="1133" d="M80 536q0 242 122 397q124 157 329 157q255 0 370 -189q-29 81 -72 155q-44 76 -85 130q-36 48 -97 107q-54 53 -93 84q-38 31 -88 64q-40 27 -68 43q-5 3 -20 11t-24 13l97 46q22 -9 48 -24q29 -16 91 -60q55 -39 118 -95q53 -47 122 -136q61 -78 112 -177 q47 -91 79 -221t32 -267q0 -276 -130 -437q-131 -163 -363 -163q-218 0 -350 156q-130 154 -130 406zM204 532q0 -211 101 -333t257 -122q169 0 268 129t99 347q0 59 -11 111q-12 56 -39 115q-28 61 -67 104q-42 47 -106 75q-66 29 -145 29q-156 0 -257 -122 q-100 -121 -100 -333zM304 1231l597 318l60 -62l-597 -319z" />
<glyph unicode="&#xf1;" horiz-adv-x="1136" d="M121 0v1063h124v-195q98 222 387 222q191 0 289 -103q97 -101 97 -323v-664h-124v647q0 181 -73 260q-72 78 -211 78q-179 0 -272 -126t-93 -355v-504h-124zM226 1194q1 224 173 224q46 0 84 -16q47 -20 106 -54q57 -33 84 -44q30 -12 59 -12q46 0 72 30q24 29 26 105h82 q-2 -65 -14 -108q-13 -44 -55 -80q-40 -34 -107 -34q-41 0 -77 15q-43 18 -109 55q-53 30 -86 44q-27 11 -55 11q-50 0 -76 -31q-24 -29 -26 -105h-81z" />
<glyph unicode="&#xf2;" horiz-adv-x="1152" d="M81 531q0 252 133 406q132 153 361 153q220 0 358 -155t138 -404q0 -250 -138 -403q-139 -154 -358 -154q-229 0 -361 152q-133 153 -133 405zM206 531q0 -203 104 -328q105 -126 265 -126q154 0 262 127q108 128 108 327q0 201 -108 328q-108 128 -262 128 q-160 0 -265 -126q-104 -125 -104 -330zM292 1454h149l251 -268h-104z" />
<glyph unicode="&#xf3;" horiz-adv-x="1152" d="M81 531q0 252 133 406q132 153 361 153q220 0 358 -155t138 -404q0 -250 -138 -403q-139 -154 -358 -154q-229 0 -361 152q-133 153 -133 405zM206 531q0 -203 104 -328q105 -126 265 -126q154 0 262 127q108 128 108 327q0 201 -108 328q-108 128 -262 128 q-160 0 -265 -126q-104 -125 -104 -330zM459 1186l251 268h149l-296 -268h-104z" />
<glyph unicode="&#xf4;" horiz-adv-x="1152" d="M81 531q0 252 133 406q132 153 361 153q220 0 358 -155t138 -404q0 -250 -138 -403q-139 -154 -358 -154q-229 0 -361 152q-133 153 -133 405zM206 531q0 -203 104 -328q105 -126 265 -126q154 0 262 127q108 128 108 327q0 201 -108 328q-108 128 -262 128 q-160 0 -265 -126q-104 -125 -104 -330zM263 1165l256 289h113l257 -289h-129l-185 223l-183 -223h-129z" />
<glyph unicode="&#xf5;" horiz-adv-x="1152" d="M81 531q0 252 133 406q132 153 361 153q220 0 358 -155t138 -404q0 -250 -138 -403q-139 -154 -358 -154q-229 0 -361 152q-133 153 -133 405zM206 531q0 -203 104 -328q105 -126 265 -126q154 0 262 127q108 128 108 327q0 201 -108 328q-108 128 -262 128 q-160 0 -265 -126q-104 -125 -104 -330zM232 1195q1 224 174 224q45 0 83 -16q47 -20 106 -54q57 -33 84 -44q30 -12 59 -12q46 0 72 31q26 30 27 104h82q-1 -62 -15 -108q-13 -44 -55 -80q-40 -34 -107 -34q-41 0 -77 15q-43 18 -109 55q-53 30 -86 44q-27 11 -55 11 q-50 0 -76 -31q-24 -29 -26 -105h-81z" />
<glyph unicode="&#xf6;" horiz-adv-x="1152" d="M81 531q0 252 133 406q132 153 361 153q220 0 358 -155t138 -404q0 -250 -138 -403q-139 -154 -358 -154q-229 0 -361 152q-133 153 -133 405zM206 531q0 -203 104 -328q105 -126 265 -126q154 0 262 127q108 128 108 327q0 201 -108 328q-108 128 -262 128 q-160 0 -265 -126q-104 -125 -104 -330zM318 1201v215h119v-215h-119zM715 1201v215h119v-215h-119z" />
<glyph unicode="&#xf7;" horiz-adv-x="1143" d="M115 476v111h914v-111h-914zM498 17v221h148v-221h-148zM498 805v220h148v-220h-148z" />
<glyph unicode="&#xf8;" horiz-adv-x="1152" d="M81 531q0 252 133 406q132 153 361 153q220 0 358 -155t138 -404q0 -250 -138 -403q-139 -154 -358 -154q-229 0 -361 152q-133 153 -133 405zM91 -8l910 1072l53 -46l-911 -1072zM206 531q0 -203 104 -328q105 -126 265 -126q154 0 262 127q108 128 108 327 q0 201 -108 328q-108 128 -262 128q-160 0 -265 -126q-104 -125 -104 -330z" />
<glyph unicode="&#xf9;" horiz-adv-x="1129" d="M119 400v663h124v-646q0 -183 71 -260q72 -78 209 -78q179 0 270 125q92 127 92 356v503h124v-1063h-124v190q-96 -216 -383 -216q-190 0 -287 103q-96 102 -96 323zM282 1454h149l251 -268h-104z" />
<glyph unicode="&#xfa;" horiz-adv-x="1129" d="M119 400v663h124v-646q0 -183 71 -260q72 -78 209 -78q179 0 270 125q92 127 92 356v503h124v-1063h-124v190q-96 -216 -383 -216q-190 0 -287 103q-96 102 -96 323zM445 1186l251 268h150l-296 -268h-105z" />
<glyph unicode="&#xfb;" horiz-adv-x="1129" d="M119 400v663h124v-646q0 -183 71 -260q72 -78 209 -78q179 0 270 125q92 127 92 356v503h124v-1063h-124v190q-96 -216 -383 -216q-190 0 -287 103q-96 102 -96 323zM251 1165l256 289h113l257 -289h-129l-185 223l-183 -223h-129z" />
<glyph unicode="&#xfc;" horiz-adv-x="1129" d="M119 400v663h124v-646q0 -183 71 -260q72 -78 209 -78q179 0 270 125q92 127 92 356v503h124v-1063h-124v190q-96 -216 -383 -216q-190 0 -287 103q-96 102 -96 323zM306 1201v215h119v-215h-119zM702 1201v215h119v-215h-119z" />
<glyph unicode="&#xfd;" horiz-adv-x="1033" d="M14 1063h137l365 -921l366 921h137l-597 -1454h-130l163 380zM403 1186l251 268h150l-296 -268h-105z" />
<glyph unicode="&#xfe;" horiz-adv-x="1173" d="M121 -391v1845h124v-583q119 219 395 219q138 0 242 -74q105 -74 158 -199q54 -126 54 -286q0 -156 -55 -284q-53 -125 -158 -199q-104 -74 -241 -74q-277 0 -395 217v-582h-124zM245 531q0 -211 102 -332q102 -122 259 -122q160 0 262 122q102 121 102 332t-102 334 q-101 122 -262 122q-158 0 -259 -122q-102 -123 -102 -334z" />
<glyph unicode="&#xff;" horiz-adv-x="1033" d="M14 1063h137l365 -921l366 921h137l-597 -1454h-130l163 380zM259 1201v215h119v-215h-119zM655 1201v215h119v-215h-119z" />
<glyph unicode="&#x178;" horiz-adv-x="1277" d="M14 1454h148l476 -838l478 838h148l-559 -972v-482h-133v483zM382 1592v215h119v-215h-119zM778 1592v215h119v-215h-119z" />
<glyph unicode="&#x2c6;" horiz-adv-x="826" d="M100 1165l256 289h113l257 -289h-129l-184 223l-184 -223h-129z" />
<glyph unicode="&#x2dc;" horiz-adv-x="778" d="M46 1195q1 224 173 224q46 0 84 -16q47 -20 106 -54q57 -33 84 -44q30 -12 59 -12q46 0 72 31q24 29 26 104h82q-2 -62 -15 -108q-13 -45 -54 -80q-40 -34 -107 -34q-41 0 -77 15q-43 18 -109 55q-53 30 -86 44q-27 11 -56 11q-49 0 -75 -31q-24 -29 -26 -105h-81z" />
<glyph unicode="&#x2000;" horiz-adv-x="951" />
<glyph unicode="&#x2001;" horiz-adv-x="1902" />
<glyph unicode="&#x2002;" horiz-adv-x="951" />
<glyph unicode="&#x2003;" horiz-adv-x="1902" />
<glyph unicode="&#x2004;" horiz-adv-x="634" />
<glyph unicode="&#x2005;" horiz-adv-x="475" />
<glyph unicode="&#x2006;" horiz-adv-x="317" />
<glyph unicode="&#x2007;" horiz-adv-x="317" />
<glyph unicode="&#x2008;" horiz-adv-x="237" />
<glyph unicode="&#x2009;" horiz-adv-x="380" />
<glyph unicode="&#x200a;" horiz-adv-x="105" />
<glyph unicode="&#x2010;" horiz-adv-x="766" d="M115 476v111h537v-111h-537z" />
<glyph unicode="&#x2011;" horiz-adv-x="766" d="M115 476v111h537v-111h-537z" />
<glyph unicode="&#x2012;" horiz-adv-x="766" d="M115 476v111h537v-111h-537z" />
<glyph unicode="&#x2013;" horiz-adv-x="1118" d="M115 476v111h889v-111h-889z" />
<glyph unicode="&#x2014;" horiz-adv-x="1541" d="M115 476v111h1311v-111h-1311z" />
<glyph unicode="&#x2018;" horiz-adv-x="377" d="M115 1011v191q0 66 20 133l34 119h90l-63 -223h67v-220h-148z" />
<glyph unicode="&#x2019;" horiz-adv-x="377" d="M115 1234v220h148v-191q0 -67 -20 -134l-34 -118h-90l63 223h-67z" />
<glyph unicode="&#x201a;" horiz-adv-x="377" d="M115 0v220h148v-191q0 -66 -20 -133l-34 -119h-90l63 223h-67z" />
<glyph unicode="&#x201c;" horiz-adv-x="719" d="M115 1011v191q0 66 20 133l34 119h90l-63 -223h67v-220h-148zM457 1011v191q0 66 20 133l34 119h90l-63 -223h67v-220h-148z" />
<glyph unicode="&#x201d;" horiz-adv-x="719" d="M115 1234v220h148v-191q0 -67 -20 -134l-34 -118h-90l63 223h-67zM457 1234v220h148v-191q0 -67 -20 -134l-34 -118h-90l63 223h-67z" />
<glyph unicode="&#x201e;" horiz-adv-x="719" d="M115 0v220h148v-191q0 -66 -20 -133l-34 -119h-90l63 223h-67zM457 0v220h148v-191q0 -66 -20 -133l-34 -119h-90l63 223h-67z" />
<glyph unicode="&#x2022;" horiz-adv-x="763" d="M135 727q0 108 71 177t176 69q106 0 176 -69q71 -69 71 -177t-71 -177q-70 -69 -176 -69q-105 0 -176 69t-71 177z" />
<glyph unicode="&#x2026;" horiz-adv-x="1121" d="M115 0v220h148v-220h-148zM486 0v220h149v-220h-149zM858 0v220h149v-220h-149z" />
<glyph unicode="&#x202f;" horiz-adv-x="380" />
<glyph unicode="&#x2039;" horiz-adv-x="685" d="M102 483v115l467 460v-163l-367 -354l367 -355v-162z" />
<glyph unicode="&#x203a;" horiz-adv-x="685" d="M116 24v162l367 355l-367 354v163l467 -460v-115z" />
<glyph unicode="&#x205f;" horiz-adv-x="475" />
<glyph unicode="&#x20ac;" horiz-adv-x="1334" d="M26 524l16 111h138q-3 45 -3 92q0 45 3 92h-154l16 111h151q42 253 180 404q139 153 355 153q217 0 354 -152q138 -153 178 -403h-134q-35 207 -137 324q-103 118 -261 118q-160 0 -264 -119t-139 -325h469l-17 -111h-465q-3 -45 -3 -92t3 -92h469l-16 -111h-440 q35 -207 139 -325q105 -119 264 -119q158 0 261 118q102 117 137 324h134q-40 -250 -178 -403q-137 -152 -354 -152t-355 153t-180 404h-167z" />
<glyph unicode="&#x2122;" horiz-adv-x="1547" d="M98 1378v76h533v-76h-223v-586h-86v586h-224zM755 792v662h105l230 -566l229 566h105v-662h-86v517l-209 -517h-79l-209 517v-517h-86z" />
<glyph unicode="&#x25fc;" horiz-adv-x="1064" d="M0 0v1065h1065v-1065h-1065z" />
</font>
</defs>
</svg>
