<?xml version="1.0" standalone="no"?>
<!DOCTYPE svg PUBLIC "-//W3C//DTD SVG 1.1//EN" "http://www.w3.org/Graphics/SVG/1.1/DTD/svg11.dtd" >
<svg xmlns="http://www.w3.org/2000/svg" xmlns:xlink="http://www.w3.org/1999/xlink" version="1.1">
<metadata></metadata>
<defs>
<font id="acronym-thinuploaded_file" horiz-adv-x="1551" >
<font-face units-per-em="2048" ascent="1593" descent="-455" />
<missing-glyph horiz-adv-x="401" />
<glyph unicode="AE" horiz-adv-x="2033" d="M6 0l1071 1454h838v-38h-786v-670h692v-38h-692v-669h793v-39h-837v484h-672l-356 -484h-51zM440 522h645v879z" />
<glyph unicode="ae" horiz-adv-x="1864" d="M95 269q0 257 321 297q36 5 76 8q45 3 79 6q32 3 76 9q29 4 73 15q27 7 62 25q33 17 52 38q19 20 31 54q13 36 13 75q0 41 -17 84q-16 42 -53 83q-36 41 -106 66q-72 26 -165 26q-155 0 -249 -69q-95 -70 -113 -185h-41q6 52 32 103q25 48 72 92q45 42 122 68 q78 26 177 26q86 0 160 -22q68 -20 110 -53t67 -75q27 -46 35 -80q9 -38 9 -75v-10q47 149 152 232q106 83 258 83q200 0 322 -154t122 -406v-26h-852q8 -232 118 -363q111 -132 291 -132q119 0 214 63q96 64 152 178h46q-60 -131 -165 -203q-106 -73 -247 -73 q-176 0 -290 109q-112 108 -144 299q-11 -81 -43 -155q-30 -72 -82 -129t-137 -91q-84 -33 -194 -33q-171 0 -258 82q-86 81 -86 213zM137 271q0 -117 78 -189q79 -73 228 -73q215 0 324 141q111 143 111 411v120q-14 -29 -46 -55q-29 -23 -61 -37q-31 -13 -83 -24 q-39 -8 -85 -14q-16 -2 -95 -10q-50 -5 -86 -9q-53 -6 -98 -21q-43 -14 -90 -44t-71 -78q-26 -52 -26 -118zM920 539h810q-1 238 -116 378q-112 138 -285 138q-183 0 -296 -139q-111 -137 -113 -377z" />
<glyph unicode="OE" horiz-adv-x="2347" d="M109 727q0 339 185 549q186 211 481 211q225 0 391 -129q167 -130 233 -352v448h829v-38h-785v-670h691v-38h-691v-669h792v-39h-836v447q-67 -221 -233 -351q-165 -129 -391 -129q-295 0 -481 211q-185 210 -185 549zM153 727q0 -323 174 -523q174 -199 448 -199 q275 0 449 199q175 201 175 523t-175 523q-174 199 -449 199q-274 0 -448 -199q-174 -200 -174 -523z" />
<glyph unicode="oe" horiz-adv-x="1971" d="M95 531q0 252 126 405q127 154 340 154q169 0 287 -103t158 -280q37 178 148 280q112 103 281 103q200 0 322 -154q121 -152 121 -406v-26h-852q8 -232 119 -363q113 -132 292 -132q119 0 214 63q94 63 151 178h45q-61 -132 -164 -203q-106 -73 -246 -73q-172 0 -283 102 q-112 103 -149 279q-41 -178 -157 -279q-117 -102 -287 -102q-214 0 -340 153t-126 404zM137 531q0 -239 119 -381q118 -141 305 -141q185 0 305 141t120 381q0 241 -120 382q-121 142 -305 142q-187 0 -305 -141q-119 -142 -119 -383zM1026 539h810q-1 239 -115 378 q-113 138 -284 138q-184 0 -297 -139q-113 -138 -114 -377z" />
<glyph unicode="&#xfb01;" horiz-adv-x="1076" d="M62 1025v38h256v123q0 143 59 210q58 66 179 66q30 0 55 -3q26 -3 38 -6l13 -3v-39q-45 13 -106 13q-96 0 -145 -52q-51 -54 -51 -186v-123h302v-38h-302v-1025h-42v1025h-256zM876 1266v188h44v-188h-44zM877 0v1063h42v-1063h-42z" />
<glyph unicode="&#xfb02;" horiz-adv-x="1076" d="M62 1025v38h256v123q0 143 59 210q58 66 179 66q30 0 55 -3q26 -3 38 -6l13 -3v-39q-45 13 -106 13q-96 0 -145 -52q-51 -54 -51 -186v-123h302v-38h-302v-1025h-42v1025h-256zM877 0v1454h42v-1454h-42z" />
<glyph unicode="&#xfb03;" horiz-adv-x="1795" d="M62 1025v38h256v123q0 143 59 210q58 66 179 66q30 0 55 -3q26 -3 38 -6l13 -3v-39q-45 13 -106 13q-96 0 -145 -52q-51 -54 -51 -186v-123h302v-38h-302v-1025h-42v1025h-256zM786 1025v38h251v123q0 143 59 210q58 66 179 66q29 0 55 -3t38 -6l12 -3v-39 q-45 13 -105 13q-97 0 -146 -52q-50 -53 -50 -186v-123h301v-38h-301v-1025h-42v1025h-251zM1594 1266v188h44v-188h-44zM1595 0v1063h42v-1063h-42z" />
<glyph unicode="&#xfb04;" horiz-adv-x="1795" d="M62 1025v38h256v123q0 143 59 210q58 66 179 66q30 0 55 -3q26 -3 38 -6l13 -3v-39q-45 13 -106 13q-96 0 -145 -52q-51 -54 -51 -186v-123h302v-38h-302v-1025h-42v1025h-256zM786 1025v38h251v123q0 143 59 210q58 66 179 66q29 0 55 -3t38 -6l12 -3v-39 q-45 13 -105 13q-97 0 -146 -52q-50 -53 -50 -186v-123h301v-38h-301v-1025h-42v1025h-251zM1595 0v1454h42v-1454h-42z" />
<glyph horiz-adv-x="0" />
<glyph unicode="&#xd;" horiz-adv-x="681" />
<glyph unicode=" "  horiz-adv-x="401" />
<glyph unicode="&#x09;" horiz-adv-x="401" />
<glyph unicode="&#xa0;" horiz-adv-x="401" />
<glyph unicode="!" horiz-adv-x="312" d="M132 0v194h48v-194h-48zM135 853v601h42v-601l-6 -527h-30z" />
<glyph unicode="&#x22;" horiz-adv-x="555" d="M121 1024v430h42l-11 -430h-31zM393 1024v430h42l-11 -430h-31z" />
<glyph unicode="#" horiz-adv-x="1256" d="M70 458l5 37h264l58 463h-264l5 37h264l59 459h39l-59 -459h444l58 459h38l-58 -459h264l-5 -37h-264l-59 -463h264l-5 -37h-264l-57 -458h-39l58 458h-443l-58 -458h-39l58 458h-264zM378 495h442l60 463h-444z" />
<glyph unicode="$" horiz-adv-x="1193" d="M87 368h43q0 -115 65 -200q64 -84 169 -124q104 -40 235 -40q87 0 172 22q81 21 148 64q66 43 107 118q40 74 40 171q0 146 -105 221q-79 56 -270 106q-12 3 -43.5 10.5t-51.5 12.5q-210 53 -289 88q-151 68 -189 189q-13 47 -13 93q0 117 64 205q65 89 175 136 q111 47 247 47q214 0 355 -111q140 -110 140 -281h-42q0 157 -129 256t-324 99q-191 0 -318 -95q-126 -95 -126 -256q0 -33 8 -65q9 -38 18 -55q14 -29 33 -46q29 -27 43 -38q21 -17 57 -33q14 -7 38 -16.5t27 -10.5q29 -12 78 -27q47 -14 86 -24q56 -14 97 -24 q195 -48 271 -81q148 -65 188 -184q17 -50 17 -116q0 -190 -140 -301q-139 -111 -368 -111q-98 0 -193 25q-90 24 -164 73q-72 48 -114 126t-42 177zM582 -204v1862h31v-1862h-31z" />
<glyph unicode="%" horiz-adv-x="1703" d="M55 1040q0 187 86 309q85 121 233 121q147 0 232 -121q86 -122 86 -309t-86 -308t-232 -121q-147 0 -233 121t-86 308zM94 1040q0 -171 75 -282q76 -112 205 -112q128 0 204 112q75 111 75 282q0 173 -75 284q-76 112 -204 112q-129 0 -205 -112q-75 -111 -75 -284z M367 -33l925 1520h45l-924 -1520h-46zM1012 413q0 186 86 308t232 122q147 0 233 -122t86 -308q0 -188 -86 -309q-85 -120 -233 -120q-146 0 -232 120q-86 121 -86 309zM1051 413q0 -172 75 -283q76 -112 204 -112t204 112t76 283t-76 283t-204 112t-204 -112 q-75 -111 -75 -283z" />
<glyph unicode="&#x26;" horiz-adv-x="1290" d="M79 356q0 93 28 164q29 73 82 123t109 85q50 31 135 68q-103 104 -153 194q-51 91 -51 180q0 143 99 230t263 87q166 0 261 -89t95 -213q0 -39 -7 -68q-8 -31 -18 -57q-10 -24 -32 -51q-12 -14 -39 -44q-17 -19 -49 -39q-18 -12 -53 -33q-19 -12 -60 -30q-54 -24 -61 -27 q-35 -15 -65 -27q-15 -6 -63 -26l522 -532q84 113 132 259q47 145 55 303h41q-22 -362 -198 -592l217 -221h-57l-186 190q-190 -223 -489 -223q-203 0 -331 108q-127 108 -127 281zM123 356q0 -159 115 -255q116 -96 302 -96q275 0 457 215l-535 547q-59 -26 -106 -51 q-39 -21 -91 -61q-48 -37 -76 -77q-32 -45 -48 -97q-18 -57 -18 -125zM271 1169q0 -82 48 -166q47 -82 153 -191q18 6 67 27q35 15 67 27q11 4 60 26q35 15 58 29q27 16 50 30q30 19 46 36q26 28 35 39q19 21 28 45q11 27 16 52q6 29 6 61q0 109 -82 187q-83 78 -231 78 q-150 0 -235 -76q-86 -77 -86 -204z" />
<glyph unicode="'" horiz-adv-x="283" d="M121 1024v430h42l-11 -430h-31z" />
<glyph unicode="(" horiz-adv-x="479" d="M113 575q0 169 21 326q21 155 51 261q27 93 61 186q29 80 51 118l21 37h40q-1 -1 -9 -15t-13 -24q-10 -18 -49 -115q-33 -81 -62 -189q-24 -89 -48 -259q-22 -155 -22 -326q0 -167 21 -324t51 -262q29 -101 60 -185q29 -80 51 -118l20 -38h-40q-1 1 -9 15t-13 24 q-11 21 -49 114q-36 89 -63 189q-26 97 -49 259q-22 155 -22 326z" />
<glyph unicode=")" horiz-adv-x="479" d="M121 -352q0 1 8.5 15t13.5 24q10 18 49 115q33 81 62 189q26 97 49 259q22 155 22 325q0 167 -21 325q-21 157 -51 262q-29 101 -60 185q-28 74 -52 118l-20 38h40q0 -1 8.5 -15t13.5 -24q11 -21 49 -114q36 -88 63 -189q28 -105 50 -259q22 -155 22 -327 q0 -167 -21 -325q-20 -148 -52 -261q-27 -93 -61 -186q-29 -80 -51 -118l-21 -37h-40z" />
<glyph unicode="*" horiz-adv-x="1005" d="M78 1137l10 35l397 -130l-1 412h37l-1 -412l398 130l10 -35l-399 -128l250 -341l-29 -21l-247 342l-247 -342l-30 21l249 342z" />
<glyph unicode="+" horiz-adv-x="1127" d="M129 513v37h415v424h39v-424h415v-37h-415v-424h-39v424h-415z" />
<glyph unicode="," horiz-adv-x="306" d="M129 0v194h48v-179q0 -26 -3 -75l-11 -169h-33l16 229h-17z" />
<glyph unicode="-" horiz-adv-x="766" d="M129 513v37h509v-37h-509z" />
<glyph unicode="." horiz-adv-x="306" d="M129 0v194h48v-194h-48z" />
<glyph unicode="/" horiz-adv-x="907" d="M94 0l674 1454h45l-674 -1454h-45z" />
<glyph unicode="0" horiz-adv-x="1292" d="M115 727q0 213 60 383q60 171 182 273q124 104 289 104t289 -104q123 -103 183 -273t60 -383t-60 -383t-183 -273q-124 -104 -289 -104t-289 104q-122 102 -182 273q-60 170 -60 383zM159 727q0 -205 55 -366q56 -163 167 -259q112 -97 265 -97t265 97q111 96 167 259 t56 366t-56 366q-56 164 -167 260q-112 97 -265 97t-265 -97q-111 -96 -167 -260q-55 -161 -55 -366z" />
<glyph unicode="1" horiz-adv-x="705" d="M91 980v38q83 1 157 33q69 29 114 76q44 46 74 104q29 57 43 114q12 51 14 109h37v-1454h-44v1266q-44 -133 -145 -209q-103 -77 -250 -77z" />
<glyph unicode="2" horiz-adv-x="1093" d="M98 0v13q0 59 13 108q15 57 32 92q19 39 54 82q35 42 66 72q27 26 81 65q33 24 87 60q22 15 94 59t93 58q50 33 86 58q46 33 80 63q30 27 65 68q35 40 54 78q15 30 31 85q13 46 13 100q0 172 -110 279q-112 109 -285 109q-186 0 -298 -122t-112 -316v-27h-44v27 q0 217 128 347q128 129 327 129q198 0 318 -121q120 -122 120 -303q0 -87 -28 -159q-29 -75 -76 -129q-51 -59 -111 -106q-57 -44 -132 -92q-64 -40 -139 -86q-59 -36 -134 -90q-60 -43 -113 -98q-49 -51 -81 -119q-32 -69 -35 -145h862v-39h-906z" />
<glyph unicode="3" horiz-adv-x="1163" d="M91 414h44q0 -78 18 -141q18 -62 47 -105q26 -39 69 -72q39 -30 81 -48q45 -19 85 -28q35 -8 80 -12q33 -3 67 -3q218 0 338 108q119 107 119 273q0 90 -36 162q-36 71 -96 115q-58 42 -128 65q-67 22 -139 22h-123v35h160q143 0 226 89t83 225q0 82 -35 152t-92 111 t-129 64t-147 23q-83 0 -158 -27q-78 -28 -137 -77q-62 -51 -99 -136q-37 -84 -37 -192h-42q0 115 38 204t106 148q67 58 151 88t178 30q87 0 166 -27q81 -27 142 -74q62 -47 100 -122q37 -73 37 -162q0 -123 -67 -217q-68 -96 -194 -121q135 -30 226 -128q90 -98 90 -251 q0 -188 -133 -303t-368 -115q-101 0 -190 25q-84 24 -155 76q-67 50 -107 140q-39 89 -39 206z" />
<glyph unicode="4" horiz-adv-x="1278" d="M85 374v39l808 1041h44v-1042h263v-38h-263v-374h-43v374h-809zM133 412h761v980z" />
<glyph unicode="5" horiz-adv-x="1201" d="M96 422h44q0 -103 40 -184q40 -82 107 -132q65 -49 148 -75t170 -26q110 0 201 40q89 39 145 107q55 66 85 153q30 85 30 180q0 207 -125 344q-126 138 -334 138q-59 0 -118 -14q-55 -13 -97 -34q-44 -22 -78 -46q-36 -25 -59 -50t-40 -46q-19 -24 -25 -35l-8 -13h-45 l127 725h762v-38h-728l-110 -628q26 38 63 73q32 31 87 68q52 35 123 55q72 20 151 20q152 0 267 -71t173 -187t58 -262t-60 -263q-59 -115 -176 -185q-116 -69 -270 -69q-97 0 -192 31q-92 30 -162 87t-112 143q-42 87 -42 194z" />
<glyph unicode="6" horiz-adv-x="1229" d="M113 652q0 246 64 432t191 295q126 108 297 108q85 0 157 -27q74 -28 117 -65q45 -39 80 -92q37 -56 52 -96q17 -43 27 -87h-45q-10 41 -27 83q-16 39 -50 87q-33 47 -72 80t-103 56t-136 23q-121 0 -222 -64q-97 -62 -161 -173q-63 -109 -96 -253q-32 -138 -32 -306 q0 -64 4 -101q20 200 151 327q133 128 330 128q230 0 363 -142q135 -144 135 -369q0 -125 -41 -228q-41 -102 -110 -167q-68 -63 -159 -99q-90 -35 -189 -35q-36 0 -75 6q-40 6 -92 24q-48 16 -101 48q-46 27 -96 82q-49 53 -83 122q-33 65 -56 173q-22 101 -22 230z M179 469q0 -44 3 -71q23 -95 72 -174q45 -72 97 -115q46 -37 109 -65q60 -26 100 -32q47 -7 77 -7q198 0 327 134q129 133 129 357q0 212 -124 342q-125 131 -334 131q-138 0 -243 -69t-159 -182q-54 -112 -54 -249z" />
<glyph unicode="7" horiz-adv-x="1166" d="M100 1416v38h958v-36q-19 -19 -30 -31q-27 -30 -75 -90q-66 -84 -109 -149q-60 -91 -122 -204q-65 -117 -125 -262q-57 -136 -107 -314q-49 -172 -77 -368h-47q25 180 68 339q45 168 96 296q46 116 115 251q66 130 115 206q62 98 108 158q61 80 85 108q32 37 53 58h-906z " />
<glyph unicode="8" horiz-adv-x="1243" d="M84 393q0 161 103 270t285 142q-142 27 -228 108q-85 81 -85 210q0 159 127 261q129 103 336 103q206 0 335 -103q127 -102 127 -261q0 -129 -85 -210q-86 -81 -228 -108q182 -33 285 -142t103 -270q0 -188 -143 -307t-394 -119q-252 0 -395 119t-143 307zM128 394 q0 -176 133 -282q134 -107 361 -107q226 0 360 107q133 106 133 282q0 178 -135 285q-136 107 -358 107q-223 0 -359 -107q-135 -107 -135 -285zM201 1122q0 -137 111 -218t310 -81q198 0 309 81t111 218q0 146 -117 236q-118 91 -303 91q-186 0 -304 -91 q-117 -90 -117 -236z" />
<glyph unicode="9" horiz-adv-x="1229" d="M93 958q0 125 41 228q41 102 110 167q70 66 158 100q87 34 190 34q36 0 75 -6q40 -6 92 -24t101 -47q44 -26 96 -83q49 -53 83 -122q33 -65 56 -173q22 -101 22 -230q0 -246 -64 -432t-191 -295q-126 -108 -297 -108q-85 0 -157 27q-74 28 -117 65q-45 39 -80 92 q-37 56 -52 96q-17 43 -27 87h45q10 -41 27 -83t49 -87t73 -80q39 -33 103 -56t136 -23q121 0 222 64q97 62 161 173q61 106 95 253q33 143 33 306q0 64 -4 101q-20 -200 -151 -327q-133 -128 -330 -128q-231 0 -364 142q-134 143 -134 369zM137 958q0 -212 124 -342 q125 -131 334 -131q138 0 243 69t159 182q54 112 54 249q0 44 -3 71q-23 95 -72 174q-45 72 -97 115q-48 40 -109 66q-56 25 -100 31q-47 7 -77 7q-198 0 -327 -134q-129 -133 -129 -357z" />
<glyph unicode=":" horiz-adv-x="306" d="M129 0v194h48v-194h-48zM129 869v194h48v-194h-48z" />
<glyph unicode=";" horiz-adv-x="306" d="M129 0v194h48v-179q0 -26 -3 -75l-11 -169h-33l16 229h-17zM129 869v194h48v-194h-48z" />
<glyph unicode="&#x3c;" horiz-adv-x="1105" d="M113 510v43l869 465v-43l-828 -444l828 -442v-42z" />
<glyph unicode="=" horiz-adv-x="1127" d="M129 294v37h869v-37h-869zM129 732v37h869v-37h-869z" />
<glyph unicode="&#x3e;" horiz-adv-x="1105" d="M124 47v42l828 442l-828 444v43l869 -465v-43z" />
<glyph unicode="?" horiz-adv-x="1002" d="M60 1027v7q4 213 128 333q123 120 310 120q183 0 309 -115q125 -114 125 -310q0 -80 -23 -149q-21 -64 -60 -114q-37 -48 -80 -88q-30 -28 -90 -80q-44 -39 -80 -80q-40 -46 -60 -99q-23 -60 -23 -126h-40q2 74 24 135q21 56 60 104q33 40 80 82q85 76 88 79q43 40 79 85 q37 46 59 110q23 66 23 142q0 124 -56 212q-57 90 -144 132q-89 43 -192 43q-175 0 -282 -114q-109 -116 -113 -304v-5h-42zM472 0v194h48v-194h-48z" />
<glyph unicode="@" horiz-adv-x="1631" d="M98 546q0 118 31 236q31 117 91 214q64 103 148 174q90 76 208 117q122 42 263 42q163 0 295 -55q134 -56 222 -154q91 -102 138 -232q48 -133 48 -290q0 -219 -88 -346t-226 -127q-184 0 -188 227q-72 -227 -269 -227q-133 0 -210 104t-77 293q0 215 96 354 q94 136 237 136q99 0 164 -71q64 -70 85 -208l20 252h40l-43 -531q-5 -73 -5 -98q0 -198 152 -198q120 0 197 122t77 318q0 200 -80 356q-81 158 -233 249t-352 91q-162 0 -296 -61q-136 -62 -222 -164q-89 -106 -136 -238q-48 -135 -48 -285q0 -154 52 -287 q51 -130 143 -222q90 -90 221 -142q129 -51 282 -51q57 0 124 10q62 9 100 22q56 19 70 25q37 17 45 22l14 9l15 -29q-6 -6 -15 -11q-8 -5 -46 -22q-35 -16 -74 -28q-34 -11 -103 -22q-60 -10 -130 -10q-210 0 -376 88q-165 88 -263 258t-98 390zM526 523q0 -168 68 -266 q67 -97 180 -97q126 0 201 120t75 319q0 182 -64 280q-63 96 -169 96q-126 0 -209 -131q-82 -130 -82 -321z" />
<glyph unicode="A" horiz-adv-x="1269" d="M23 0l589 1454h45l590 -1454h-46l-184 457h-765l-183 -457h-46zM268 496h733l-366 910z" />
<glyph unicode="B" horiz-adv-x="1263" d="M141 0v1454h564q204 0 313 -95q108 -95 108 -262q0 -132 -68 -221q-68 -90 -200 -121q156 -27 240 -124q82 -95 82 -245q0 -178 -117 -283q-115 -103 -336 -103h-586zM185 38h535q201 0 309 91q107 90 107 257q0 166 -105 257q-104 91 -311 91h-535v-696zM185 771h516 q188 0 285 85q96 84 96 240q0 155 -97 237q-98 83 -284 83h-516v-645z" />
<glyph unicode="C" horiz-adv-x="1496" d="M109 727q0 226 83 396q86 176 233 269q151 95 340 95q235 0 406 -148t217 -394h-45q-43 230 -203 367t-375 137q-175 0 -315 -89q-139 -88 -219 -254q-78 -162 -78 -379t78 -379q80 -166 219 -254q140 -89 315 -89q217 0 375 136q159 137 203 368h45q-46 -246 -217 -394 t-406 -148q-189 0 -340 95q-147 93 -233 269q-83 170 -83 396z" />
<glyph unicode="D" horiz-adv-x="1357" d="M141 0v1454h454q299 0 477 -196q177 -195 177 -531t-177 -531q-178 -196 -477 -196h-454zM185 38h412q275 0 442 188q166 187 166 501t-166 501q-167 188 -442 188h-412v-1378z" />
<glyph unicode="E" horiz-adv-x="1188" d="M141 0v1454h929v-38h-885v-670h791v-38h-791v-669h892v-39h-936z" />
<glyph unicode="F" horiz-adv-x="1131" d="M141 0v1454h893v-38h-849v-673h764v-37h-764v-706h-44z" />
<glyph unicode="G" horiz-adv-x="1520" d="M109 726q0 340 180 550q181 211 469 211q221 0 386 -117q164 -116 226 -319h-44q-60 185 -212 291q-154 107 -356 107q-269 0 -437 -199q-168 -200 -168 -523t168 -522q168 -200 441 -200q136 0 250 50t185 136t112 199q40 112 42 241v20h-539v38h579v-689h-40v411 q-58 -205 -211 -325q-152 -119 -380 -119q-191 0 -340 95q-147 94 -230 267q-81 169 -81 397z" />
<glyph unicode="H" horiz-adv-x="1338" d="M141 0v1454h44v-708h969v708h43v-1454h-43v708h-969v-708h-44z" />
<glyph unicode="I" horiz-adv-x="394" d="M175 0v1454h44v-1454h-44z" />
<glyph unicode="J" horiz-adv-x="1226" d="M94 516v42h44v-41q0 -257 129 -388q123 -124 324 -124q203 0 324 124q131 133 131 388v937h44v-939q0 -271 -141 -413q-132 -135 -357 -135q-228 0 -358 135q-140 141 -140 414z" />
<glyph unicode="K" horiz-adv-x="1215" d="M141 0v1454h44v-1042l930 1042h59l-511 -570l546 -884h-51l-526 850l-447 -498v-352h-44z" />
<glyph unicode="L" horiz-adv-x="1111" d="M141 0v1454h44v-1415h824v-39h-868z" />
<glyph unicode="M" horiz-adv-x="1645" d="M141 0v1454h49l631 -1403l633 1403h50v-1454h-43v1371l-617 -1371h-43l-617 1371v-1371h-43z" />
<glyph unicode="N" horiz-adv-x="1320" d="M141 0v1454h40l955 -1378v1378h44v-1454h-40l-955 1377v-1377h-44z" />
<glyph unicode="O" d="M109 727q0 339 185 549q186 211 481 211q296 0 482 -211q186 -212 186 -549t-186 -549q-186 -211 -482 -211q-295 0 -481 211q-185 210 -185 549zM153 727q0 -323 174 -523q174 -199 448 -199q275 0 449 199q175 201 175 523t-175 523q-174 199 -449 199 q-274 0 -448 -199q-174 -200 -174 -523z" />
<glyph unicode="P" horiz-adv-x="1204" d="M141 0v1454h567q204 0 318 -104q115 -105 115 -302q0 -198 -115 -303q-114 -104 -318 -104h-523v-641h-44zM185 679h518q82 0 153 20q67 19 124 62q55 42 86 116t31 171t-31 171q-30 73 -86 115q-57 43 -124 62q-71 20 -153 20h-518v-737z" />
<glyph unicode="Q" d="M109 727q0 339 185 549q186 211 481 211q296 0 482 -211q186 -212 186 -549q0 -199 -67 -357q-68 -160 -189 -260l201 -244l-29 -26l-202 247q-165 -120 -382 -120q-295 0 -481 211q-185 210 -185 549zM153 727q0 -323 174 -523q174 -199 448 -199q204 0 357 114 l-298 364l26 25l301 -366q111 93 175 246q63 150 63 339q0 322 -175 523q-174 199 -449 199q-274 0 -448 -199q-174 -200 -174 -523z" />
<glyph unicode="R" horiz-adv-x="1276" d="M141 0v1454h591q206 0 319 -106q114 -106 114 -309q0 -164 -75 -264t-216 -135l359 -640h-49l-351 632q-41 -7 -101 -7h-547v-625h-44zM185 663h544q84 0 153 21t124 64q56 44 85 117q30 75 30 174t-30 174t-85 118t-124 64t-153 21h-544v-753z" />
<glyph unicode="S" horiz-adv-x="1241" d="M100 368h46q0 -87 38 -158q37 -70 104 -114q65 -43 151 -67q85 -24 184 -24q88 0 174 22q83 21 151 64t109 117t41 171q0 144 -107 221q-81 56 -275 106q-50 13 -96 24q-212 53 -289 85q-158 66 -197 183q-15 45 -15 101q0 175 141 281q142 107 354 107q219 0 363 -111 q143 -110 143 -281h-44q0 156 -132 255t-330 99q-125 0 -228 -41t-163 -122t-60 -187q0 -37 7 -65q7 -27 19 -55q9 -21 34 -46q20 -20 43 -38q19 -15 58 -32q51 -23 66 -28q33 -12 80 -26q51 -15 87 -24q56 -14 98 -24q196 -48 272 -80q154 -64 196 -184q19 -55 19 -118 q0 -190 -143 -301t-375 -111q-101 0 -198 25q-90 23 -166 73q-74 48 -117 126q-43 77 -43 177z" />
<glyph unicode="T" horiz-adv-x="1307" d="M95 1416v38h1117v-38h-536v-1416h-44v1416h-537z" />
<glyph unicode="U" horiz-adv-x="1345" d="M137 553v901h44v-902q0 -278 138 -414q68 -66 164 -100q95 -33 190 -33t190 33t163 100q138 136 138 414v902h44v-901q0 -299 -153 -447q-143 -139 -382 -139t-382 139q-154 149 -154 447z" />
<glyph unicode="V" horiz-adv-x="1233" d="M37 1454h46l534 -1403l535 1403h45l-556 -1454h-47z" />
<glyph unicode="W" horiz-adv-x="1873" d="M69 1454h45l372 -1397l427 1397h48l427 -1397l372 1397h45l-392 -1454h-50l-427 1395l-425 -1395h-50z" />
<glyph unicode="X" horiz-adv-x="1176" d="M31 0l531 729l-524 725h51l499 -691l498 691h53l-526 -725l533 -729h-54l-504 695l-504 -695h-53z" />
<glyph unicode="Y" horiz-adv-x="1246" d="M29 1454h49l545 -901l545 901h50l-573 -945v-509h-44v509z" />
<glyph unicode="Z" horiz-adv-x="1208" d="M109 0v36l928 1380h-920v38h974v-35l-930 -1380h939v-39h-991z" />
<glyph unicode="[" horiz-adv-x="629" d="M129 -352v1855h413v-35h-373v-1785h373v-35h-413z" />
<glyph unicode="\" horiz-adv-x="907" d="M94 1454h45l674 -1454h-45z" />
<glyph unicode="]" horiz-adv-x="629" d="M88 -317h373v1785h-373v35h413v-1855h-413v35z" />
<glyph unicode="^" horiz-adv-x="967" d="M60 686l403 768h41l403 -768h-47l-377 720l-375 -720h-48z" />
<glyph unicode="_" horiz-adv-x="1216" d="M129 0v36h958v-36h-958z" />
<glyph unicode="`" horiz-adv-x="576" d="M109 1451h60l283 -262h-48z" />
<glyph unicode="a" horiz-adv-x="1068" d="M95 269q0 257 321 297q36 5 76 8q45 3 79 6q32 3 76 9q29 4 73 15q27 7 62 25q33 17 52 38q19 20 31 54q13 36 13 75q0 41 -17 84q-16 42 -53 83q-36 41 -106 66q-72 26 -165 26q-153 0 -248 -69q-96 -70 -114 -185h-41q6 52 32 103q25 48 72 92q45 42 122 68 q78 26 177 26q86 0 160 -22q69 -21 111 -53q42 -33 67 -75q27 -46 35 -80q10 -42 10 -75v-517q0 -79 7 -142q7 -65 15 -96l7 -30h-42q-29 91 -29 268v39q-17 -66 -52 -129q-33 -58 -84 -105q-53 -48 -129 -73q-80 -26 -176 -26q-169 0 -256 82q-86 81 -86 213zM137 271 q0 -117 78 -189q79 -73 228 -73q215 0 324 141q111 143 111 411v120q-14 -29 -46 -55q-29 -23 -61 -37q-31 -13 -83 -24q-39 -8 -85 -14q-16 -2 -95 -10q-50 -5 -86 -9q-53 -6 -98 -21q-43 -14 -90 -44t-71 -78q-26 -52 -26 -118z" />
<glyph unicode="b" horiz-adv-x="1142" d="M135 0v1454h42v-698q45 156 154 244q111 90 269 90q131 0 236 -73q102 -71 158 -198q55 -125 55 -288q0 -243 -124 -400t-325 -157q-162 0 -269 88q-109 90 -154 244v-306h-42zM177 531q0 -239 115 -381q114 -141 300 -141q179 0 297 142t118 380q0 239 -118 381 q-119 143 -297 143q-184 0 -300 -142q-115 -140 -115 -382z" />
<glyph unicode="c" horiz-adv-x="1088" d="M95 531q0 253 123 406t337 153q161 0 277 -102q115 -102 159 -278h-43q-42 161 -149 253t-244 92q-187 0 -302 -141q-116 -142 -116 -383q0 -239 116 -381q115 -141 302 -141q137 0 244 92t149 252h43q-43 -175 -160 -277t-276 -102q-214 0 -337 152t-123 405z" />
<glyph unicode="d" horiz-adv-x="1142" d="M94 531q0 163 55 288q56 127 158 198q105 73 236 73q158 0 269 -90q109 -88 154 -244v698h42v-1454h-42v306q-45 -154 -154 -244q-107 -88 -269 -88q-201 0 -325 157t-124 400zM136 531q0 -238 118 -380t297 -142q186 0 300 141q115 142 115 381q0 240 -116 382t-299 142 q-178 0 -297 -143q-118 -142 -118 -381z" />
<glyph unicode="e" horiz-adv-x="1082" d="M95 531q0 253 120 406t331 153q200 0 322 -154q121 -152 121 -406v-26h-852q7 -230 119 -363q111 -132 291 -132q119 0 214 63q94 63 151 178h46q-61 -132 -164 -203q-106 -73 -247 -73q-212 0 -332 152t-120 405zM137 539h810q-1 239 -115 378q-112 138 -285 138 q-183 0 -296 -139q-113 -138 -114 -377z" />
<glyph unicode="f" horiz-adv-x="718" d="M62 1025v38h256v123q0 143 59 210q58 66 179 66q30 0 55 -3q26 -3 38 -6l13 -3v-39q-45 13 -106 13q-96 0 -145 -52q-51 -54 -51 -186v-123h302v-38h-302v-1025h-42v1025h-256z" />
<glyph unicode="g" horiz-adv-x="1143" d="M95 531q0 246 123 402q124 157 326 157q160 0 269 -89q108 -89 155 -245v307h42v-905q0 -56 -4 -130q-3 -52 -14 -119q-10 -63 -30 -108q-19 -44 -54 -88q-33 -41 -82 -70q-44 -26 -115 -43q-70 -17 -155 -17q-178 0 -272 63q-96 64 -139 177h42q91 -205 369 -205 q104 0 176 25q73 25 119 68q45 42 72 113q26 67 35 148q10 87 10 186v148q-46 -156 -154 -244q-107 -88 -270 -88q-202 0 -326 157q-123 156 -123 400zM137 531q0 -239 117 -380q118 -142 299 -142q187 0 301 141t114 381t-115 382t-300 142q-182 0 -299 -143 q-117 -142 -117 -381z" />
<glyph unicode="h" horiz-adv-x="1106" d="M135 0v1454h42v-718q12 54 26 89q18 46 50 93q35 52 79 87q45 36 117 60q75 25 160 25q365 0 365 -426v-664h-42v659q0 396 -328 396q-214 0 -320 -150q-107 -151 -107 -415v-490h-42z" />
<glyph unicode="i" horiz-adv-x="357" d="M157 1266v188h44v-188h-44zM158 0v1063h42v-1063h-42z" />
<glyph unicode="j" horiz-adv-x="357" d="M-45 -357h11q192 0 192 243v1177h42v-1179q0 -275 -228 -275h-17v34zM157 1266v188h44v-188h-44z" />
<glyph unicode="k" horiz-adv-x="1015" d="M135 0v1454h42v-1106l733 715h59l-420 -405l452 -658h-49l-434 629l-341 -329v-300h-42z" />
<glyph unicode="l" horiz-adv-x="357" d="M158 0v1454h42v-1454h-42z" />
<glyph unicode="m" horiz-adv-x="1712" d="M135 0v1063h42v-303q6 31 22 78q13 39 43 86q32 52 69 83q40 34 106 58q69 25 145 25q282 0 311 -329q8 40 21 77q14 38 43 85t70 83q38 34 107 59t149 25q154 0 235 -100t81 -298v-692h-42v686q0 192 -75 280q-75 89 -205 89q-189 0 -284 -139t-95 -388v-528h-42v686 q0 190 -76 280q-75 89 -204 89q-184 0 -282 -142q-97 -140 -97 -395v-518h-42z" />
<glyph unicode="n" horiz-adv-x="1103" d="M135 0v1063h42v-329q12 54 26 89q18 46 50 93q36 53 78 88q45 37 116 61q75 25 160 25q183 0 274 -106q90 -105 90 -320v-664h-42v659q0 396 -327 396q-208 0 -317 -151q-108 -150 -108 -414v-490h-42z" />
<glyph unicode="o" horiz-adv-x="1122" d="M95 531q0 252 126 405q127 154 340 154t340 -154q126 -153 126 -405q0 -251 -126 -404t-340 -153t-340 153t-126 404zM137 531q0 -239 119 -381q118 -141 305 -141t305 141q119 142 119 381q0 241 -119 383q-118 141 -305 141t-305 -141q-119 -142 -119 -383z" />
<glyph unicode="p" horiz-adv-x="1142" d="M135 -391v1454h42v-306q45 156 154 244q110 89 269 89q131 0 236 -73q102 -71 158 -198q55 -125 55 -288q0 -243 -124 -400t-325 -157q-162 0 -269 88q-109 90 -154 244v-697h-42zM177 531q0 -239 115 -381q114 -141 300 -141q179 0 297 142t118 380q0 239 -118 381 q-119 143 -297 143q-184 0 -300 -142q-115 -140 -115 -382z" />
<glyph unicode="q" horiz-adv-x="1142" d="M94 531q0 163 55 288q56 127 158 198q105 73 236 73q159 0 269 -89q109 -88 154 -244v306h42v-1454h-42v697q-45 -154 -154 -244q-107 -88 -269 -88q-201 0 -325 157t-124 400zM136 531q0 -238 118 -380t297 -142q186 0 300 141q115 142 115 381q0 240 -116 382t-299 142 q-178 0 -297 -143q-118 -142 -118 -381z" />
<glyph unicode="r" horiz-adv-x="764" d="M135 0v1063h42v-324q9 43 24 84q16 43 44 88q29 47 70 83q38 34 102 58q60 23 139 23q43 0 74 -4q40 -5 49 -8l14 -4v-38q-53 18 -136 18q-63 0 -114 -16q-56 -18 -103 -56q-48 -39 -85 -104q-34 -60 -56 -164q-22 -105 -22 -229v-470h-42z" />
<glyph unicode="s" horiz-adv-x="1004" d="M100 269h42q0 -124 94 -192t263 -68q181 0 272 73t91 196q0 34 -10 71q-8 30 -24 54t-43 41q-34 22 -53 31q-22 11 -68 22q-50 12 -76 17q-37 7 -86 15q-44 7 -69 12q-9 2 -30.5 6.5t-33.5 6.5q-33 6 -62 16q-33 11 -53 19q-29 12 -47 25t-38 32q-19 18 -30 41 q-12 25 -17 50q-6 28 -6 61q0 130 96 210q99 82 283 82q177 0 285 -79q107 -78 107 -209h-41q0 109 -92 181t-259 72q-166 0 -252 -71q-85 -70 -85 -184q0 -37 5 -58q7 -28 20 -47q14 -19 29 -36q13 -15 42 -29q14 -7 49 -21q25 -10 60 -17q20 -4 65 -14q17 -4 74 -13 q54 -9 71 -12q36 -6 66 -13q33 -7 64 -17q22 -7 55 -21q36 -15 50 -26q12 -9 39 -34q21 -20 32 -43q10 -22 18 -53q7 -28 7 -66q0 -142 -105 -224q-104 -82 -301 -82q-188 0 -293 78t-105 217z" />
<glyph unicode="t" horiz-adv-x="744" d="M54 1025v38h257v353l41 17v-370h302v-38h-302v-752q0 -135 54 -192q51 -54 152 -54q26 0 50 3q22 3 35 6l11 3v-34q-45 -13 -107 -13q-120 0 -178 68t-58 213v752h-257z" />
<glyph unicode="u" horiz-adv-x="1095" d="M133 399v664h42v-660q0 -209 84 -301t239 -92q214 0 318 149q103 148 103 414v490h42v-1063h-42v317q-10 -43 -27 -87q-19 -47 -48 -90q-35 -51 -78 -84q-44 -34 -115 -58t-158 -24q-183 0 -271 105q-89 106 -89 320z" />
<glyph unicode="v" horiz-adv-x="1006" d="M29 1063h46l428 -1017l429 1017h46l-452 -1063h-46z" />
<glyph unicode="w" horiz-adv-x="1595" d="M52 1063h45l338 -1010l339 1010h47l340 -1010l336 1010h46l-358 -1063h-47l-340 1011l-338 -1011h-48z" />
<glyph unicode="x" horiz-adv-x="1027" d="M47 0l440 535l-437 528h52l411 -499l413 499h51l-437 -528l440 -535h-53l-414 505l-412 -505h-54z" />
<glyph unicode="y" horiz-adv-x="1006" d="M29 1063h46l428 -1015l428 1015h47l-620 -1454h-45l168 388z" />
<glyph unicode="z" horiz-adv-x="984" d="M94 0v35l725 994h-719v34h767v-34l-726 -994h749v-35h-796z" />
<glyph unicode="{" horiz-adv-x="794" d="M93 558v35q114 0 173 59t59 209v404q0 121 51 179q51 59 160 59h158v-35h-156q-174 0 -174 -200v-408q0 -248 -168 -285q83 -20 125 -87q43 -69 43 -197v-408q0 -200 174 -200h156v-35h-158q-109 0 -160 59t-51 179v404q0 150 -59 209t-173 59z" />
<glyph unicode="|" horiz-adv-x="322" d="M141 -282v1972h40v-1972h-40z" />
<glyph unicode="}" horiz-adv-x="794" d="M100 -317h157q174 0 174 200v408q0 128 43 197q42 67 125 87q-168 37 -168 285v408q0 200 -174 200h-157v35h159q108 0 159 -59q52 -60 52 -179v-404q0 -150 59 -209t172 -59v-35q-113 0 -172 -59t-59 -209v-404q0 -119 -52 -179q-51 -59 -159 -59h-159v35z" />
<glyph unicode="~" horiz-adv-x="1187" d="M111 394q0 139 60 204t160 65q59 0 114 -25q59 -27 155 -89q75 -48 104 -65q32 -18 72 -33t80 -15q182 0 182 233h39q0 -140 -61 -204q-62 -65 -159 -65q-61 0 -114 24q-49 22 -155 90q-82 53 -104 65q-34 19 -73 33q-41 15 -80 15q-181 0 -183 -233h-37z" />
<glyph unicode="&#xa1;" horiz-adv-x="312" d="M132 869v194h48v-194h-48zM135 210l6 527h30l6 -527v-601h-42v601z" />
<glyph unicode="&#xa2;" horiz-adv-x="1088" d="M95 531q0 253 123 406t337 153q161 0 277 -102q115 -102 159 -278h-43q-42 161 -149 253t-244 92q-187 0 -302 -141q-116 -142 -116 -383q0 -239 116 -381q115 -141 302 -141q137 0 244 92t149 252h43q-43 -175 -160 -277t-276 -102q-214 0 -337 152t-123 405zM531 -197 v1457h32v-1457h-32z" />
<glyph unicode="&#xa3;" horiz-adv-x="1205" d="M123 0v35q10 4 30 16q21 12 64 48q37 31 77 77q36 42 63 108t27 136q0 87 -39 192h-222v37h208q-9 24 -44 96q-35 74 -48 104q-18 42 -32 99q-14 56 -14 116q0 183 127 303q128 120 317 120q88 0 173 -31q81 -30 147 -86q63 -54 101 -143q38 -88 38 -191v-9h-44v9 q0 96 -35 178q-34 81 -92 131q-59 51 -132 78t-156 27q-173 0 -287 -111q-113 -110 -113 -275q0 -57 14 -112t32 -99q6 -15 47 -105q35 -77 44 -99h410v-37h-396q38 -108 38 -192q0 -70 -25 -137q-25 -66 -64 -113q-44 -52 -75 -78q-39 -33 -73 -53h907v-39h-973z" />
<glyph unicode="&#xa4;" horiz-adv-x="1098" d="M82 285l219 218q-82 92 -82 224q0 133 82 224l-219 219l24 25l220 -219q92 83 224 83q129 0 223 -83l219 219l25 -25l-219 -220q83 -92 83 -223q0 -130 -83 -224l219 -218l-25 -26l-219 219q-94 -83 -223 -83q-130 0 -224 83l-220 -219zM254 727q0 -128 85 -214 q86 -87 211 -87q126 0 210 87q85 88 85 214q0 127 -85 215q-83 86 -210 86q-126 0 -211 -86t-85 -215z" />
<glyph unicode="&#xa5;" horiz-adv-x="1192" d="M29 1454h46l521 -901l521 901h47l-396 -685h264v-37h-286l-128 -221v-37h414v-37h-414v-437h-44v437h-413v37h413v36l-129 222h-284v37h263z" />
<glyph unicode="&#xa6;" horiz-adv-x="322" d="M141 -282v862h40v-862h-40zM141 956v734h40v-734h-40z" />
<glyph unicode="&#xa7;" horiz-adv-x="1131" d="M100 603q0 200 180 297q-161 81 -161 241q0 158 125 252q127 95 316 95q195 0 324 -99t129 -251h-42q0 136 -117 225q-116 88 -294 88q-172 0 -285 -85q-114 -86 -114 -226q0 -42 11 -72q13 -35 28 -57q17 -24 50 -47q32 -22 64 -37q36 -17 82 -32q51 -17 93 -27 q12 -3 48.5 -12t60.5 -15q177 -42 253 -76q146 -65 173 -196q7 -31 7 -70q0 -201 -179 -297q161 -81 161 -241q0 -157 -126 -252q-127 -95 -316 -95q-195 0 -324 99q-128 98 -128 253h42q0 -138 117 -227q116 -88 293 -88q173 0 286 85q114 86 114 226q0 47 -13 82 q-14 38 -43 65q-30 29 -62 49q-31 20 -90 40q-45 15 -104 32q-62 18 -125 32q-183 44 -251 75q-144 65 -174 189q-9 41 -9 77zM140 602q0 -42 11 -78t27 -61q18 -27 48 -49q31 -22 61 -38q19 -10 79 -30q47 -16 89 -27q29 -8 103 -25q178 -42 259 -76q174 88 174 283 q0 42 -11 78q-10 35 -27 60q-18 27 -48 49q-34 24 -60 38q-19 10 -79 30q-32 11 -89 26q-49 13 -104 26q-174 39 -259 76q-174 -88 -174 -282z" />
<glyph unicode="&#xa8;" horiz-adv-x="697" d="M125 1212v193h40v-193h-40zM531 1212v193h41v-193h-41z" />
<glyph unicode="&#xa9;" horiz-adv-x="1649" d="M109 727q0 166 55 307t153 239q97 97 228 152q133 56 280 56t280 -56q134 -56 228 -152q97 -99 152 -239q56 -144 56 -307t-56 -307q-55 -140 -152 -239q-94 -96 -228 -152q-133 -56 -280 -56t-280 56q-131 55 -228 152q-98 98 -153 239t-55 307zM147 727q0 -156 53 -292 q52 -135 144 -228q92 -94 216 -146q126 -53 265 -53q140 0 266 53q124 52 216 146q90 91 143 228q53 136 53 292t-53 292q-53 137 -143 228q-92 94 -216 146q-126 53 -266 53q-139 0 -265 -53q-124 -52 -216 -146q-92 -93 -144 -228q-53 -136 -53 -292zM463 728 q0 195 103 316t268 121q134 0 229 -84q96 -85 121 -227h-44q-24 125 -108 199q-83 73 -198 73q-145 0 -236 -109t-91 -289t91 -289t236 -109q116 0 199 73t107 200h44q-25 -140 -121 -227q-94 -85 -229 -85q-165 0 -268 121t-103 316z" />
<glyph unicode="&#xaa;" horiz-adv-x="794" d="M82 899q0 185 234 213q36 5 70 7q45 3 76 6q28 3 68 12q39 9 60 23q22 15 39 42q16 26 16 65q0 29 -12 56q-12 28 -37 54q-26 28 -75 44q-51 17 -114 17q-110 0 -179 -46q-68 -45 -80 -122h-39q12 84 84 143q74 60 211 60q78 0 139 -22q58 -21 87 -56q27 -33 41 -68 q13 -33 13 -66v-364q0 -47 5 -99q4 -39 10 -68l6 -20h-39q-21 66 -21 187v12q-30 -101 -106 -159q-77 -59 -205 -59t-190 58t-62 150zM121 901q0 -77 55 -126t165 -49q149 0 227 96q77 95 77 279v80q-15 -26 -42 -46q-26 -18 -67 -28q-44 -10 -71 -14q-38 -5 -78 -8 q-19 -1 -41 -3l-23 -3q-37 -4 -70 -15q-32 -10 -64 -30t-50 -54t-18 -79z" />
<glyph unicode="&#xab;" horiz-adv-x="1108" d="M114 522v38l443 498v-58l-411 -459l411 -460v-57zM540 522v38l443 498v-58l-411 -459l411 -460v-57z" />
<glyph unicode="&#xac;" horiz-adv-x="1127" d="M129 656v37h869v-555h-39v518h-830z" />
<glyph unicode="&#xad;" horiz-adv-x="766" d="M129 513v37h509v-37h-509z" />
<glyph unicode="&#xae;" horiz-adv-x="1130" d="M110 993q0 211 131 345q132 135 324 135t324 -135t132 -345t-131 -344t-325 -134q-193 0 -324 134t-131 344zM146 993q0 -196 121 -320q122 -125 298 -125t298 125q121 124 121 320t-121 321q-121 126 -298 126t-298 -126q-121 -125 -121 -321zM396 735v521h210 q74 0 114 -37q41 -38 41 -107q0 -64 -32 -104t-88 -49l135 -224h-44l-133 222h-162v-222h-41zM437 992h168q51 0 83 30t32 90q0 56 -31 83t-84 27h-168v-230z" />
<glyph unicode="&#xaf;" horiz-adv-x="770" d="M125 1295v34h520v-34h-520z" />
<glyph unicode="&#xb0;" horiz-adv-x="843" d="M98 1147q0 138 92 232t232 94q139 0 231 -94t92 -232q0 -140 -92 -232q-93 -93 -231 -93t-231 93t-93 232zM137 1147q0 -125 81 -207q81 -83 204 -83t204 83q81 82 81 207q0 122 -82 207q-81 84 -203 84t-203 -84q-82 -85 -82 -207z" />
<glyph unicode="&#xb1;" horiz-adv-x="1127" d="M129 0v37h869v-37h-869zM129 620v36h415v424h39v-424h415v-36h-415v-410h-39v410h-415z" />
<glyph unicode="&#xb2;" horiz-adv-x="683" d="M85 882v9q0 36 8 71q8 34 27 62q17 24 38 51q17 21 51 46q49 36 56 40q9 6 31.5 20t33.5 21q18 11 41.5 26t27.5 18q16 10 59 44q33 26 53 53q17 23 31 58q13 33 13 74q0 90 -59 147q-57 56 -152 56q-101 0 -160 -65q-60 -66 -60 -168v-15h-39v15q0 122 73 195t187 73 q113 0 181 -67q69 -68 69 -171q0 -60 -25 -109q-26 -50 -65 -85q-37 -33 -89 -67q-32 -21 -98 -61q-47 -29 -91 -63q-42 -33 -70 -77q-27 -43 -32 -97h477v-34h-517z" />
<glyph unicode="&#xb3;" horiz-adv-x="722" d="M81 1115h39q0 -47 12 -84q13 -40 34 -61q25 -25 46 -38q25 -15 55 -23q16 -4 51 -9q21 -3 44 -3q118 0 182 57t64 145q0 93 -65 143t-150 50h-69v35h89q77 0 121 48q44 49 44 120q0 85 -65 135q-64 49 -152 49q-94 0 -163 -60t-69 -170h-38q0 124 79 194t191 70 q104 0 180 -59q75 -58 75 -157q0 -69 -38 -120q-39 -52 -108 -67q75 -18 126 -72t51 -140q0 -106 -76 -170q-77 -65 -210 -65q-124 0 -203 62q-77 61 -77 190z" />
<glyph unicode="&#xb4;" horiz-adv-x="576" d="M125 1189l283 262h60l-296 -262h-47z" />
<glyph unicode="&#xb5;" horiz-adv-x="1097" d="M135 -391v1454h42v-660q0 -209 84 -301t239 -92q214 0 318 149q103 148 103 414v490h42v-1063h-42v317q-10 -43 -27 -87q-18 -47 -48 -90q-36 -53 -77 -84q-43 -33 -116 -58q-71 -24 -158 -24q-246 0 -318 198v-563h-42z" />
<glyph unicode="&#xb6;" horiz-adv-x="1262" d="M65 1049q0 197 114 301q115 104 319 104h623v-1776h-42v1742h-315v-1742h-41v964h-225q-204 0 -319 104q-114 104 -114 303z" />
<glyph unicode="&#xb7;" horiz-adv-x="306" d="M129 435v194h48v-194h-48z" />
<glyph unicode="&#xb8;" horiz-adv-x="684" d="M113 -395l8 33q88 -77 222 -77q90 0 140 34q52 35 52 99q0 63 -49 100q-48 36 -128 36q-34 0 -68 -8q-27 -6 -44 -17l-14 -9l-18 10l128 194h37l-104 -156q40 16 94 16q87 0 145 -45q57 -44 57 -124q0 -83 -63 -123q-62 -40 -162 -40q-142 0 -233 77z" />
<glyph unicode="&#xb9;" horiz-adv-x="468" d="M81 1419v35q61 2 105 25q46 25 70 62q26 41 37 76q11 37 13 78h34v-813h-39v688q-28 -71 -83 -110q-58 -41 -137 -41z" />
<glyph unicode="&#xba;" horiz-adv-x="864" d="M94 1081q0 176 94 283q95 109 244 109t244 -109q94 -107 94 -283q0 -175 -94 -282q-94 -108 -244 -108t-244 108q-94 107 -94 282zM133 1081q0 -165 86 -260t213 -95t213 95t86 260q0 164 -86 261q-85 96 -213 96t-213 -96q-86 -97 -86 -261z" />
<glyph unicode="&#xbb;" horiz-adv-x="1110" d="M126 24v57l411 460l-411 459v58l443 -498v-38zM553 24v57l411 460l-411 459v58l443 -498v-38z" />
<glyph unicode="&#xbc;" horiz-adv-x="1570" d="M81 1179v34q59 1 105 26q47 25 70 61q26 40 37 77t13 77h34v-813h-39v688q-28 -71 -83 -110q-56 -40 -137 -40zM270 -33l932 1520h42l-932 -1520h-42zM863 203v35l447 575h42v-576h145v-34h-145v-203h-39v203h-450zM906 237h407v525z" />
<glyph unicode="&#xbd;" horiz-adv-x="1579" d="M81 1179v34q59 1 105 26q47 25 70 61q26 40 37 77t13 77h34v-813h-39v688q-28 -71 -83 -110q-56 -40 -137 -40zM271 -33l932 1520h42l-932 -1520h-42zM999 0v9q0 31 9 71q8 34 27 62q22 33 37 51q19 24 51 47q43 31 57 40q7 5 28.5 18.5t35.5 22.5q18 11 43.5 27t26.5 17 q16 10 59 44q32 25 52 52q17 22 31 59q13 33 13 73q0 90 -58 147q-59 57 -153 57q-99 0 -159 -66q-61 -67 -61 -168v-15h-39v15q0 123 73 196q72 72 188 72q112 0 180 -67q69 -68 69 -171q0 -60 -25 -109q-26 -50 -65 -85q-40 -35 -88 -67q-32 -21 -98 -61q-47 -29 -91 -63 t-70 -76q-29 -45 -33 -97h478v-35h-518z" />
<glyph unicode="&#xbe;" horiz-adv-x="1720" d="M81 874h39q0 -46 12 -84t34 -60q27 -27 46 -39q22 -14 55 -22q25 -6 51 -10q21 -3 44 -3q116 0 182 58q64 57 64 144q0 93 -65 143q-66 51 -150 51h-69v34h89q77 0 121 48q44 49 44 120q0 86 -65 136q-64 49 -152 49q-94 0 -163 -60t-69 -171h-38q0 124 79 194 q80 71 191 71q104 0 180 -59q75 -59 75 -158q0 -69 -38 -120q-39 -52 -108 -67q75 -18 126 -72t51 -140q0 -106 -76 -170t-210 -64q-126 0 -203 61t-77 190zM420 -33l932 1520h42l-932 -1520h-42zM1013 203v35l446 575h42v-576h146v-34h-146v-203h-39v203h-449zM1056 237 h406v525z" />
<glyph unicode="&#xbf;" horiz-adv-x="1002" d="M71 1q0 80 23 149q22 66 59 114q35 45 81 88q43 40 89 80q52 45 81 79q37 43 59 100q23 60 23 126h40q-2 -73 -24 -135q-21 -59 -59 -104q-30 -36 -81 -82q-58 -52 -87 -79q-47 -44 -80 -85q-37 -46 -59 -110q-22 -63 -22 -142q0 -124 56 -212q58 -91 144 -133 q87 -42 192 -42q176 0 282 114q108 115 112 304v5h42v-7q-5 -213 -127 -333q-123 -120 -310 -120q-184 0 -310 115q-124 114 -124 310zM482 869v194h48v-194h-48z" />
<glyph unicode="&#xc0;" horiz-adv-x="1269" d="M23 0l589 1454h45l590 -1454h-46l-184 457h-765l-183 -457h-46zM268 496h733l-366 910zM404 1842h61l283 -262h-48z" />
<glyph unicode="&#xc1;" horiz-adv-x="1269" d="M23 0l589 1454h45l590 -1454h-46l-184 457h-765l-183 -457h-46zM268 496h733l-366 910zM521 1580l283 262h60l-296 -262h-47z" />
<glyph unicode="&#xc2;" horiz-adv-x="1269" d="M23 0l589 1454h45l590 -1454h-46l-184 457h-765l-183 -457h-46zM268 496h733l-366 910zM351 1560l262 282h44l263 -282h-53l-232 254l-232 -254h-52z" />
<glyph unicode="&#xc3;" horiz-adv-x="1269" d="M23 0l589 1454h45l590 -1454h-46l-184 457h-765l-183 -457h-46zM268 496h733l-366 910zM309 1597q0 88 35 144t114 56q41 0 78 -17q38 -17 107 -63q58 -39 100 -60q30 -15 65 -15q119 0 120 166h33q-2 -89 -37 -144q-36 -55 -113 -55q-39 0 -76 17q-31 14 -108 64 q-70 46 -100 60q-29 14 -66 14q-119 0 -119 -167h-33z" />
<glyph unicode="&#xc4;" horiz-adv-x="1269" d="M23 0l589 1454h45l590 -1454h-46l-184 457h-765l-183 -457h-46zM268 496h733l-366 910zM412 1604v192h40v-192h-40zM818 1604v192h41v-192h-41z" />
<glyph unicode="&#xc5;" horiz-adv-x="1269" d="M23 0l589 1454h45l590 -1454h-46l-184 457h-765l-183 -457h-46zM268 496h733l-366 910zM469 1723q0 67 45 114q45 46 121 46t121 -46q45 -47 45 -114t-45 -113t-121 -46t-121 46t-45 113zM502 1723q0 -56 36 -95t97 -39t97 39t36 95t-36 95t-97 39t-97 -39t-36 -95z" />
<glyph unicode="&#xc7;" horiz-adv-x="1496" d="M109 727q0 226 83 396q86 176 233 269q151 95 340 95q235 0 406 -148t217 -394h-45q-43 230 -203 367t-375 137q-175 0 -315 -89q-139 -88 -219 -254q-78 -162 -78 -379t78 -379q80 -166 219 -254q140 -89 315 -89q217 0 375 136q159 137 203 368h45q-46 -246 -217 -394 t-406 -148h-10l-82 -123q40 16 93 16q86 0 145 -45q58 -45 58 -124q0 -83 -63 -123q-62 -40 -163 -40q-142 0 -233 77l8 33q88 -77 222 -77q91 0 141 34q51 35 51 99q0 63 -49 100q-48 36 -127 36q-35 0 -69 -8q-27 -6 -44 -17l-13 -9l-19 10l108 163q-272 18 -441 226 t-169 532z" />
<glyph unicode="&#xc8;" horiz-adv-x="1188" d="M141 0v1454h929v-38h-885v-670h791v-38h-791v-669h892v-39h-936zM356 1842h61l282 -262h-47z" />
<glyph unicode="&#xc9;" horiz-adv-x="1188" d="M141 0v1454h929v-38h-885v-670h791v-38h-791v-669h892v-39h-936zM514 1580l283 262h60l-296 -262h-47z" />
<glyph unicode="&#xca;" horiz-adv-x="1188" d="M141 0v1454h929v-38h-885v-670h791v-38h-791v-669h892v-39h-936zM325 1560l262 282h44l262 -282h-52l-233 254l-231 -254h-52z" />
<glyph unicode="&#xcb;" horiz-adv-x="1188" d="M141 0v1454h929v-38h-885v-670h791v-38h-791v-669h892v-39h-936zM386 1604v192h40v-192h-40zM793 1604v192h41v-192h-41z" />
<glyph unicode="&#xcc;" horiz-adv-x="394" d="M-54 1842h60l283 -262h-47zM175 0v1454h44v-1454h-44z" />
<glyph unicode="&#xcd;" horiz-adv-x="394" d="M105 1580l283 262h61l-296 -262h-48zM175 0v1454h44v-1454h-44z" />
<glyph unicode="&#xce;" horiz-adv-x="394" d="M-87 1560l262 282h44l262 -282h-52l-232 254l-232 -254h-52zM175 0v1454h44v-1454h-44z" />
<glyph unicode="&#xcf;" horiz-adv-x="394" d="M-26 1604v192h40v-192h-40zM175 0v1454h44v-1454h-44zM381 1604v192h41v-192h-41z" />
<glyph unicode="&#xd0;" horiz-adv-x="1418" d="M-5 708v38h692v-38h-692zM202 0v1454h453q300 0 478 -196q177 -195 177 -531t-177 -531q-178 -196 -478 -196h-453zM246 38h411q276 0 443 188q166 187 166 501t-166 501q-167 188 -443 188h-411v-1378z" />
<glyph unicode="&#xd1;" horiz-adv-x="1320" d="M141 0v1454h40l955 -1378v1378h44v-1454h-40l-955 1377v-1377h-44zM335 1597q0 88 35 144t113 56q42 0 79 -17q38 -17 107 -63q57 -39 100 -60q30 -15 65 -15q118 0 119 166h33q-2 -91 -36 -144q-36 -55 -113 -55q-40 0 -77 17q-31 14 -108 64q-70 46 -100 60 q-29 14 -66 14q-118 0 -118 -167h-33z" />
<glyph unicode="&#xd2;" d="M109 727q0 339 185 549q186 211 481 211q296 0 482 -211q186 -212 186 -549t-186 -549q-186 -211 -482 -211q-295 0 -481 211q-185 210 -185 549zM153 727q0 -323 174 -523q174 -199 448 -199q275 0 449 199q175 201 175 523t-175 523q-174 199 -449 199 q-274 0 -448 -199q-174 -200 -174 -523zM523 1842h61l282 -262h-47z" />
<glyph unicode="&#xd3;" d="M109 727q0 339 185 549q186 211 481 211q296 0 482 -211q186 -212 186 -549t-186 -549q-186 -211 -482 -211q-295 0 -481 211q-185 210 -185 549zM153 727q0 -323 174 -523q174 -199 448 -199q275 0 449 199q175 201 175 523t-175 523q-174 199 -449 199 q-274 0 -448 -199q-174 -200 -174 -523zM684 1580l283 262h60l-296 -262h-47z" />
<glyph unicode="&#xd4;" d="M109 727q0 339 185 549q186 211 481 211q296 0 482 -211q186 -212 186 -549t-186 -549q-186 -211 -482 -211q-295 0 -481 211q-185 210 -185 549zM153 727q0 -323 174 -523q174 -199 448 -199q275 0 449 199q175 201 175 523t-175 523q-174 199 -449 199 q-274 0 -448 -199q-174 -200 -174 -523zM492 1560l262 282h44l262 -282h-52l-233 254l-231 -254h-52z" />
<glyph unicode="&#xd5;" d="M109 727q0 339 185 549q186 211 481 211q296 0 482 -211q186 -212 186 -549t-186 -549q-186 -211 -482 -211q-295 0 -481 211q-185 210 -185 549zM153 727q0 -323 174 -523q174 -199 448 -199q275 0 449 199q175 201 175 523t-175 523q-174 199 -449 199 q-274 0 -448 -199q-174 -200 -174 -523zM450 1597q0 89 34 144q35 56 114 56q41 0 78 -17q38 -17 107 -63q57 -39 100 -60q30 -15 65 -15q119 0 120 166h33q-2 -89 -37 -144q-36 -55 -113 -55q-39 0 -76 17q-31 14 -108 64q-70 46 -100 60q-29 14 -66 14q-119 0 -119 -167 h-32z" />
<glyph unicode="&#xd6;" d="M109 727q0 339 185 549q186 211 481 211q296 0 482 -211q186 -212 186 -549t-186 -549q-186 -211 -482 -211q-295 0 -481 211q-185 210 -185 549zM153 727q0 -323 174 -523q174 -199 448 -199q275 0 449 199q175 201 175 523t-175 523q-174 199 -449 199 q-274 0 -448 -199q-174 -200 -174 -523zM552 1604v192h40v-192h-40zM958 1604v192h41v-192h-41z" />
<glyph unicode="&#xd7;" horiz-adv-x="990" d="M129 190l341 341l-341 341l26 26l340 -342l341 342l25 -26l-341 -341l341 -341l-24 -25l-342 341l-341 -341z" />
<glyph unicode="&#xd8;" d="M109 727q0 339 185 549q186 211 481 211q296 0 482 -211q186 -212 186 -549t-186 -549q-186 -211 -482 -211q-295 0 -481 211q-185 210 -185 549zM145 -27l1240 1530l24 -22l-1240 -1530zM153 727q0 -323 174 -523q174 -199 448 -199q275 0 449 199q175 201 175 523 t-175 523q-174 199 -449 199q-274 0 -448 -199q-174 -200 -174 -523z" />
<glyph unicode="&#xd9;" horiz-adv-x="1345" d="M137 553v901h44v-902q0 -278 138 -414q68 -66 164 -100q95 -33 190 -33t190 33t163 100q138 136 138 414v902h44v-901q0 -299 -153 -447q-143 -139 -382 -139t-382 139q-154 149 -154 447zM423 1842h60l283 -262h-47z" />
<glyph unicode="&#xda;" horiz-adv-x="1345" d="M137 553v901h44v-902q0 -278 138 -414q68 -66 164 -100q95 -33 190 -33t190 33t163 100q138 136 138 414v902h44v-901q0 -299 -153 -447q-143 -139 -382 -139t-382 139q-154 149 -154 447zM580 1580l282 262h61l-296 -262h-47z" />
<glyph unicode="&#xdb;" horiz-adv-x="1345" d="M137 553v901h44v-902q0 -278 138 -414q68 -66 164 -100q95 -33 190 -33t190 33t163 100q138 136 138 414v902h44v-901q0 -299 -153 -447q-143 -139 -382 -139t-382 139q-154 149 -154 447zM389 1560l262 282h44l262 -282h-52l-232 254l-232 -254h-52z" />
<glyph unicode="&#xdc;" horiz-adv-x="1345" d="M137 553v901h44v-902q0 -278 138 -414q68 -66 164 -100q95 -33 190 -33t190 33t163 100q138 136 138 414v902h44v-901q0 -299 -153 -447q-143 -139 -382 -139t-382 139q-154 149 -154 447zM450 1606v192h39v-192h-39zM856 1606v192h41v-192h-41z" />
<glyph unicode="&#xdd;" horiz-adv-x="1246" d="M29 1454h49l545 -901l545 901h50l-573 -945v-509h-44v509zM528 1580l283 262h60l-296 -262h-47z" />
<glyph unicode="&#xde;" horiz-adv-x="1204" d="M141 0v1454h44v-278h523q202 0 318 -105q115 -105 115 -303q0 -197 -115 -302q-116 -105 -318 -105h-523v-361h-44zM185 400h518q82 0 153 20q67 19 124 62q56 42 86 115q31 74 31 171q0 96 -31 172q-29 72 -86 115t-124 62q-71 20 -153 20h-518v-737z" />
<glyph unicode="&#xdf;" horiz-adv-x="1122" d="M131 0v981q0 112 24 199q24 89 63 145q38 55 95 94q54 37 116 52q64 16 130 16q177 0 292 -97q116 -98 116 -268q0 -55 -14 -105q-13 -45 -46 -96q-33 -50 -92 -83q-63 -35 -147 -50q170 -27 267 -138q98 -112 98 -275q0 -176 -109 -282q-110 -107 -293 -107q-52 0 -89 4 q-33 4 -59 10l-17 4v34q57 -18 158 -18q175 0 271 102t96 255q0 176 -120 284t-310 108h-95v35h43q99 0 177 20q77 20 121 50q44 31 72 75q27 43 36 85q10 45 10 86q0 153 -103 243q-104 90 -263 90q-82 0 -148 -25q-68 -26 -122 -78q-56 -54 -85 -145q-31 -96 -31 -219 v-986h-42z" />
<glyph unicode="&#xe0;" horiz-adv-x="1068" d="M95 269q0 257 321 297q36 5 76 8q45 3 79 6q32 3 76 9q29 4 73 15q27 7 62 25q33 17 52 38q19 20 31 54q13 36 13 75q0 41 -17 84q-16 42 -53 83q-36 41 -106 66q-72 26 -165 26q-153 0 -248 -69q-96 -70 -114 -185h-41q6 52 32 103q25 48 72 92q45 42 122 68 q78 26 177 26q86 0 160 -22q69 -21 111 -53q42 -33 67 -75q27 -46 35 -80q10 -42 10 -75v-517q0 -79 7 -142q7 -65 15 -96l7 -30h-42q-29 91 -29 268v39q-17 -66 -52 -129q-33 -58 -84 -105q-53 -48 -129 -73q-80 -26 -176 -26q-169 0 -256 82q-86 81 -86 213zM137 271 q0 -117 78 -189q79 -73 228 -73q215 0 324 141q111 143 111 411v120q-14 -29 -46 -55q-29 -23 -61 -37q-31 -13 -83 -24q-39 -8 -85 -14q-16 -2 -95 -10q-50 -5 -86 -9q-53 -6 -98 -21q-43 -14 -90 -44t-71 -78q-26 -52 -26 -118zM282 1451h60l283 -262h-47z" />
<glyph unicode="&#xe1;" horiz-adv-x="1068" d="M95 269q0 257 321 297q36 5 76 8q45 3 79 6q32 3 76 9q29 4 73 15q27 7 62 25q33 17 52 38q19 20 31 54q13 36 13 75q0 41 -17 84q-16 42 -53 83q-36 41 -106 66q-72 26 -165 26q-153 0 -248 -69q-96 -70 -114 -185h-41q6 52 32 103q25 48 72 92q45 42 122 68 q78 26 177 26q86 0 160 -22q69 -21 111 -53q42 -33 67 -75q27 -46 35 -80q10 -42 10 -75v-517q0 -79 7 -142q7 -65 15 -96l7 -30h-42q-29 91 -29 268v39q-17 -66 -52 -129q-33 -58 -84 -105q-53 -48 -129 -73q-80 -26 -176 -26q-169 0 -256 82q-86 81 -86 213zM137 271 q0 -117 78 -189q79 -73 228 -73q215 0 324 141q111 143 111 411v120q-14 -29 -46 -55q-29 -23 -61 -37q-31 -13 -83 -24q-39 -8 -85 -14q-16 -2 -95 -10q-50 -5 -86 -9q-53 -6 -98 -21q-43 -14 -90 -44t-71 -78q-26 -52 -26 -118zM437 1189l283 262h60l-296 -262h-47z" />
<glyph unicode="&#xe2;" horiz-adv-x="1068" d="M95 269q0 257 321 297q36 5 76 8q45 3 79 6q32 3 76 9q29 4 73 15q27 7 62 25q33 17 52 38q19 20 31 54q13 36 13 75q0 41 -17 84q-16 42 -53 83q-36 41 -106 66q-72 26 -165 26q-153 0 -248 -69q-96 -70 -114 -185h-41q6 52 32 103q25 48 72 92q45 42 122 68 q78 26 177 26q86 0 160 -22q69 -21 111 -53q42 -33 67 -75q27 -46 35 -80q10 -42 10 -75v-517q0 -79 7 -142q7 -65 15 -96l7 -30h-42q-29 91 -29 268v39q-17 -66 -52 -129q-33 -58 -84 -105q-53 -48 -129 -73q-80 -26 -176 -26q-169 0 -256 82q-86 81 -86 213zM137 271 q0 -117 78 -189q79 -73 228 -73q215 0 324 141q111 143 111 411v120q-14 -29 -46 -55q-29 -23 -61 -37q-31 -13 -83 -24q-39 -8 -85 -14q-16 -2 -95 -10q-50 -5 -86 -9q-53 -6 -98 -21q-43 -14 -90 -44t-71 -78q-26 -52 -26 -118zM246 1168l262 283h44l262 -283h-52 l-233 254l-231 -254h-52z" />
<glyph unicode="&#xe3;" horiz-adv-x="1068" d="M95 269q0 257 321 297q36 5 76 8q45 3 79 6q32 3 76 9q29 4 73 15q27 7 62 25q33 17 52 38q19 20 31 54q13 36 13 75q0 41 -17 84q-16 42 -53 83q-36 41 -106 66q-72 26 -165 26q-153 0 -248 -69q-96 -70 -114 -185h-41q6 52 32 103q25 48 72 92q45 42 122 68 q78 26 177 26q86 0 160 -22q69 -21 111 -53q42 -33 67 -75q27 -46 35 -80q10 -42 10 -75v-517q0 -79 7 -142q7 -65 15 -96l7 -30h-42q-29 91 -29 268v39q-17 -66 -52 -129q-33 -58 -84 -105q-53 -48 -129 -73q-80 -26 -176 -26q-169 0 -256 82q-86 81 -86 213zM137 271 q0 -117 78 -189q79 -73 228 -73q215 0 324 141q111 143 111 411v120q-14 -29 -46 -55q-29 -23 -61 -37q-31 -13 -83 -24q-39 -8 -85 -14q-16 -2 -95 -10q-50 -5 -86 -9q-53 -6 -98 -21q-43 -14 -90 -44t-71 -78q-26 -52 -26 -118zM204 1206q0 88 35 144t113 56q42 0 79 -17 q38 -17 107 -63q60 -41 99 -60q30 -15 65 -15q119 0 120 166h33q-2 -91 -36 -144q-36 -55 -113 -55q-42 0 -77 16q-31 14 -108 64q-70 46 -100 60q-31 15 -66 15q-118 0 -118 -167h-33z" />
<glyph unicode="&#xe4;" horiz-adv-x="1068" d="M95 269q0 257 321 297q36 5 76 8q45 3 79 6q32 3 76 9q29 4 73 15q27 7 62 25q33 17 52 38q19 20 31 54q13 36 13 75q0 41 -17 84q-16 42 -53 83q-36 41 -106 66q-72 26 -165 26q-153 0 -248 -69q-96 -70 -114 -185h-41q6 52 32 103q25 48 72 92q45 42 122 68 q78 26 177 26q86 0 160 -22q69 -21 111 -53q42 -33 67 -75q27 -46 35 -80q10 -42 10 -75v-517q0 -79 7 -142q7 -65 15 -96l7 -30h-42q-29 91 -29 268v39q-17 -66 -52 -129q-33 -58 -84 -105q-53 -48 -129 -73q-80 -26 -176 -26q-169 0 -256 82q-86 81 -86 213zM137 271 q0 -117 78 -189q79 -73 228 -73q215 0 324 141q111 143 111 411v120q-14 -29 -46 -55q-29 -23 -61 -37q-31 -13 -83 -24q-39 -8 -85 -14q-16 -2 -95 -10q-50 -5 -86 -9q-53 -6 -98 -21q-43 -14 -90 -44t-71 -78q-26 -52 -26 -118zM306 1212v193h40v-193h-40zM713 1212v193 h41v-193h-41z" />
<glyph unicode="&#xe5;" horiz-adv-x="1068" d="M95 269q0 257 321 297q36 5 76 8q45 3 79 6q32 3 76 9q29 4 73 15q27 7 62 25q33 17 52 38q19 20 31 54q13 36 13 75q0 41 -17 84q-16 42 -53 83q-36 41 -106 66q-72 26 -165 26q-153 0 -248 -69q-96 -70 -114 -185h-41q6 52 32 103q25 48 72 92q45 42 122 68 q78 26 177 26q86 0 160 -22q69 -21 111 -53q42 -33 67 -75q27 -46 35 -80q10 -42 10 -75v-517q0 -79 7 -142q7 -65 15 -96l7 -30h-42q-29 91 -29 268v39q-17 -66 -52 -129q-33 -58 -84 -105q-53 -48 -129 -73q-80 -26 -176 -26q-169 0 -256 82q-86 81 -86 213zM137 271 q0 -117 78 -189q79 -73 228 -73q215 0 324 141q111 143 111 411v120q-14 -29 -46 -55q-29 -23 -61 -37q-31 -13 -83 -24q-39 -8 -85 -14q-16 -2 -95 -10q-50 -5 -86 -9q-53 -6 -98 -21q-43 -14 -90 -44t-71 -78q-26 -52 -26 -118zM364 1332q0 68 45 114t120 46q76 0 121 -46 t45 -114q0 -66 -45 -113t-121 -47q-75 0 -120 47t-45 113zM396 1332q0 -55 37 -95q36 -39 96 -39q61 0 97 39q37 40 37 95q0 54 -37 94q-36 39 -97 39q-60 0 -96 -39q-37 -40 -37 -94z" />
<glyph unicode="&#xe7;" horiz-adv-x="1088" d="M95 531q0 253 123 406t337 153q161 0 277 -102q115 -102 159 -278h-43q-42 161 -149 253t-244 92q-187 0 -302 -141q-116 -142 -116 -383q0 -239 116 -381q115 -141 302 -141q137 0 244 92t149 252h43q-43 -175 -158 -276t-275 -103l-86 -130q40 16 93 16q87 0 145 -45 t58 -124q0 -83 -63 -123q-62 -40 -162 -40q-143 0 -234 77l8 33q88 -77 223 -77q90 0 140 34q51 35 51 99q0 63 -49 100q-48 36 -127 36q-35 0 -69 -8q-27 -6 -44 -17l-13 -9l-18 10l111 169q-198 12 -313 163q-114 150 -114 393z" />
<glyph unicode="&#xe8;" horiz-adv-x="1082" d="M95 531q0 253 120 406t331 153q200 0 322 -154q121 -152 121 -406v-26h-852q7 -230 119 -363q111 -132 291 -132q119 0 214 63q94 63 151 178h46q-61 -132 -164 -203q-106 -73 -247 -73q-212 0 -332 152t-120 405zM137 539h810q-1 239 -115 378q-112 138 -285 138 q-183 0 -296 -139q-113 -138 -114 -377zM295 1451h60l283 -262h-47z" />
<glyph unicode="&#xe9;" horiz-adv-x="1082" d="M95 531q0 253 120 406t331 153q200 0 322 -154q121 -152 121 -406v-26h-852q7 -230 119 -363q111 -132 291 -132q119 0 214 63q94 63 151 178h46q-61 -132 -164 -203q-106 -73 -247 -73q-212 0 -332 152t-120 405zM137 539h810q-1 239 -115 378q-112 138 -285 138 q-183 0 -296 -139q-113 -138 -114 -377zM454 1189l282 262h61l-296 -262h-47z" />
<glyph unicode="&#xea;" horiz-adv-x="1082" d="M95 531q0 253 120 406t331 153q200 0 322 -154q121 -152 121 -406v-26h-852q7 -230 119 -363q111 -132 291 -132q119 0 214 63q94 63 151 178h46q-61 -132 -164 -203q-106 -73 -247 -73q-212 0 -332 152t-120 405zM137 539h810q-1 239 -115 378q-112 138 -285 138 q-183 0 -296 -139q-113 -138 -114 -377zM263 1168l262 283h44l262 -283h-52l-232 254l-232 -254h-52z" />
<glyph unicode="&#xeb;" horiz-adv-x="1082" d="M95 531q0 253 120 406t331 153q200 0 322 -154q121 -152 121 -406v-26h-852q7 -230 119 -363q111 -132 291 -132q119 0 214 63q94 63 151 178h46q-61 -132 -164 -203q-106 -73 -247 -73q-212 0 -332 152t-120 405zM137 539h810q-1 239 -115 378q-112 138 -285 138 q-183 0 -296 -139q-113 -138 -114 -377zM324 1212v193h40v-193h-40zM730 1212v193h41v-193h-41z" />
<glyph unicode="&#xec;" horiz-adv-x="357" d="M-74 1451h61l282 -262h-47zM158 0v1063h42v-1063h-42z" />
<glyph unicode="&#xed;" horiz-adv-x="357" d="M88 1189l283 262h60l-296 -262h-47zM158 0v1063h42v-1063h-42z" />
<glyph unicode="&#xee;" horiz-adv-x="357" d="M-105 1168l262 283h44l262 -283h-52l-233 254l-231 -254h-52zM158 0v1063h42v-1063h-42z" />
<glyph unicode="&#xef;" horiz-adv-x="357" d="M-44 1212v193h40v-193h-40zM158 0v1063h42v-1063h-42zM362 1212v193h41v-193h-41z" />
<glyph unicode="&#xf0;" horiz-adv-x="1101" d="M94 532q0 244 124 401t324 157q158 0 263 -87q104 -86 149 -230q-21 115 -66 222q-46 108 -102 185q-59 81 -115 141q-57 62 -119 108q-64 48 -99 70q-36 23 -70 38l33 17q15 -6 51 -27q42 -25 92 -62q59 -44 115 -97q59 -56 119 -138q61 -84 108 -177q45 -90 76 -222 t31 -267q0 -270 -124 -430t-335 -160q-202 0 -329 157q-126 156 -126 401zM136 531q0 -237 117 -380q117 -142 297 -142q193 0 304 152q112 153 112 398q0 46 -9 97q-9 49 -27 107q-18 57 -51 108q-32 50 -77 93q-43 42 -110 66q-69 25 -143 25q-179 0 -296 -143 q-117 -142 -117 -381zM323 1229l560 309l21 -24l-560 -309z" />
<glyph unicode="&#xf1;" horiz-adv-x="1103" d="M135 0v1063h42v-329q12 54 26 89q18 46 50 93q36 53 78 88q45 37 116 61q75 25 160 25q183 0 274 -106q90 -105 90 -320v-664h-42v659q0 396 -327 396q-208 0 -317 -151q-108 -150 -108 -414v-490h-42zM227 1206q0 88 35 144t114 56q41 0 78 -17q38 -17 107 -63 q58 -39 100 -60q30 -15 65 -15q119 0 120 166h33q-2 -89 -37 -144q-36 -55 -113 -55q-41 0 -76 16q-31 14 -108 64q-70 46 -100 60q-31 15 -66 15q-119 0 -119 -167h-33z" />
<glyph unicode="&#xf2;" horiz-adv-x="1122" d="M95 531q0 252 126 405q127 154 340 154t340 -154q126 -153 126 -405q0 -251 -126 -404t-340 -153t-340 153t-126 404zM137 531q0 -239 119 -381q118 -141 305 -141t305 141q119 142 119 381q0 241 -119 383q-118 141 -305 141t-305 -141q-119 -142 -119 -383zM311 1451 h61l282 -262h-47z" />
<glyph unicode="&#xf3;" horiz-adv-x="1122" d="M95 531q0 252 126 405q127 154 340 154t340 -154q126 -153 126 -405q0 -251 -126 -404t-340 -153t-340 153t-126 404zM137 531q0 -239 119 -381q118 -141 305 -141t305 141q119 142 119 381q0 241 -119 383q-118 141 -305 141t-305 -141q-119 -142 -119 -383zM468 1189 l283 262h60l-296 -262h-47z" />
<glyph unicode="&#xf4;" horiz-adv-x="1122" d="M95 531q0 252 126 405q127 154 340 154t340 -154q126 -153 126 -405q0 -251 -126 -404t-340 -153t-340 153t-126 404zM137 531q0 -239 119 -381q118 -141 305 -141t305 141q119 142 119 381q0 241 -119 383q-118 141 -305 141t-305 -141q-119 -142 -119 -383zM278 1168 l262 283h44l262 -283h-52l-233 254l-231 -254h-52z" />
<glyph unicode="&#xf5;" horiz-adv-x="1122" d="M95 531q0 252 126 405q127 154 340 154t340 -154q126 -153 126 -405q0 -251 -126 -404t-340 -153t-340 153t-126 404zM137 531q0 -239 119 -381q118 -141 305 -141t305 141q119 142 119 381q0 241 -119 383q-118 141 -305 141t-305 -141q-119 -142 -119 -383zM236 1206 q0 89 34 144q35 56 114 56q41 0 78 -17q38 -17 107 -63q58 -39 100 -60q30 -15 65 -15q119 0 120 166h33q-2 -89 -37 -144q-36 -55 -113 -55q-41 0 -76 16q-31 14 -108 64q-70 46 -100 60q-31 15 -66 15q-119 0 -119 -167h-32z" />
<glyph unicode="&#xf6;" horiz-adv-x="1122" d="M95 531q0 252 126 405q127 154 340 154t340 -154q126 -153 126 -405q0 -251 -126 -404t-340 -153t-340 153t-126 404zM137 531q0 -239 119 -381q118 -141 305 -141t305 141q119 142 119 381q0 241 -119 383q-118 141 -305 141t-305 -141q-119 -142 -119 -383zM338 1212 v193h40v-193h-40zM744 1212v193h41v-193h-41z" />
<glyph unicode="&#xf7;" horiz-adv-x="1127" d="M129 513v37h869v-37h-869zM540 59v194h48v-194h-48zM540 805v193h48v-193h-48z" />
<glyph unicode="&#xf8;" horiz-adv-x="1122" d="M95 531q0 252 126 405q127 154 340 154t340 -154q126 -153 126 -405q0 -251 -126 -404t-340 -153t-340 153t-126 404zM105 -33l888 1081l24 -22l-889 -1080zM137 531q0 -239 119 -381q118 -141 305 -141t305 141q119 142 119 381q0 241 -119 383q-118 141 -305 141 t-305 -141q-119 -142 -119 -383z" />
<glyph unicode="&#xf9;" horiz-adv-x="1095" d="M133 399v664h42v-660q0 -209 84 -301t239 -92q214 0 318 149q103 148 103 414v490h42v-1063h-42v317q-10 -43 -27 -87q-19 -47 -48 -90q-35 -51 -78 -84q-44 -34 -115 -58t-158 -24q-183 0 -271 105q-89 106 -89 320zM298 1451h60l283 -262h-47z" />
<glyph unicode="&#xfa;" horiz-adv-x="1095" d="M133 399v664h42v-660q0 -209 84 -301t239 -92q214 0 318 149q103 148 103 414v490h42v-1063h-42v317q-10 -43 -27 -87q-19 -47 -48 -90q-35 -51 -78 -84q-44 -34 -115 -58t-158 -24q-183 0 -271 105q-89 106 -89 320zM453 1189l282 262h61l-296 -262h-47z" />
<glyph unicode="&#xfb;" horiz-adv-x="1095" d="M133 399v664h42v-660q0 -209 84 -301t239 -92q214 0 318 149q103 148 103 414v490h42v-1063h-42v317q-10 -43 -27 -87q-19 -47 -48 -90q-35 -51 -78 -84q-44 -34 -115 -58t-158 -24q-183 0 -271 105q-89 106 -89 320zM263 1168l262 283h44l262 -283h-52l-232 254 l-232 -254h-52z" />
<glyph unicode="&#xfc;" horiz-adv-x="1095" d="M133 399v664h42v-660q0 -209 84 -301t239 -92q214 0 318 149q103 148 103 414v490h42v-1063h-42v317q-10 -43 -27 -87q-19 -47 -48 -90q-35 -51 -78 -84q-44 -34 -115 -58t-158 -24q-183 0 -271 105q-89 106 -89 320zM324 1212v193h40v-193h-40zM730 1212v193h41v-193 h-41z" />
<glyph unicode="&#xfd;" horiz-adv-x="1006" d="M29 1063h46l428 -1015l428 1015h47l-620 -1454h-45l168 388zM411 1189l282 262h61l-296 -262h-47z" />
<glyph unicode="&#xfe;" horiz-adv-x="1142" d="M135 -391v1845h42v-697q45 156 154 244q110 89 269 89q131 0 236 -73q102 -71 158 -198q55 -125 55 -288q0 -243 -124 -400t-325 -157q-162 0 -269 88q-109 90 -154 244v-697h-42zM177 531q0 -239 115 -381q114 -141 300 -141q179 0 297 142t118 380q0 239 -118 381 q-119 143 -297 143q-184 0 -300 -142q-115 -140 -115 -382z" />
<glyph unicode="&#xff;" horiz-adv-x="1006" d="M29 1063h46l428 -1015l428 1015h47l-620 -1454h-45l168 388zM280 1212v193h39v-193h-39zM686 1212v193h41v-193h-41z" />
<glyph unicode="&#x178;" horiz-adv-x="1246" d="M29 1454h49l545 -901l545 901h50l-573 -945v-509h-44v509zM400 1604v192h40v-192h-40zM807 1604v192h41v-192h-41z" />
<glyph unicode="&#x2c6;" horiz-adv-x="797" d="M115 1168l262 283h44l262 -283h-52l-233 254l-231 -254h-52z" />
<glyph unicode="&#x2dc;" horiz-adv-x="739" d="M44 1206q0 88 35 144t114 56q41 0 78 -17q38 -17 107 -63q57 -39 100 -60q30 -15 65 -15q119 0 120 166h32q-2 -91 -36 -144q-36 -55 -113 -55q-41 0 -76 16q-34 16 -109 64q-73 48 -99 60q-32 15 -66 15q-119 0 -119 -167h-33z" />
<glyph unicode="&#x2000;" horiz-adv-x="941" />
<glyph unicode="&#x2001;" horiz-adv-x="1883" />
<glyph unicode="&#x2002;" horiz-adv-x="941" />
<glyph unicode="&#x2003;" horiz-adv-x="1883" />
<glyph unicode="&#x2004;" horiz-adv-x="627" />
<glyph unicode="&#x2005;" horiz-adv-x="470" />
<glyph unicode="&#x2006;" horiz-adv-x="313" />
<glyph unicode="&#x2007;" horiz-adv-x="313" />
<glyph unicode="&#x2008;" horiz-adv-x="235" />
<glyph unicode="&#x2009;" horiz-adv-x="376" />
<glyph unicode="&#x200a;" horiz-adv-x="104" />
<glyph unicode="&#x2010;" horiz-adv-x="766" d="M129 513v37h509v-37h-509z" />
<glyph unicode="&#x2011;" horiz-adv-x="766" d="M129 513v37h509v-37h-509z" />
<glyph unicode="&#x2012;" horiz-adv-x="766" d="M129 513v37h509v-37h-509z" />
<glyph unicode="&#x2013;" horiz-adv-x="1098" d="M129 513v37h841v-37h-841z" />
<glyph unicode="&#x2014;" horiz-adv-x="1500" d="M129 513v37h1242v-37h-1242z" />
<glyph unicode="&#x2018;" horiz-adv-x="306" d="M129 1024v178q0 26 3 76l12 176h32l-17 -249h18v-181h-48z" />
<glyph unicode="&#x2019;" horiz-adv-x="306" d="M129 1273v181h48v-178q0 -26 -3 -76l-12 -176h-32l17 249h-18z" />
<glyph unicode="&#x201a;" horiz-adv-x="306" d="M129 0v181h48v-178q0 -27 -3 -76l-12 -176h-32l17 249h-18z" />
<glyph unicode="&#x201c;" horiz-adv-x="586" d="M129 1024v178q0 26 3 76l12 176h32l-17 -249h18v-181h-48zM410 1024v178q0 26 3 76l12 176h32l-18 -249h19v-181h-48z" />
<glyph unicode="&#x201d;" horiz-adv-x="586" d="M129 1273v181h48v-178q0 -26 -3 -76l-12 -176h-32l17 249h-18zM410 1273v181h48v-178q0 -26 -3 -76l-13 -176h-31l17 249h-18z" />
<glyph unicode="&#x201e;" horiz-adv-x="586" d="M129 0v181h48v-178q0 -27 -3 -76l-12 -176h-32l17 249h-18zM410 0v181h48v-178q0 -27 -3 -76l-13 -176h-31l17 249h-18z" />
<glyph unicode="&#x2022;" horiz-adv-x="729" d="M150 727q0 95 61 155t154 60q91 0 153 -60t62 -155t-62 -155t-153 -60q-93 0 -154 60t-61 155z" />
<glyph unicode="&#x2026;" horiz-adv-x="914" d="M129 0v194h48v-194h-48zM433 0v194h48v-194h-48zM737 0v194h48v-194h-48z" />
<glyph unicode="&#x202f;" horiz-adv-x="376" />
<glyph unicode="&#x2039;" horiz-adv-x="683" d="M114 522v38l443 498v-58l-411 -459l411 -460v-57z" />
<glyph unicode="&#x203a;" horiz-adv-x="683" d="M126 24v57l411 460l-411 459v58l443 -498v-38z" />
<glyph unicode="&#x205f;" horiz-adv-x="470" />
<glyph unicode="&#x20ac;" horiz-adv-x="1321" d="M35 561l4 37h160q-6 63 -6 129t6 129h-164l4 37h164q21 173 87 305q68 135 177 211q112 78 257 78q204 0 336 -148q132 -149 174 -393h-45q-41 231 -160 367q-120 137 -305 137q-196 0 -321 -154q-124 -152 -157 -403h538l-5 -37h-537q-6 -63 -6 -129t6 -129h539l-5 -37 h-530q33 -251 157 -403q125 -153 321 -153q185 0 305 137q119 135 160 366h45q-42 -244 -174 -393q-132 -148 -336 -148q-143 0 -257 79q-110 76 -177 210q-66 132 -87 305h-168z" />
<glyph unicode="&#x2122;" horiz-adv-x="1528" d="M113 1421v33h511v-33h-238v-620h-37v620h-236zM765 801v653h44l269 -611l270 611h44v-653h-37v592l-261 -592h-31l-261 592v-592h-37z" />
<glyph unicode="&#x25fc;" horiz-adv-x="1064" d="M0 0v1065h1065v-1065h-1065z" />
</font>
</defs>
</svg>
