<?xml version="1.0" standalone="no"?>
<!DOCTYPE svg PUBLIC "-//W3C//DTD SVG 1.1//EN" "http://www.w3.org/Graphics/SVG/1.1/DTD/svg11.dtd" >
<svg xmlns="http://www.w3.org/2000/svg" xmlns:xlink="http://www.w3.org/1999/xlink" version="1.1">
<metadata></metadata>
<defs>
<font id="acronym-bolduploaded_file" horiz-adv-x="1338" >
<font-face units-per-em="2048" ascent="1593" descent="-455" />
<missing-glyph horiz-adv-x="332" />
<glyph unicode="AE" horiz-adv-x="2058" d="M-37 0l926 1454h1092v-271h-705v-329h593v-254h-593v-329h714v-271h-1022v284h-483l-172 -284h-350zM631 523h337v555z" />
<glyph unicode="ae" horiz-adv-x="1869" d="M52 281q0 69 24 124q23 54 60 89q32 31 91 58q58 27 103 38q42 10 111 22q66 10 74 11q38 5 70 9q8 1 17.5 2.5t22 4.5t20.5 4q32 6 52 15q16 8 37 23q18 14 26 34q8 21 8 48q0 49 -47 88q-48 40 -141 40t-146 -39q-51 -38 -63 -110h-275q3 52 18 98t49 92t86 81 q49 33 136 55q88 22 189 22q258 0 371 -133q136 133 350 133q243 0 384 -153t141 -415l-3 -75h-767q17 -127 82 -192q66 -66 165 -66q68 0 123 32t84 87h286q-51 -159 -182 -246q-132 -88 -312 -88q-278 0 -412 198q-117 -198 -428 -198q-186 0 -295 77t-109 230zM344 294 q0 -61 44 -94t125 -33q127 0 191 73t64 207v83q-13 -13 -34 -25q-20 -12 -38 -19q-24 -10 -48 -16q-36 -9 -47 -12q-17 -4 -54 -12q-30 -6 -50 -11q-74 -17 -112 -48q-41 -33 -41 -93zM1050 612h484q-15 129 -78 195q-62 65 -162 65t-164 -67q-63 -66 -80 -193z" />
<glyph unicode="OE" horiz-adv-x="2275" d="M66 727q0 340 195 550t514 210q288 0 470 -182v149h955v-271h-707v-329h593v-254h-593v-329h714v-271h-962v148q-181 -181 -470 -181q-209 0 -371 96t-250 268t-88 396zM376 727q0 -125 35 -224q35 -98 93 -155q60 -58 127 -86q70 -29 144 -29t144 29q66 27 126 86 q58 57 93 155q34 96 34 224t-34 224q-35 98 -93 155q-60 59 -126 86q-70 29 -144 29t-144 -29q-67 -28 -127 -86q-58 -57 -93 -155q-35 -99 -35 -224z" />
<glyph unicode="oe" horiz-adv-x="1963" d="M52 531q0 254 145 406q145 153 393 153q257 0 397 -176q143 176 402 176q243 0 384 -153q140 -152 140 -415l-3 -75h-767q17 -127 82 -192q66 -66 166 -66q67 0 122 32t84 87h286q-51 -159 -182 -246q-132 -88 -311 -88q-266 0 -406 170q-140 -170 -394 -170 q-247 0 -393 152q-145 151 -145 405zM344 531q0 -153 69 -239q69 -85 183 -85q112 0 182 85q71 86 71 239q0 154 -71 240t-182 86q-113 0 -182 -85q-70 -87 -70 -241zM1143 612h484q-15 129 -78 195q-62 65 -161 65q-101 0 -165 -67q-63 -66 -80 -193z" />
<glyph unicode="&#xfb01;" horiz-adv-x="1223" d="M19 827v236h182v23q0 201 86 288q87 88 268 88q26 0 82 -2q14 0 63 -4l22 -3v-224q-67 8 -106 8q-73 0 -100 -34q-28 -36 -28 -117v-23h234v-236h-234v-827h-287v827h-182zM834 1198v256h291v-256h-291zM836 0v1063h287v-1063h-287z" />
<glyph unicode="&#xfb02;" horiz-adv-x="1223" d="M19 827v236h182v23q0 201 86 288q87 88 268 88q26 0 82 -2q14 0 63 -4l22 -3v-224q-67 8 -106 8q-73 0 -100 -34q-28 -36 -28 -117v-23h234v-236h-234v-827h-287v827h-182zM836 0v1454h287v-1454h-287z" />
<glyph unicode="&#xfb03;" horiz-adv-x="1958" d="M19 827v236h182v23q0 201 86 288q87 88 268 88q26 0 82 -2q14 0 63 -4l22 -3v-224q-67 8 -106 8q-73 0 -100 -34q-28 -36 -28 -117v-23h219v-236h-219v-827h-287v827h-182zM793 827v236h143v23q0 201 86 288q87 88 268 88q27 0 83 -2q14 0 63 -4l21 -3v-224q-67 8 -105 8 q-74 0 -101 -34q-27 -35 -27 -117v-23h233v-236h-233v-827h-288v827h-143zM1569 1198v256h292v-256h-292zM1571 0v1063h288v-1063h-288z" />
<glyph unicode="&#xfb04;" horiz-adv-x="1958" d="M19 827v236h182v23q0 201 86 288q87 88 268 88q26 0 82 -2q14 0 63 -4l22 -3v-224q-67 8 -106 8q-73 0 -100 -34q-28 -36 -28 -117v-23h219v-236h-219v-827h-287v827h-182zM793 827v236h143v23q0 201 86 288q87 88 268 88q27 0 83 -2q14 0 63 -4l21 -3v-224q-67 8 -105 8 q-74 0 -101 -34q-27 -35 -27 -117v-23h233v-236h-233v-827h-288v827h-143zM1571 0v1454h288v-1454h-288z" />
<glyph horiz-adv-x="0" />
<glyph unicode="&#xd;" horiz-adv-x="681" />
<glyph unicode=" "  horiz-adv-x="332" />
<glyph unicode="&#x09;" horiz-adv-x="332" />
<glyph unicode="&#xa0;" horiz-adv-x="332" />
<glyph unicode="!" horiz-adv-x="480" d="M89 0v342h301v-342h-301zM96 998v456h287v-456l-58 -537h-169z" />
<glyph unicode="&#x22;" horiz-adv-x="774" d="M70 825v629h261l-100 -629h-161zM462 825v629h261l-99 -629h-162z" />
<glyph unicode="#" horiz-adv-x="1372" d="M27 370l32 213h246l42 287h-247l32 214h247l54 370h225l-54 -370h269l55 370h225l-54 -370h247l-33 -214h-246l-43 -287h248l-32 -213h-247l-54 -370h-225l54 370h-268l-55 -370h-225l54 370h-247zM530 583h269l43 287h-270z" />
<glyph unicode="$" horiz-adv-x="1250" d="M44 447h316q0 -103 56 -162q55 -58 156 -70v401q-26 6 -96 25q-57 15 -90 26q-62 20 -88 33q-31 15 -74 42q-41 25 -66 53q-22 25 -48 66q-23 36 -33 82q-10 44 -10 100q0 190 134 309t360 134v172h126v-173q225 -19 361 -146q135 -126 135 -324h-299q0 89 -54 148 t-153 72v-377q210 -48 303 -91q169 -76 211 -219q16 -52 16 -121q0 -87 -30 -165q-29 -76 -92 -142q-60 -63 -163 -104q-99 -39 -235 -47v-173h-126v173q-253 16 -385 147q-132 130 -132 331zM371 1053q0 -70 46 -104t155 -64v351q-91 -9 -147 -56q-54 -45 -54 -127z M677 212q102 7 165 58q61 49 61 142q0 76 -48 110q-47 34 -178 69v-379z" />
<glyph unicode="%" horiz-adv-x="1751" d="M12 1033q0 206 98 322q97 115 272 115q173 0 270 -115q98 -116 98 -322q0 -205 -98 -320t-270 -115q-171 0 -271 115q-99 114 -99 320zM230 1033q0 -121 39 -188q39 -68 113 -68q72 0 111 68q38 66 38 188q0 124 -38 190q-39 68 -111 68q-74 0 -113 -68q-39 -67 -39 -190 zM369 -33l834 1520h180l-834 -1520h-180zM1002 420q0 206 98 321t271 115q172 0 270 -115t98 -321q0 -207 -98 -322q-97 -114 -270 -114t-271 114q-98 115 -98 322zM1221 420q0 -124 38 -190q39 -67 112 -67t112 68q39 67 39 189t-39 189q-39 68 -112 68t-112 -68 q-38 -66 -38 -189z" />
<glyph unicode="&#x26;" horiz-adv-x="1389" d="M36 393q0 81 24 149q23 66 69 116t94 84q55 38 115 67q-70 85 -103 158q-31 69 -31 151q0 116 57 201q55 83 151 126q93 42 210 42q186 0 307 -101q120 -100 120 -264q0 -70 -26 -131q-26 -62 -72 -106q-45 -44 -95 -78q-43 -29 -114 -65l251 -278q101 167 117 349h281 q-11 -125 -63 -276q-54 -156 -150 -278l233 -259h-341l-79 86q-184 -119 -426 -119q-239 0 -384 111t-145 315zM338 402q0 -93 68 -144q67 -51 194 -51q119 0 220 68l-316 350q-81 -46 -124 -99q-42 -51 -42 -124zM473 1125q0 -44 24 -89q23 -44 90 -121q103 45 156 95 q51 48 51 118q0 67 -43 105t-118 38q-79 0 -119 -39q-41 -39 -41 -107z" />
<glyph unicode="'" horiz-adv-x="381" d="M70 825v629h261l-100 -629h-161z" />
<glyph unicode="(" horiz-adv-x="576" d="M70 575q0 171 20 320q21 154 50 262q25 94 58 188q27 78 50 119l20 39h273q-9 -19 -20 -44q-13 -30 -44 -124q-34 -101 -56 -196q-23 -98 -43 -256t-20 -308q0 -157 19 -305q20 -157 46 -260q29 -116 53 -192q28 -87 46 -127l19 -43h-273q-3 6 -21 40q-11 22 -48 117 q-35 91 -60 190q-29 113 -48 258q-21 157 -21 322z" />
<glyph unicode=")" horiz-adv-x="576" d="M36 -352q3 6 19 44q13 30 44 124q34 101 56 196q25 107 44 256q19 151 19 307q0 158 -19 306q-21 165 -45 260q-25 101 -54 192q-26 84 -45 127l-19 43h272q3 -5 10.5 -18.5t11.5 -21.5q8 -15 47 -117q38 -99 61 -190q27 -105 47 -258q22 -165 22 -323q0 -164 -21 -320 q-21 -160 -49 -261q-22 -80 -59 -188q-28 -82 -49 -119l-21 -39h-272z" />
<glyph unicode="*" horiz-adv-x="959" d="M35 1061l67 185l289 -112l-10 320h198l-12 -320l291 112l67 -185l-308 -96l208 -243l-152 -126l-194 261l-192 -261l-153 126l207 244z" />
<glyph unicode="+" horiz-adv-x="1175" d="M86 403v256h374v376h257v-376h373v-256h-373v-375h-257v375h-374z" />
<glyph unicode="," horiz-adv-x="473" d="M86 0v342h301v-311q0 -81 -39 -163l-73 -154h-187l122 286h-124z" />
<glyph unicode="-" horiz-adv-x="751" d="M86 403v256h580v-256h-580z" />
<glyph unicode="." horiz-adv-x="473" d="M86 0v342h301v-342h-301z" />
<glyph unicode="/" horiz-adv-x="855" d="M12 0l540 1454h291l-542 -1454h-289z" />
<glyph unicode="0" horiz-adv-x="1319" d="M72 727q0 158 38 296q38 137 110 241q71 103 186 163q114 60 256 60q144 0 256 -60q115 -61 184 -163q72 -105 109 -241q37 -135 37 -296t-37 -296q-37 -136 -109 -241q-69 -102 -184 -163q-112 -60 -256 -60q-142 0 -256 60q-115 60 -186 163q-72 104 -110 241 q-38 138 -38 296zM382 727q0 -246 74 -371t204 -125t204 125t74 371t-74 371t-204 125t-204 -125t-74 -371z" />
<glyph unicode="1" horiz-adv-x="793" d="M48 865v267q165 1 263 89q97 87 124 233h250v-1454h-309v972q-99 -107 -328 -107z" />
<glyph unicode="2" horiz-adv-x="1165" d="M55 0v74q0 106 22 184t74 145q51 67 118 118q70 54 173 115l1 1h1l1 1h1l1 1l2 1h1l1 1h1l1 1l1 1h1l1 1h1l2 1q168 100 227 150q98 83 107 186q1 9 1 27q0 99 -59 158t-157 59q-107 0 -166 -69q-58 -68 -58 -194v-55h-299v58q0 243 137 383q136 139 390 139 q154 0 270 -52t184 -158q67 -104 67 -250q0 -99 -32 -183q-32 -83 -85 -139q-58 -62 -120 -105q-67 -47 -140 -86q-92 -49 -140 -75q-70 -38 -127 -81t-92 -95h750v-263h-1062z" />
<glyph unicode="3" horiz-adv-x="1233" d="M48 477h310q0 -262 259 -262q137 0 199 61q63 62 63 153q0 103 -64 154q-66 52 -175 52h-127v217h133q99 0 151 50q51 50 51 135q0 97 -65 150q-64 52 -165 52q-114 0 -185 -67q-73 -68 -73 -203h-298q0 245 153 382q152 136 398 136q227 0 376 -114q148 -114 148 -306 q0 -109 -50 -186q-49 -77 -135 -120q244 -83 244 -341q0 -97 -35 -179q-35 -81 -104 -143q-68 -61 -183 -96q-114 -35 -259 -35q-282 0 -425 131q-142 130 -142 379z" />
<glyph unicode="4" horiz-adv-x="1292" d="M42 270v271l642 913h355v-941h217v-243h-217v-270h-308v270h-689zM319 513h412v627z" />
<glyph unicode="5" horiz-adv-x="1250" d="M53 465h313q0 -116 75 -182q77 -68 192 -68q129 0 200 80t71 208t-74 208q-73 79 -200 79q-54 0 -100 -15q-43 -14 -73 -37q-32 -25 -49 -43q-22 -23 -29 -38l-8 -14h-296l114 811h917v-266h-679l-41 -315q124 127 323 127q222 0 357 -138q137 -140 137 -366 q0 -244 -151 -386q-152 -143 -422 -143q-143 0 -253 40q-113 41 -181 109q-71 71 -106 157q-37 91 -37 192z" />
<glyph unicode="6" horiz-adv-x="1292" d="M70 693q0 172 39 316t113 251t191 167t266 60q113 0 213 -37q97 -36 160 -96q64 -61 102 -130q39 -71 54 -146h-321q-51 165 -203 165q-129 0 -213 -111t-102 -306q43 79 135 133t239 54q213 0 356 -140q142 -139 142 -373q0 -238 -154 -386q-153 -147 -413 -147 q-74 0 -132 11q-64 12 -124 37q-59 24 -112 65q-55 42 -96 97q-47 63 -75 132q-30 73 -48 172q-17 92 -17 212zM397 505q0 -28 2 -48q38 -120 107 -179q70 -60 165 -60q117 0 193 78q77 79 77 215q0 133 -75 210t-197 77q-120 0 -196 -81q-76 -80 -76 -212z" />
<glyph unicode="7" horiz-adv-x="1198" d="M57 1186v268h1076v-239l-26 -25q-17 -16 -66 -75q-37 -44 -95 -126q-46 -66 -108 -174q-58 -102 -112 -224q-52 -118 -98 -272q-48 -160 -74 -319h-344q28 198 87 371q61 179 126 305q66 127 145 240q81 115 128 170q37 43 94 100h-733z" />
<glyph unicode="8" horiz-adv-x="1292" d="M40 416q0 258 264 363q-199 89 -199 295q0 185 150 299t391 114t391 -114t150 -299q0 -206 -199 -295q264 -107 264 -363q0 -95 -35 -172q-36 -79 -108 -142t-190 -99q-119 -36 -273 -36t-272 36q-119 36 -191 99q-71 62 -107 142t-36 172zM350 436q0 -98 74 -161 t222 -63t222 63t74 161q0 105 -79 165q-78 59 -217 59t-217 -59q-79 -60 -79 -165zM399 1044q0 -85 65 -135q64 -49 182 -49t182 49q65 50 65 135q0 95 -67 147t-180 52t-180 -52t-67 -147z" />
<glyph unicode="9" horiz-adv-x="1292" d="M51 954q0 238 154 386q153 147 413 147q74 0 132 -11q64 -12 124 -37q61 -25 113 -65q53 -41 95 -97q47 -63 75 -132q30 -73 48 -172q18 -98 18 -212q0 -172 -39 -316t-113 -251q-73 -106 -192 -167q-117 -60 -266 -60q-113 0 -213 37q-97 36 -160 96q-64 61 -102 130 q-39 71 -54 146h322q51 -165 202 -165q130 0 214 111t102 306q-43 -78 -136 -133q-92 -54 -239 -54q-212 0 -355 140t-143 373zM351 943q0 -133 75 -210t198 -77q118 0 195 81q76 80 76 212q0 28 -2 48q-38 120 -107 179q-70 60 -164 60q-118 0 -194 -78q-77 -79 -77 -215z " />
<glyph unicode=":" horiz-adv-x="473" d="M86 0v342h301v-342h-301zM86 721v342h301v-342h-301z" />
<glyph unicode=";" horiz-adv-x="473" d="M86 0v342h301v-311q0 -81 -39 -163l-73 -154h-187l122 286h-124zM86 721v342h301v-342h-301z" />
<glyph unicode="&#x3c;" horiz-adv-x="1156" d="M70 392v279l1003 360v-275l-669 -225l669 -224v-275z" />
<glyph unicode="=" horiz-adv-x="1175" d="M86 163v257h1004v-257h-1004zM86 643v257h1004v-257h-1004z" />
<glyph unicode="&#x3e;" horiz-adv-x="1156" d="M83 32v275l669 224l-669 225v275l1003 -360v-279z" />
<glyph unicode="?" horiz-adv-x="1052" d="M17 969v52q2 117 43 207q42 91 112 146q70 56 159 84q90 29 189 29q100 0 192 -29q89 -28 160 -84q72 -57 112 -142q41 -88 41 -195q0 -76 -20 -132q-22 -62 -53 -97q-39 -44 -72 -70q-42 -33 -80 -59q-31 -21 -71 -56q-30 -26 -53 -70q-21 -41 -21 -92h-266q0 73 19 138 q18 61 48 100q32 42 65 72q34 32 71 59q23 17 65 55q32 29 49 66q18 39 18 86q0 87 -57 141t-148 54q-95 0 -150 -60t-57 -173v-30h-295zM371 0v342h301v-342h-301z" />
<glyph unicode="@" horiz-adv-x="1620" d="M55 546q0 222 98 401q97 177 278 280q180 102 413 102q221 0 388 -92q166 -91 255 -254t89 -372q0 -95 -22 -185q-20 -82 -65 -155q-44 -71 -118 -111t-174 -40q-175 0 -224 154q-76 -149 -249 -149q-149 0 -227 105t-78 287q0 138 41 246q42 112 125 180q84 69 196 69 q141 0 201 -120l8 93h201l-41 -456q-10 -116 -10 -176q0 -63 20 -98q19 -34 71 -34q93 0 163 103t70 285q0 135 -40 246q-40 113 -117 198t-195 135q-117 49 -266 49q-156 0 -286 -56q-128 -55 -215 -151q-83 -92 -131 -221q-47 -127 -47 -264q0 -134 44 -252 q43 -116 125 -204t207 -138q123 -49 278 -49q101 0 189 21q89 21 128 42l39 22l46 -86q-8 -6 -18 -11q-15 -8 -50 -21q-49 -19 -82 -28q-52 -14 -111 -22q-69 -9 -141 -9q-234 0 -406 92q-174 93 -267 260q-93 166 -93 384zM647 534q0 -105 36 -160t98 -55q76 0 120 79 q43 77 43 206q0 214 -126 214q-78 0 -125 -81q-46 -80 -46 -203z" />
<glyph unicode="A" d="M-22 0l538 1454h306l538 -1454h-318l-95 282h-553l-94 -282h-322zM475 522h391l-195 583z" />
<glyph unicode="B" d="M98 0v1454h643q232 0 363 -101q132 -102 132 -281q0 -200 -171 -304q113 -50 173 -138q59 -87 59 -211q0 -190 -135 -304q-136 -115 -369 -115h-695zM404 259h345q238 0 238 185q0 101 -64 146q-65 45 -174 45h-345v-376zM404 844h329q211 0 211 177q0 49 -17 86 q-16 36 -47 54q-31 19 -66 26q-34 7 -81 7h-329v-350z" />
<glyph unicode="C" horiz-adv-x="1492" d="M66 727q0 223 87 395q87 173 246 269t363 96q267 0 451 -164q183 -163 214 -436h-312q-17 86 -54 152q-36 64 -87 104q-48 38 -105 58t-112 20q-70 0 -137 -29q-68 -29 -122 -85q-57 -58 -89 -155q-33 -99 -33 -225t33 -225q32 -97 89 -155q54 -56 122 -85 q67 -29 137 -29q59 0 113 19q57 20 105 58q49 39 87 105q36 63 53 152h312q-31 -273 -214 -436q-184 -164 -451 -164q-204 0 -363 96t-246 269t-87 395z" />
<glyph unicode="D" horiz-adv-x="1400" d="M98 0v1454h536q322 0 512 -196q189 -195 189 -531t-189 -531q-190 -196 -512 -196h-536zM408 269h216q61 0 119 14q57 14 108 46q54 34 91 84q38 52 60 131q23 83 23 183t-23 183q-22 81 -60 132q-37 50 -91 84q-51 32 -108 46q-58 14 -119 14h-216v-917z" />
<glyph unicode="E" horiz-adv-x="1249" d="M98 0v1454h1076v-271h-766v-329h652v-254h-652v-329h773v-271h-1083z" />
<glyph unicode="F" horiz-adv-x="1186" d="M98 0v1454h1035v-271h-725v-359h633v-253h-633v-571h-310z" />
<glyph unicode="G" horiz-adv-x="1540" d="M66 718q0 228 88 403q89 177 249 271q161 95 370 95q252 0 432 -133q178 -132 222 -359h-311q-35 109 -129 167q-95 59 -211 59q-75 0 -148 -31q-71 -30 -128 -89q-55 -56 -90 -156q-34 -96 -34 -221q0 -229 113 -362q113 -132 301 -132q141 0 245 80q103 79 142 225 h-350v239h624v-774h-240l-7 171q-71 -95 -185 -149q-116 -55 -267 -55q-144 0 -272 52q-124 50 -218 147q-92 94 -144 237q-52 141 -52 315z" />
<glyph unicode="H" horiz-adv-x="1419" d="M98 0v1454h310v-591h604v591h309v-1454h-309v591h-604v-591h-310z" />
<glyph unicode="I" horiz-adv-x="527" d="M110 0v1454h308v-1454h-308z" />
<glyph unicode="J" horiz-adv-x="1255" d="M45 561v60h309v-51q0 -92 12 -150t45 -102q63 -85 191 -85q129 0 193 85q33 44 45 102t12 150v884h308v-904q0 -257 -116 -405q-141 -178 -442 -178q-303 0 -441 178q-116 149 -116 416z" />
<glyph unicode="K" horiz-adv-x="1325" d="M98 0v1454h310v-732l539 732h374l-459 -569l500 -885h-348l-354 634l-252 -315v-319h-310z" />
<glyph unicode="L" horiz-adv-x="1162" d="M98 0v1454h310v-1180h695v-274h-1005z" />
<glyph unicode="M" horiz-adv-x="1773" d="M98 0v1454h420l369 -1122l369 1122h419v-1454h-301v1069l-349 -1069h-276l-350 1071v-1071h-301z" />
<glyph unicode="N" horiz-adv-x="1397" d="M98 0v1454h283l610 -933v933h308v-1454h-281l-610 933v-933h-310z" />
<glyph unicode="O" horiz-adv-x="1548" d="M66 727q0 340 195 550t514 210q321 0 514 -210q194 -211 194 -550t-194 -550q-193 -210 -514 -210q-319 0 -514 210t-195 550zM376 727q0 -125 35 -224q35 -98 93 -155q60 -58 127 -86q70 -29 144 -29t144 29q66 27 126 86q58 57 93 155q34 96 34 224t-34 224 q-35 98 -93 155q-60 59 -126 86q-70 29 -144 29t-144 -29q-67 -28 -127 -86q-58 -57 -93 -155q-35 -99 -35 -224z" />
<glyph unicode="P" horiz-adv-x="1280" d="M98 0v1454h660q232 0 366 -127t134 -352q0 -228 -134 -353q-135 -126 -366 -126h-350v-496h-310zM408 752h315q43 0 81 9q34 8 72 33q34 22 54 66q20 45 20 106q0 60 -20 105t-54 67q-36 23 -72 32q-42 10 -81 10h-315v-428z" />
<glyph unicode="Q" horiz-adv-x="1548" d="M66 727q0 340 195 550t514 210q321 0 514 -210q194 -211 194 -550q0 -331 -185 -540l165 -186l-180 -161l-177 201q-151 -74 -331 -74q-319 0 -514 210t-195 550zM376 727q0 -125 35 -224q35 -98 93 -155q60 -58 127 -86q70 -29 144 -29q71 0 138 26l-183 208l180 161 l187 -212q75 124 75 311q0 128 -34 224q-35 98 -93 155q-60 59 -126 86q-70 29 -144 29t-144 -29q-67 -28 -127 -86q-58 -57 -93 -155q-35 -99 -35 -224z" />
<glyph unicode="R" horiz-adv-x="1356" d="M98 0v1454h673q237 0 374 -128t137 -359q0 -146 -59 -255q-58 -108 -169 -166l288 -546h-335l-240 482h-359v-482h-310zM408 739h334q231 0 231 222q0 223 -231 223h-334v-445z" />
<glyph unicode="S" horiz-adv-x="1301" d="M57 447h317q0 -120 76 -178t210 -58q127 0 204 50q76 49 76 151q0 18 -4 42q-3 17 -15 34t-22 28q-8 10 -37 23q-36 17 -44 20q-14 5 -60 19q-26 8 -70 17l-86 20q-48 11 -113 28q-53 14 -104 32q-65 23 -99 41q-42 23 -82 54q-43 34 -67 71q-23 36 -40 90 q-16 51 -16 115q0 198 153 320q152 121 406 121q261 0 420 -129q160 -130 160 -343h-299q0 101 -73 163q-71 61 -203 61q-117 0 -189 -48t-72 -138q0 -29 8 -53q8 -25 30 -42q21 -17 44 -30q20 -11 70 -27q29 -9 87 -23q68 -16 112 -26q99 -23 109 -25q38 -9 101 -30 q61 -20 97 -40q44 -24 80 -53q43 -34 66 -71q23 -38 40 -91q16 -51 16 -117q0 -91 -35 -173q-33 -78 -104 -144t-184 -103q-117 -38 -267 -38q-290 0 -444 133q-153 132 -153 347z" />
<glyph unicode="T" horiz-adv-x="1307" d="M54 1180v274h1199v-274h-445v-1180h-308v1180h-446z" />
<glyph unicode="U" horiz-adv-x="1400" d="M94 600v854h309v-844q0 -100 16 -167q16 -68 58 -117q81 -93 223 -93q143 0 224 93q42 49 58 117q15 63 15 167v844h310v-854q0 -315 -159 -474t-448 -159q-288 0 -447 159t-159 474z" />
<glyph unicode="V" horiz-adv-x="1274" d="M-7 1454h321l329 -1088l324 1088h315l-479 -1454h-324z" />
<glyph unicode="W" horiz-adv-x="1996" d="M26 1454h320l222 -1081l289 1081h283l288 -1081l223 1081h320l-355 -1454h-351l-267 992l-266 -992h-351z" />
<glyph unicode="X" horiz-adv-x="1265" d="M-13 0l463 737l-455 717h341l298 -496l296 496h341l-456 -717l464 -737h-347l-300 496l-297 -496h-348z" />
<glyph unicode="Y" horiz-adv-x="1301" d="M-15 1454h338l327 -700l329 700h338l-512 -1014v-440h-308v440z" />
<glyph unicode="Z" horiz-adv-x="1250" d="M66 0v242l724 938h-714v274h1098v-237l-729 -943h740v-274h-1119z" />
<glyph unicode="[" horiz-adv-x="717" d="M86 -352v1855h571v-234h-302v-1387h302v-234h-571z" />
<glyph unicode="\" horiz-adv-x="855" d="M12 1454h291l540 -1454h-289z" />
<glyph unicode="]" horiz-adv-x="717" d="M60 -118h302v1387h-302v234h572v-1855h-572v234z" />
<glyph unicode="^" horiz-adv-x="1012" d="M17 686l358 768h263l357 -768h-297l-192 458l-192 -458h-297z" />
<glyph unicode="_" horiz-adv-x="1263" d="M86 0v242h1092v-242h-1092z" />
<glyph unicode="`" horiz-adv-x="663" d="M66 1460h309l207 -280h-216z" />
<glyph unicode="a" horiz-adv-x="1134" d="M52 281q0 69 24 123q24 55 60 89q34 33 91 59q58 27 103 38q42 10 111 22q66 10 74 11q38 5 70 9q8 1 17.5 2.5t22 4.5t20.5 4q32 6 52 15q16 8 37 23q18 14 26 34q8 21 8 48q0 49 -47 88q-48 40 -141 40q-185 0 -209 -149h-275q3 52 18 98t49 92q35 46 87 81 q52 34 136 55q88 22 189 22q236 0 353 -106q115 -105 115 -300v-400q0 -84 9 -154q9 -71 18 -101l9 -29h-278q-14 42 -25 128q-116 -154 -354 -154q-174 0 -272 80t-98 227zM344 294q0 -61 44 -94t125 -33q127 0 191 73t64 207v82q-16 -16 -37 -28q-22 -13 -56 -23 q-9 -3 -20.5 -6.5t-19 -6t-12.5 -3.5q-21 -5 -67 -15q-52 -11 -59 -12q-74 -17 -112 -48q-41 -33 -41 -93z" />
<glyph unicode="b" horiz-adv-x="1210" d="M92 0v1454h289v-526q113 162 329 162q107 0 192 -43q88 -45 142 -119q55 -76 85 -177q30 -102 30 -220q0 -155 -50 -281q-49 -122 -154 -200q-103 -76 -245 -76q-216 0 -329 161v-135h-289zM381 531q0 -159 66 -241q66 -83 179 -83q112 0 178 83q66 82 66 241t-66 243 q-65 83 -178 83q-114 0 -179 -83q-66 -84 -66 -243z" />
<glyph unicode="c" horiz-adv-x="1148" d="M52 531q0 253 141 406t390 153q210 0 346 -119q135 -118 168 -320h-291q-26 96 -84 151t-140 55q-109 0 -175 -85q-67 -87 -67 -241q0 -152 67 -239q66 -85 175 -85q86 0 144 54t82 151h289q-30 -203 -170 -320q-140 -118 -344 -118q-249 0 -390 152t-141 405z" />
<glyph unicode="d" horiz-adv-x="1210" d="M51 531q0 118 30 220q30 101 85 177q54 74 142 119q85 43 193 43q215 0 328 -162v526h289v-1454h-289v135q-113 -161 -328 -161q-143 0 -246 76q-105 78 -154 200q-50 126 -50 281zM340 531q0 -159 66 -241q66 -83 179 -83q112 0 178 83q66 82 66 241t-66 243 q-65 83 -178 83q-114 0 -179 -83q-66 -84 -66 -243z" />
<glyph unicode="e" horiz-adv-x="1157" d="M52 523q0 164 60 290t181 201q123 76 290 76q243 0 384 -153q140 -152 140 -415l-3 -75h-767q17 -127 82 -192q66 -66 166 -66q67 0 122 32q57 33 85 87h285q-51 -159 -182 -246q-132 -88 -312 -88q-252 0 -392 151q-139 149 -139 398zM337 612h484q-15 129 -78 195 q-62 65 -161 65q-101 0 -165 -67q-63 -66 -80 -193z" />
<glyph unicode="f" horiz-adv-x="735" d="M19 827v236h182v23q0 201 86 288q87 88 268 88q26 0 82 -2q14 0 63 -4l22 -3v-224q-67 8 -106 8q-73 0 -100 -34q-28 -36 -28 -117v-23h234v-236h-234v-827h-287v827h-182z" />
<glyph unicode="g" horiz-adv-x="1206" d="M52 531q0 116 29 218q28 98 85 177q56 77 142 120q88 44 194 44q210 0 323 -158v131h288v-905q0 -67 -5 -130q-5 -68 -18 -120q-16 -65 -38 -108q-24 -47 -64 -88q-43 -44 -94 -70q-52 -26 -132 -43q-76 -16 -174 -16q-119 0 -209 23q-89 23 -143 65q-57 44 -89 93 q-30 45 -53 117h290q55 -98 208 -98q135 0 184 77t49 253v20q-110 -152 -323 -152t-331 154q-119 155 -119 396zM340 531q0 -157 66 -238q65 -80 177 -80q111 0 177 81q65 80 65 237q0 159 -66 243q-65 83 -176 83q-112 0 -177 -83q-66 -84 -66 -243z" />
<glyph unicode="h" horiz-adv-x="1183" d="M92 0v1454h289v-571q14 34 39 69q23 32 65 66q39 32 104 52t142 20q167 0 265 -99q98 -100 98 -306v-685h-289v606q0 131 -46 186q-47 56 -143 56q-109 0 -172 -77t-63 -240v-531h-289z" />
<glyph unicode="i" horiz-adv-x="488" d="M98 1198v256h292v-256h-292zM100 0v1063h288v-1063h-288z" />
<glyph unicode="j" horiz-adv-x="488" d="M-61 -160h35q66 0 96 36t30 120v1067h288v-1083q0 -172 -83 -272q-83 -99 -263 -99h-103v231zM98 1198v256h292v-256h-292z" />
<glyph unicode="k" horiz-adv-x="1101" d="M92 0v1454h289v-874l397 483h343l-380 -418l391 -645h-325l-254 438l-172 -190v-248h-289z" />
<glyph unicode="l" horiz-adv-x="488" d="M100 0v1454h288v-1454h-288z" />
<glyph unicode="m" horiz-adv-x="1806" d="M92 0v1063h289v-172q16 36 34 60q24 33 57 63q37 34 98 55t136 21q230 0 307 -196q101 196 346 196q168 0 263 -97q94 -95 94 -300v-693h-288v611q0 128 -38 182q-39 55 -122 55q-99 0 -159 -75t-60 -233v-540h-288v611q0 126 -41 182q-40 55 -124 55q-98 0 -157 -74 q-58 -73 -58 -234v-540h-289z" />
<glyph unicode="n" horiz-adv-x="1179" d="M92 0v1063h289v-180q15 37 38 69q25 34 64 66t104 52t142 20q167 0 264 -99q97 -98 97 -306v-685h-289v606q0 130 -45 186t-141 56q-109 0 -172 -77q-62 -75 -62 -240v-531h-289z" />
<glyph unicode="o" horiz-adv-x="1191" d="M52 531q0 253 145 406t399 153t399 -153t145 -406q0 -252 -145 -405q-144 -152 -399 -152t-399 152q-145 153 -145 405zM344 531q0 -153 69 -239q69 -85 183 -85t183 85q69 86 69 239q0 154 -70 241q-69 85 -182 85t-182 -85q-70 -87 -70 -241z" />
<glyph unicode="p" horiz-adv-x="1210" d="M92 -391v1454h289v-135q113 162 329 162q141 0 245 -77q105 -78 154 -200q50 -126 50 -282q0 -243 -119 -399q-120 -158 -330 -158q-216 0 -329 161v-526h-289zM381 531q0 -159 66 -241q66 -83 179 -83q112 0 178 83q66 82 66 241t-66 243q-65 83 -178 83 q-114 0 -179 -83q-66 -84 -66 -243z" />
<glyph unicode="q" horiz-adv-x="1210" d="M51 531q0 156 50 282q49 122 154 200q104 77 246 77q215 0 328 -162v135h289v-1454h-289v526q-113 -161 -328 -161q-211 0 -331 158q-119 156 -119 399zM340 531q0 -159 66 -241q66 -83 179 -83q112 0 178 83q66 82 66 241t-66 243q-65 83 -178 83q-114 0 -179 -83 q-66 -84 -66 -243z" />
<glyph unicode="r" horiz-adv-x="817" d="M92 0v1063h289v-180q13 31 33 60q17 24 55 61q33 32 91 52q54 19 124 19q19 0 53 -2q8 0 36 -4l11 -3v-245q-43 9 -97 9q-150 0 -228 -93t-78 -302v-435h-289z" />
<glyph unicode="s" horiz-adv-x="1093" d="M54 324h292q0 -150 207 -150q102 0 151 35t49 93q0 62 -50 88q-51 26 -156 41q-19 3 -47 7t-34 5q-9 1 -20.5 3.5t-28.5 6t-28 5.5q-47 9 -75 18q-32 10 -65 22q-37 14 -60 30q-34 25 -48 38q-24 22 -38 49t-23 60q-8 31 -8 74q0 157 122 249t347 92q221 0 351 -91 q129 -90 129 -247h-282q0 62 -50 100t-144 38q-89 0 -137 -33q-49 -34 -49 -88q0 -24 9 -42q9 -19 22 -30q11 -10 41 -20q32 -11 50 -14l27.5 -5.5t38.5 -7.5q12 -3 62 -10q58 -9 66 -10t29.5 -5.5t35.5 -7.5q31 -6 66 -16q19 -6 61 -22q35 -13 57 -30q25 -18 46 -38 q25 -24 38 -49q15 -30 23 -62t8 -76q0 -73 -26 -134t-81 -110q-54 -48 -154 -77q-101 -29 -232 -29q-132 0 -229 27q-95 26 -153 75q-55 46 -83 110q-27 62 -27 138z" />
<glyph unicode="t" horiz-adv-x="760" d="M11 827v236h182v258l287 112v-370h234v-236h-234v-416q0 -101 34 -144q35 -44 113 -44q19 0 41 3q30 4 34 5l12 2v-231q-103 -10 -178 -10q-185 0 -264 91t-79 297v447h-182z" />
<glyph unicode="u" horiz-adv-x="1172" d="M90 378v685h289v-603q0 -132 44 -188t138 -56q109 0 170 78q62 79 62 241v528h287v-1063h-287v177q-14 -34 -39 -69q-20 -28 -63 -64q-38 -32 -102 -52q-61 -19 -140 -19q-167 0 -263 98q-96 97 -96 307z" />
<glyph unicode="v" horiz-adv-x="1084" d="M-15 1063h310l247 -798l248 798h310l-387 -1063h-341z" />
<glyph unicode="w" horiz-adv-x="1750" d="M9 1063h310l200 -759l232 759h248l231 -759l201 759h310l-338 -1063h-312l-217 724l-216 -724h-312z" />
<glyph unicode="x" horiz-adv-x="1114" d="M3 0l376 544l-373 519h334l217 -329l217 329h334l-374 -519l377 -544h-338l-217 334l-215 -334h-338z" />
<glyph unicode="y" horiz-adv-x="1084" d="M-15 1063h310l246 -790l247 790h312l-534 -1454h-313l138 336z" />
<glyph unicode="z" horiz-adv-x="1034" d="M51 0v231l574 600h-566v232h898v-232l-570 -600h596v-231h-932z" />
<glyph unicode="{" horiz-adv-x="805" d="M50 459v233q102 0 144 53t42 192v247q0 164 72 242q71 77 232 77h205v-234h-138q-54 0 -79 -25q-24 -24 -24 -87v-252q0 -278 -172 -330q172 -54 172 -329v-252q0 -63 24 -87q25 -25 79 -25h138v-234h-205q-161 0 -232 77q-72 78 -72 242v247q0 140 -42 192 q-42 53 -144 53z" />
<glyph unicode="|" horiz-adv-x="465" d="M99 -281v1971h268v-1971h-268z" />
<glyph unicode="}" horiz-adv-x="805" d="M60 -118h139q54 0 79 25q24 24 24 87v252q0 275 172 329q-172 52 -172 330v252q0 63 -24 87q-25 25 -79 25h-139v234h206q161 0 232 -77q72 -78 72 -242v-247q0 -139 42 -192t144 -53v-233q-102 0 -144 -53q-42 -52 -42 -192v-247q0 -164 -72 -242q-71 -77 -232 -77h-206 v234z" />
<glyph unicode="~" horiz-adv-x="1263" d="M68 332q0 178 79 285q79 108 246 108q63 0 114 -16q55 -17 120 -49q36 -18 81 -38q31 -14 64 -23q36 -10 71 -10q67 0 96 35q31 37 35 107h222q0 -179 -79 -285q-80 -107 -246 -107q-105 0 -233 63q-79 40 -122 56q-44 16 -94 16q-68 0 -97 -35q-30 -35 -34 -107h-223z " />
<glyph unicode="&#xa1;" horiz-adv-x="480" d="M89 721v342h301v-342h-301zM96 65l60 537h169l58 -537v-456h-287v456z" />
<glyph unicode="&#xa2;" horiz-adv-x="1148" d="M52 531q0 233 122 384q122 150 338 171v174h126v-174q190 -15 308 -132q120 -118 151 -303h-291q-21 82 -68 135t-111 66v-641q67 13 114 65q45 50 67 136h289q-27 -188 -152 -304t-307 -132v-173h-126v174q-216 21 -339 171q-121 148 -121 383zM340 531q0 -132 49 -214 t134 -103v636q-84 -22 -134 -105q-49 -82 -49 -214z" />
<glyph unicode="&#xa3;" horiz-adv-x="1255" d="M80 0v232q27 10 48 21q29 14 51 32q29 23 48 49q22 30 34 68q13 40 13 93q0 25 -3 52h-191v168h144q-1 4 -4 9.5t-7.5 16.5t-8.5 20q-21 49 -22 51q-1 4 -7 20.5t-11 28.5q-14 38 -17 55q-5 27 -9 56q-5 37 -5 65q0 201 138 326q137 124 376 124q133 0 240 -42 q105 -41 170 -114t98 -164t33 -194v-36h-308v32q0 128 -61 190q-62 64 -162 64q-96 0 -156 -60t-60 -168q0 -32 8 -75q7 -39 15 -64q11 -36 25 -75q21 -60 23 -66h322v-168h-288v-12q0 -177 -132 -270h774v-265h-1108z" />
<glyph unicode="&#xa4;" horiz-adv-x="1176" d="M39 335l185 185q-52 91 -52 207t52 207l-185 186l158 157l189 -190q98 48 203 48q111 0 202 -48l189 190l158 -157l-186 -186q53 -92 53 -207t-53 -207l186 -185l-158 -157l-189 189q-94 -48 -202 -48q-109 0 -203 48l-189 -189zM395 727q0 -95 55 -152q54 -56 139 -56 t139 56q54 55 54 152t-54 152q-54 56 -139 56t-139 -56q-55 -57 -55 -152z" />
<glyph unicode="&#xa5;" horiz-adv-x="1239" d="M-15 1454h334l301 -704l300 704h334l-297 -619h166v-168h-246l-61 -127h307v-168h-349v-372h-308v372h-349v168h307l-62 127h-245v168h165z" />
<glyph unicode="&#xa6;" horiz-adv-x="465" d="M99 -281v861h268v-861h-268zM99 956v734h268v-734h-268z" />
<glyph unicode="&#xa7;" horiz-adv-x="1189" d="M57 566q0 179 146 271q-110 89 -110 243q0 185 137 296q136 111 362 111q234 0 376 -117t142 -315h-276q0 88 -63 142q-62 53 -174 53q-99 0 -159 -42t-60 -121q0 -70 59 -103t232 -74q176 -40 261 -79q203 -95 203 -296q0 -181 -146 -271q110 -89 110 -244 q0 -183 -138 -295q-137 -111 -361 -111q-234 0 -376 120t-142 322h276q0 -92 63 -149t174 -57q99 0 159 42t60 122q0 72 -59 104q-56 31 -232 72q-176 40 -261 79q-203 95 -203 297zM316 593q0 -25 7 -50q6 -22 25 -39q16 -15 39 -29q21 -13 63 -26q58 -18 78 -23 q36 -9 105 -27q92 -23 146 -38q94 40 94 148q0 29 -6 50q-6 22 -25 39q-16 15 -39 29q-21 13 -63 26q-58 18 -78 23q-11 3 -26 6.5t-38 9t-41 9.5q-74 17 -148 38q-93 -41 -93 -146z" />
<glyph unicode="&#xa8;" horiz-adv-x="811" d="M82 1179v260h245v-260h-245zM484 1179v260h245v-260h-245z" />
<glyph unicode="&#xa9;" horiz-adv-x="1596" d="M66 727q0 168 56 308q57 142 154 239q95 95 233 152q134 55 290 55t290 -55q136 -56 232 -152q97 -97 154 -239q56 -140 56 -308t-56 -308q-57 -142 -154 -239q-96 -96 -232 -152q-134 -55 -290 -55t-290 55q-138 57 -233 152q-97 97 -154 239q-56 140 -56 308zM169 727 q0 -291 178 -476t452 -185q178 0 322 84t225 235t81 342t-81 343q-81 151 -225 235t-322 84q-273 0 -452 -186q-178 -185 -178 -476zM413 728q0 195 109 316t286 121q153 0 256 -94q104 -95 122 -251h-185q-19 98 -72 141q-57 46 -123 46q-88 0 -149 -69q-61 -68 -61 -210 t61 -210t149 -68q70 0 124 45q52 44 71 141h185q-18 -156 -122 -251q-103 -94 -256 -94q-177 0 -286 121t-109 316z" />
<glyph unicode="&#xaa;" horiz-adv-x="831" d="M39 907q0 62 23 104q24 43 68 69q43 25 86 39q46 15 98 23q6 1 24 3t29 4q9 1 26 3.5t24 3.5q37 6 44 7q22 4 39 11q11 4 27 15q15 10 20 23q6 15 6 33q0 40 -32 66t-101 26q-68 0 -106 -28t-46 -79h-197q3 45 21 86q18 40 55 77q36 36 108 58t164 22q171 0 256 -74 t85 -209v-282q0 -58 6 -108q6 -49 12 -70l6 -20h-209q-9 25 -17 87q-86 -106 -255 -106q-125 0 -195 58q-69 57 -69 158zM257 920q0 -44 32 -70t91 -26q83 0 128 51t45 141v70q-15 -16 -41 -28q-25 -11 -49 -16l-15 -3l-20 -4l-20 -4q-36 -7 -47 -9q-104 -27 -104 -102z" />
<glyph unicode="&#xab;" horiz-adv-x="1251" d="M80 380v321l513 357v-310l-336 -207l336 -207v-310zM645 380v321l513 357v-310l-336 -207l336 -207v-310z" />
<glyph unicode="&#xac;" horiz-adv-x="1175" d="M86 547v256h1004v-665h-257v409h-747z" />
<glyph unicode="&#xad;" horiz-adv-x="751" d="M86 403v256h580v-256h-580z" />
<glyph unicode="&#xae;" horiz-adv-x="1045" d="M57 994q0 212 132 345q132 134 333 134q203 0 335 -134q131 -132 131 -345q0 -214 -131 -346q-132 -133 -335 -133q-201 0 -333 133q-132 134 -132 346zM129 994q0 -180 112 -298q110 -116 281 -116q173 0 283 116q111 117 111 298q0 182 -111 298t-283 116 q-171 0 -282 -116t-111 -298zM326 738v522h235q83 0 134 -46q49 -45 49 -127q0 -111 -88 -153l105 -196h-130l-90 176h-96v-176h-119zM445 1020h107q73 0 73 66q0 68 -73 68h-107v-134z" />
<glyph unicode="&#xaf;" horiz-adv-x="777" d="M82 1224v176h613v-176h-613z" />
<glyph unicode="&#xb0;" horiz-adv-x="808" d="M55 1130q0 149 100 246t249 97q150 0 250 -97t100 -246q0 -148 -100 -245t-250 -97q-149 0 -249 97t-100 245zM241 1130q0 -80 46 -127q47 -48 117 -48q72 0 118 48q46 47 46 127q0 82 -46 128q-48 48 -118 48q-69 0 -117 -48q-46 -46 -46 -128z" />
<glyph unicode="&#xb1;" horiz-adv-x="1175" d="M86 0v257h1004v-257h-1004zM86 603v257h374v338h257v-338h373v-257h-373v-242h-257v242h-374z" />
<glyph unicode="&#xb2;" horiz-adv-x="709" d="M42 882v46q0 66 13 111q15 51 44 87q32 40 70 70q42 33 103 71q37 22 43 26q35 22 39 25q3 2 13 8.5t18 12.5q21 15 28 22q12 12 20 21q13 15 17 24q5 12 8 26q4 20 4 30q0 52 -30 81q-31 29 -81 29q-55 0 -85 -36q-29 -35 -29 -101v-33h-195v36q0 141 80 223 q80 81 231 81q140 0 225 -70t85 -199q0 -62 -25 -117q-25 -54 -60 -85q-36 -32 -86 -63q-39 -24 -94 -50q-50 -23 -89 -48q-45 -28 -69 -57h432v-171h-630z" />
<glyph unicode="&#xb3;" horiz-adv-x="749" d="M37 1161h204q0 -139 136 -139q71 0 103 32t32 79q0 52 -33 79t-93 27h-74v143h76q50 0 79 27q28 26 28 69q0 50 -33 77t-86 27q-62 0 -98 -35q-37 -36 -37 -107h-195q0 142 90 222q91 80 237 80q135 0 223 -66t88 -179q0 -121 -103 -175q138 -46 138 -196 q0 -117 -87 -191q-86 -73 -257 -73t-255 78q-83 77 -83 221z" />
<glyph unicode="&#xb4;" horiz-adv-x="663" d="M82 1180l207 280h309l-300 -280h-216z" />
<glyph unicode="&#xb5;" horiz-adv-x="1174" d="M92 -391v1454h289v-603q0 -132 44 -188t138 -56q109 0 170 78q62 79 62 241v528h287v-1063h-287v178q-14 -34 -39 -69q-22 -30 -63 -65q-38 -32 -102 -52q-61 -19 -140 -19q-30 0 -70 5v-369h-289z" />
<glyph unicode="&#xb6;" horiz-adv-x="1342" d="M22 978q0 226 134 351t366 125h722v-1776h-240v1583h-171v-1583h-240v824h-71q-231 0 -366 126q-134 125 -134 350z" />
<glyph unicode="&#xb7;" horiz-adv-x="473" d="M86 360v342h301v-342h-301z" />
<glyph unicode="&#xb8;" horiz-adv-x="737" d="M70 -399l44 97q5 -4 31 -16q27 -13 76 -26q48 -13 96 -13q59 0 90 21t31 61q0 37 -28 59t-76 22q-28 0 -45 -5q-20 -6 -29 -11l-9 -5l-68 37l148 178h130l-91 -109q34 4 54 4q41 0 86 -10q43 -10 77 -28q38 -21 59 -54q22 -35 22 -83q0 -94 -84 -143q-83 -49 -223 -49 q-81 0 -155 18q-67 16 -100 33q-24 12 -36 22z" />
<glyph unicode="&#xb9;" horiz-adv-x="498" d="M37 1370v173q95 2 151 49q57 48 75 131h164v-841h-202v543q-56 -55 -188 -55z" />
<glyph unicode="&#xba;" horiz-adv-x="886" d="M51 1081q0 177 106 285q105 107 286 107q183 0 288 -107t105 -285q0 -177 -105 -283q-105 -107 -288 -107q-182 0 -287 107q-105 106 -105 283zM267 1081q0 -115 48 -174q48 -58 128 -58q81 0 129 58q49 60 49 174q0 115 -49 175q-48 59 -129 59q-80 0 -128 -59 q-48 -58 -48 -175z" />
<glyph unicode="&#xbb;" horiz-adv-x="1251" d="M93 24v310l336 207l-336 207v310l513 -357v-321zM658 24v310l336 207l-336 207v310l513 -357v-321z" />
<glyph unicode="&#xbc;" horiz-adv-x="1629" d="M37 1101v173q96 2 151 48q57 48 75 132h164v-842h-202v544q-56 -55 -188 -55zM237 -33l908 1520h195l-907 -1520h-196zM883 151v173l362 518h233v-535h120v-156h-120v-151h-202v151h-393zM1064 307h212v328z" />
<glyph unicode="&#xbd;" horiz-adv-x="1683" d="M37 1101v173q96 2 151 48q57 48 75 132h164v-842h-202v544q-56 -55 -188 -55zM237 -33l908 1520h195l-907 -1520h-196zM1016 0v46q0 67 13 112q14 49 44 86q32 40 70 70q42 33 103 71q5 3 43 27q9 6 22 13.5t17 10.5q3 2 13 9t18 13q21 15 28 22q12 12 20 21q13 15 17 24 q6 13 8 25q4 20 4 31q0 51 -31 80t-80 29q-55 0 -85 -36t-30 -101v-33h-194v36q0 141 80 223q80 81 231 81q139 0 224 -70t85 -199q0 -65 -24 -117t-61 -85q-35 -31 -85 -62q-45 -28 -94 -51q-50 -23 -89 -48q-47 -30 -70 -57h433v-171h-630z" />
<glyph unicode="&#xbe;" horiz-adv-x="1796" d="M37 892h204q0 -139 136 -139q72 0 103 31q32 32 32 79q0 53 -33 80t-93 27h-74v143h76q51 0 79 26t28 69q0 51 -33 78t-86 27q-60 0 -98 -36q-37 -36 -37 -107h-195q0 144 90 223q91 80 237 80q133 0 223 -67q88 -66 88 -178q0 -121 -103 -175q138 -47 138 -196 q0 -117 -87 -191q-86 -73 -257 -73q-172 0 -255 77t-83 222zM403 -33l909 1520h195l-907 -1520h-197zM1050 151v173l362 518h233v-535h120v-156h-120v-151h-202v151h-393zM1231 307h212v328z" />
<glyph unicode="&#xbf;" horiz-adv-x="1052" d="M28 26q0 76 20 132q22 62 53 97q39 44 72 70q50 39 79 59q36 25 72 56q30 26 53 70q20 39 20 92h267q0 -73 -19 -138q-18 -61 -48 -100t-66 -72q-40 -37 -71 -60q-30 -23 -65 -54q-30 -27 -48 -66t-18 -86q0 -87 57 -141t148 -54q94 0 150 60q54 59 56 172v31h295v-52 q-2 -119 -42 -207q-42 -91 -112 -146t-160 -84t-189 -29t-191 29q-91 29 -161 84q-71 56 -111 142q-41 88 -41 195zM381 721v342h301v-342h-301z" />
<glyph unicode="&#xc0;" d="M-22 0l538 1454h306l538 -1454h-318l-95 282h-553l-94 -282h-322zM296 1851h309l207 -280h-216zM475 522h391l-195 583z" />
<glyph unicode="&#xc1;" d="M-22 0l538 1454h306l538 -1454h-318l-95 282h-553l-94 -282h-322zM475 522h391l-195 583zM526 1571l207 280h309l-300 -280h-216z" />
<glyph unicode="&#xc2;" d="M-22 0l538 1454h306l538 -1454h-318l-95 282h-553l-94 -282h-322zM299 1550l246 301h250l245 -301h-245l-125 177l-125 -177h-246zM475 522h391l-195 583z" />
<glyph unicode="&#xc3;" d="M-22 0l538 1454h306l538 -1454h-318l-95 282h-553l-94 -282h-322zM291 1563q5 273 217 273q70 0 169 -48q92 -42 130 -42q41 0 60 23q20 25 23 74h159q-1 -54 -14 -101q-12 -47 -36 -85q-23 -38 -68 -61q-43 -22 -104 -22q-69 0 -165 46q-86 42 -133 42q-43 0 -63 -24 q-21 -25 -22 -75h-153zM475 522h391l-195 583z" />
<glyph unicode="&#xc4;" d="M-22 0l538 1454h306l538 -1454h-318l-95 282h-553l-94 -282h-322zM345 1570v260h245v-260h-245zM475 522h391l-195 583zM748 1570v260h244v-260h-244z" />
<glyph unicode="&#xc5;" d="M-22 0l538 1454h306l538 -1454h-318l-95 282h-553l-94 -282h-322zM421 1738q0 90 66 146q65 55 183 55q117 0 182 -55q67 -56 67 -146q0 -89 -67 -145q-65 -55 -182 -55q-118 0 -183 55q-66 55 -66 145zM475 522h391l-195 583zM581 1738q0 -38 24 -62q23 -23 65 -23 t65 23q24 24 24 62q0 37 -24 61t-65 24t-65 -24t-24 -61z" />
<glyph unicode="&#xc7;" horiz-adv-x="1492" d="M66 727q0 223 87 395q87 173 246 269t363 96q267 0 451 -164q183 -163 214 -436h-312q-17 86 -54 152q-36 64 -87 104q-48 38 -105 58t-112 20q-70 0 -137 -29q-68 -29 -122 -85q-57 -58 -89 -155q-33 -99 -33 -225t33 -225q32 -97 89 -155q54 -56 122 -85 q67 -29 137 -29q59 0 113 19q57 20 105 58q49 39 87 105q36 63 53 152h312q-31 -262 -201 -424q-169 -161 -424 -175l-65 -77q34 4 55 4q41 0 86 -10q43 -10 77 -28q37 -20 58 -54q22 -35 22 -83q0 -94 -84 -143q-83 -49 -222 -49q-81 0 -155 18q-67 16 -100 33 q-26 13 -37 22l44 97q3 -3 32 -16q27 -13 76 -26q48 -13 96 -13q59 0 90 21t31 61q0 37 -28 59t-77 22q-27 0 -45 -5q-16 -5 -29 -11l-9 -5l-67 37l125 150q-276 30 -443 236t-167 519z" />
<glyph unicode="&#xc8;" horiz-adv-x="1249" d="M98 0v1454h1076v-271h-766v-329h652v-254h-652v-329h773v-271h-1083zM272 1851h310l206 -280h-216z" />
<glyph unicode="&#xc9;" horiz-adv-x="1249" d="M98 0v1454h1076v-271h-766v-329h652v-254h-652v-329h773v-271h-1083zM479 1571l207 280h309l-300 -280h-216z" />
<glyph unicode="&#xca;" horiz-adv-x="1249" d="M98 0v1454h1076v-271h-766v-329h652v-254h-652v-329h773v-271h-1083zM269 1550l246 301h250l246 -301h-246l-125 177l-125 -177h-246z" />
<glyph unicode="&#xcb;" horiz-adv-x="1249" d="M98 0v1454h1076v-271h-766v-329h652v-254h-652v-329h773v-271h-1083zM315 1570v260h245v-260h-245zM718 1570v260h245v-260h-245z" />
<glyph unicode="&#xcc;" horiz-adv-x="527" d="M-106 1851h309l207 -280h-216zM110 0v1454h308v-1454h-308z" />
<glyph unicode="&#xcd;" horiz-adv-x="527" d="M110 0v1454h308v-1454h-308zM118 1571l207 280h309l-300 -280h-216z" />
<glyph unicode="&#xce;" horiz-adv-x="527" d="M-108 1550l246 301h250l246 -301h-246l-125 177l-125 -177h-246zM110 0v1454h308v-1454h-308z" />
<glyph unicode="&#xcf;" horiz-adv-x="527" d="M-60 1570v260h244v-260h-244zM110 0v1454h308v-1454h-308zM342 1570v260h245v-260h-245z" />
<glyph unicode="&#xd0;" horiz-adv-x="1467" d="M5 594v266h765v-266h-765zM165 0v1454h535q322 0 512 -196t190 -531t-190 -531t-512 -196h-535zM474 269h216q61 0 119 14t109 46q54 34 91 84q38 52 60 131q23 83 23 183t-23 183q-23 81 -60 132q-37 50 -91 84q-51 32 -109 46t-119 14h-216v-917z" />
<glyph unicode="&#xd1;" horiz-adv-x="1397" d="M98 0v1454h283l610 -933v933h308v-1454h-281l-610 933v-933h-310zM321 1563q5 273 217 273q70 0 169 -48q92 -42 130 -42q41 0 60 23q20 25 23 74h158q-1 -54 -14 -101q-13 -50 -35 -85q-23 -38 -68 -61q-43 -22 -104 -22q-70 0 -166 46q-85 42 -132 42q-43 0 -63 -24 q-21 -25 -22 -75h-153z" />
<glyph unicode="&#xd2;" horiz-adv-x="1548" d="M66 727q0 340 195 550t514 210q321 0 514 -210q194 -211 194 -550t-194 -550q-193 -210 -514 -210q-319 0 -514 210t-195 550zM376 727q0 -125 35 -224q35 -98 93 -155q60 -58 127 -86q70 -29 144 -29t144 29q66 27 126 86q58 57 93 155q34 96 34 224t-34 224 q-35 98 -93 155q-60 59 -126 86q-70 29 -144 29t-144 -29q-67 -28 -127 -86q-58 -57 -93 -155q-35 -99 -35 -224zM409 1851h309l207 -280h-216z" />
<glyph unicode="&#xd3;" horiz-adv-x="1548" d="M66 727q0 340 195 550t514 210q321 0 514 -210q194 -211 194 -550t-194 -550q-193 -210 -514 -210q-319 0 -514 210t-195 550zM376 727q0 -125 35 -224q35 -98 93 -155q60 -58 127 -86q70 -29 144 -29t144 29q66 27 126 86q58 57 93 155q34 96 34 224t-34 224 q-35 98 -93 155q-60 59 -126 86q-70 29 -144 29t-144 -29q-67 -28 -127 -86q-58 -57 -93 -155q-35 -99 -35 -224zM624 1571l206 280h310l-300 -280h-216z" />
<glyph unicode="&#xd4;" horiz-adv-x="1548" d="M66 727q0 340 195 550t514 210q321 0 514 -210q194 -211 194 -550t-194 -550q-193 -210 -514 -210q-319 0 -514 210t-195 550zM376 727q0 -125 35 -224q35 -98 93 -155q60 -58 127 -86q70 -29 144 -29t144 29q66 27 126 86q58 57 93 155q34 96 34 224t-34 224 q-35 98 -93 155q-60 59 -126 86q-70 29 -144 29t-144 -29q-67 -28 -127 -86q-58 -57 -93 -155q-35 -99 -35 -224zM403 1550l246 301h250l246 -301h-246l-125 177l-125 -177h-246z" />
<glyph unicode="&#xd5;" horiz-adv-x="1548" d="M66 727q0 340 195 550t514 210q321 0 514 -210q194 -211 194 -550t-194 -550q-193 -210 -514 -210q-319 0 -514 210t-195 550zM376 727q0 -125 35 -224q35 -98 93 -155q60 -58 127 -86q70 -29 144 -29t144 29q66 27 126 86q58 57 93 155q34 96 34 224t-34 224 q-35 98 -93 155q-60 59 -126 86q-70 29 -144 29t-144 -29q-67 -28 -127 -86q-58 -57 -93 -155q-35 -99 -35 -224zM395 1563q5 273 217 273q70 0 169 -48q92 -42 130 -42q41 0 60 23q20 25 23 74h159q-1 -54 -14 -101q-12 -47 -36 -85q-23 -38 -68 -61q-43 -22 -103 -22 q-70 0 -166 46q-86 42 -132 42q-44 0 -63 -24q-21 -25 -22 -75h-154z" />
<glyph unicode="&#xd6;" horiz-adv-x="1548" d="M66 727q0 340 195 550t514 210q321 0 514 -210q194 -211 194 -550t-194 -550q-193 -210 -514 -210q-319 0 -514 210t-195 550zM376 727q0 -125 35 -224q35 -98 93 -155q60 -58 127 -86q70 -29 144 -29t144 29q66 27 126 86q58 57 93 155q34 96 34 224t-34 224 q-35 98 -93 155q-60 59 -126 86q-70 29 -144 29t-144 -29q-67 -28 -127 -86q-58 -57 -93 -155q-35 -99 -35 -224zM451 1570v260h244v-260h-244zM853 1570v260h245v-260h-245z" />
<glyph unicode="&#xd7;" horiz-adv-x="1124" d="M86 234l297 297l-297 297l179 180l297 -297l297 297l179 -180l-297 -297l297 -297l-179 -179l-297 297l-297 -297z" />
<glyph unicode="&#xd8;" horiz-adv-x="1548" d="M66 727q0 340 195 550t514 210q272 0 459 -158l152 174l72 -69l-152 -176q177 -206 177 -531q0 -339 -194 -550q-193 -210 -514 -210q-273 0 -459 156l-150 -172l-72 69l152 174q-180 209 -180 533zM376 727q0 -181 70 -302l596 683q-108 113 -267 113q-74 0 -144 -29 q-67 -28 -127 -86q-58 -57 -93 -155q-35 -99 -35 -224zM509 344q109 -111 266 -111q74 0 144 29q66 27 126 86q58 57 93 155q34 96 34 224q0 182 -68 299z" />
<glyph unicode="&#xd9;" horiz-adv-x="1400" d="M94 600v854h309v-844q0 -100 16 -167q16 -68 58 -117q81 -93 223 -93q143 0 224 93q42 49 58 117q15 63 15 167v844h310v-854q0 -315 -159 -474t-448 -159q-288 0 -447 159t-159 474zM348 1851h309l207 -280h-216z" />
<glyph unicode="&#xda;" horiz-adv-x="1400" d="M94 600v854h309v-844q0 -100 16 -167q16 -68 58 -117q81 -93 223 -93q143 0 224 93q42 49 58 117q15 63 15 167v844h310v-854q0 -315 -159 -474t-448 -159q-288 0 -447 159t-159 474zM537 1571l206 280h310l-300 -280h-216z" />
<glyph unicode="&#xdb;" horiz-adv-x="1400" d="M94 600v854h309v-844q0 -100 16 -167q16 -68 58 -117q81 -93 223 -93q143 0 224 93q42 49 58 117q15 63 15 167v844h310v-854q0 -315 -159 -474t-448 -159q-288 0 -447 159t-159 474zM331 1550l246 301h249l246 -301h-246l-125 177l-124 -177h-246z" />
<glyph unicode="&#xdc;" horiz-adv-x="1400" d="M94 600v854h309v-844q0 -100 16 -167q16 -68 58 -117q81 -93 223 -93q143 0 224 93q42 49 58 117q15 63 15 167v844h310v-854q0 -315 -159 -474t-448 -159q-288 0 -447 159t-159 474zM377 1570v260h245v-260h-245zM779 1570v260h245v-260h-245z" />
<glyph unicode="&#xdd;" horiz-adv-x="1301" d="M-15 1454h338l327 -700l329 700h338l-512 -1014v-440h-308v440zM495 1571l206 280h310l-300 -280h-216z" />
<glyph unicode="&#xde;" horiz-adv-x="1280" d="M98 0v1454h310v-207h350q232 0 366 -127t134 -352q0 -228 -134 -353q-135 -126 -366 -126h-350v-289h-310zM408 545h315q43 0 81 9q34 8 72 33q34 23 54 66q20 45 20 106q0 60 -20 105t-54 67q-36 23 -72 32q-42 10 -81 10h-315v-428z" />
<glyph unicode="&#xdf;" horiz-adv-x="1186" d="M88 0v938q0 549 497 549q219 0 349 -103q129 -102 129 -286q0 -218 -184 -294q122 -43 192 -145t70 -249q0 -192 -115 -306q-116 -114 -340 -114q-36 0 -76 3q-39 3 -61 6l-22 3v217q36 -10 90 -10q109 0 171 60q61 60 61 164q0 115 -72 183q-71 67 -188 67h-62v209h41 q113 0 166 50q52 49 52 135q0 91 -54 141q-55 51 -146 51q-98 0 -154 -66q-55 -65 -55 -205v-998h-289z" />
<glyph unicode="&#xe0;" horiz-adv-x="1134" d="M52 281q0 69 24 123q24 55 60 89q34 33 91 59q58 27 103 38q42 10 111 22q66 10 74 11q38 5 70 9q8 1 17.5 2.5t22 4.5t20.5 4q32 6 52 15q16 8 37 23q18 14 26 34q8 21 8 48q0 49 -47 88q-48 40 -141 40q-185 0 -209 -149h-275q3 52 18 98t49 92q35 46 87 81 q52 34 136 55q88 22 189 22q236 0 353 -106q115 -105 115 -300v-400q0 -84 9 -154q9 -71 18 -101l9 -29h-278q-14 42 -25 128q-116 -154 -354 -154q-174 0 -272 80t-98 227zM217 1460h309l207 -280h-216zM344 294q0 -61 44 -94t125 -33q127 0 191 73t64 207v82 q-16 -16 -37 -28q-22 -13 -56 -23q-9 -3 -20.5 -6.5t-19 -6t-12.5 -3.5q-21 -5 -67 -15q-52 -11 -59 -12q-74 -17 -112 -48q-41 -33 -41 -93z" />
<glyph unicode="&#xe1;" horiz-adv-x="1134" d="M52 281q0 69 24 123q24 55 60 89q34 33 91 59q58 27 103 38q42 10 111 22q66 10 74 11q38 5 70 9q8 1 17.5 2.5t22 4.5t20.5 4q32 6 52 15q16 8 37 23q18 14 26 34q8 21 8 48q0 49 -47 88q-48 40 -141 40q-185 0 -209 -149h-275q3 52 18 98t49 92q35 46 87 81 q52 34 136 55q88 22 189 22q236 0 353 -106q115 -105 115 -300v-400q0 -84 9 -154q9 -71 18 -101l9 -29h-278q-14 42 -25 128q-116 -154 -354 -154q-174 0 -272 80t-98 227zM344 294q0 -61 44 -94t125 -33q127 0 191 73t64 207v82q-16 -16 -37 -28q-22 -13 -56 -23 q-9 -3 -20.5 -6.5t-19 -6t-12.5 -3.5q-21 -5 -67 -15q-52 -11 -59 -12q-74 -17 -112 -48q-41 -33 -41 -93zM416 1180l207 280h309l-300 -280h-216z" />
<glyph unicode="&#xe2;" horiz-adv-x="1134" d="M52 281q0 69 24 123q24 55 60 89q34 33 91 59q58 27 103 38q42 10 111 22q66 10 74 11q38 5 70 9q8 1 17.5 2.5t22 4.5t20.5 4q32 6 52 15q16 8 37 23q18 14 26 34q8 21 8 48q0 49 -47 88q-48 40 -141 40q-185 0 -209 -149h-275q3 52 18 98t49 92q35 46 87 81 q52 34 136 55q88 22 189 22q236 0 353 -106q115 -105 115 -300v-400q0 -84 9 -154q9 -71 18 -101l9 -29h-278q-14 42 -25 128q-116 -154 -354 -154q-174 0 -272 80t-98 227zM203 1159l246 301h249l246 -301h-246l-125 177l-124 -177h-246zM344 294q0 -61 44 -94t125 -33 q127 0 191 73t64 207v82q-16 -16 -37 -28q-22 -13 -56 -23q-9 -3 -20.5 -6.5t-19 -6t-12.5 -3.5q-21 -5 -67 -15q-52 -11 -59 -12q-74 -17 -112 -48q-41 -33 -41 -93z" />
<glyph unicode="&#xe3;" horiz-adv-x="1134" d="M52 281q0 69 24 123q24 55 60 89q34 33 91 59q58 27 103 38q42 10 111 22q66 10 74 11q38 5 70 9q8 1 17.5 2.5t22 4.5t20.5 4q32 6 52 15q16 8 37 23q18 14 26 34q8 21 8 48q0 49 -47 88q-48 40 -141 40q-185 0 -209 -149h-275q3 52 18 98t49 92q35 46 87 81 q52 34 136 55q88 22 189 22q236 0 353 -106q115 -105 115 -300v-400q0 -84 9 -154q9 -71 18 -101l9 -29h-278q-14 42 -25 128q-116 -154 -354 -154q-174 0 -272 80t-98 227zM195 1171q5 274 217 274q70 0 169 -48q92 -42 130 -42q41 0 60 23q20 25 23 74h158 q-1 -54 -14 -101q-13 -50 -35 -85q-23 -38 -68 -61q-43 -22 -104 -22q-70 0 -166 46q-85 42 -132 42q-43 0 -63 -24q-21 -25 -22 -76h-153zM344 294q0 -61 44 -94t125 -33q127 0 191 73t64 207v82q-16 -16 -37 -28q-22 -13 -56 -23q-9 -3 -20.5 -6.5t-19 -6t-12.5 -3.5 q-21 -5 -67 -15q-52 -11 -59 -12q-74 -17 -112 -48q-41 -33 -41 -93z" />
<glyph unicode="&#xe4;" horiz-adv-x="1134" d="M52 281q0 69 24 123q24 55 60 89q34 33 91 59q58 27 103 38q42 10 111 22q66 10 74 11q38 5 70 9q8 1 17.5 2.5t22 4.5t20.5 4q32 6 52 15q16 8 37 23q18 14 26 34q8 21 8 48q0 49 -47 88q-48 40 -141 40q-185 0 -209 -149h-275q3 52 18 98t49 92q35 46 87 81 q52 34 136 55q88 22 189 22q236 0 353 -106q115 -105 115 -300v-400q0 -84 9 -154q9 -71 18 -101l9 -29h-278q-14 42 -25 128q-116 -154 -354 -154q-174 0 -272 80t-98 227zM249 1179v260h245v-260h-245zM344 294q0 -61 44 -94t125 -33q127 0 191 73t64 207v82 q-16 -16 -37 -28q-22 -13 -56 -23q-9 -3 -20.5 -6.5t-19 -6t-12.5 -3.5q-21 -5 -67 -15q-52 -11 -59 -12q-74 -17 -112 -48q-41 -33 -41 -93zM651 1179v260h245v-260h-245z" />
<glyph unicode="&#xe5;" horiz-adv-x="1134" d="M52 281q0 69 24 123q24 55 60 89q34 33 91 59q58 27 103 38q42 10 111 22q66 10 74 11q38 5 70 9q8 1 17.5 2.5t22 4.5t20.5 4q32 6 52 15q16 8 37 23q18 14 26 34q8 21 8 48q0 49 -47 88q-48 40 -141 40q-185 0 -209 -149h-275q3 52 18 98t49 92q35 46 87 81 q52 34 136 55q88 22 189 22q236 0 353 -106q115 -105 115 -300v-400q0 -84 9 -154q9 -71 18 -101l9 -29h-278q-14 42 -25 128q-116 -154 -354 -154q-174 0 -272 80t-98 227zM325 1347q0 89 66 145q67 56 182 56q116 0 183 -56q66 -56 66 -145t-66 -145q-65 -55 -183 -55 q-117 0 -182 55q-66 56 -66 145zM344 294q0 -61 44 -94t125 -33q127 0 191 73t64 207v82q-16 -16 -37 -28q-22 -13 -56 -23q-9 -3 -20.5 -6.5t-19 -6t-12.5 -3.5q-21 -5 -67 -15q-52 -11 -59 -12q-74 -17 -112 -48q-41 -33 -41 -93zM484 1347q0 -38 24 -62q23 -23 65 -23 t65 23q25 25 25 62q0 36 -25 61q-24 24 -65 24t-65 -24t-24 -61z" />
<glyph unicode="&#xe7;" horiz-adv-x="1148" d="M52 531q0 253 141 406t390 153q210 0 346 -119q135 -118 168 -320h-291q-26 96 -84 151t-140 55q-109 0 -175 -85q-67 -87 -67 -241q0 -152 67 -239q66 -85 175 -85q86 0 144 54t82 151h289q-27 -191 -153 -306q-125 -115 -311 -130l-71 -85q34 4 54 4q41 0 86 -10 t78 -28q37 -20 58 -54q22 -35 22 -83q0 -94 -84 -143q-83 -49 -222 -49q-82 0 -155 18q-69 17 -101 33q-24 12 -36 22l44 97q3 -3 32 -16q27 -13 76 -26q48 -13 96 -13q58 0 90 21q31 21 31 61q0 37 -28 59t-77 22q-28 0 -45 -5q-18 -5 -28 -11l-10 -5l-67 37l129 156 q-215 24 -334 173t-119 380z" />
<glyph unicode="&#xe8;" horiz-adv-x="1157" d="M52 523q0 164 60 290t181 201q123 76 290 76q243 0 384 -153q140 -152 140 -415l-3 -75h-767q17 -127 82 -192q66 -66 166 -66q67 0 122 32q57 33 85 87h285q-51 -159 -182 -246q-132 -88 -312 -88q-252 0 -392 151q-139 149 -139 398zM215 1460h309l207 -280h-216z M337 612h484q-15 129 -78 195q-62 65 -161 65q-101 0 -165 -67q-63 -66 -80 -193z" />
<glyph unicode="&#xe9;" horiz-adv-x="1157" d="M52 523q0 164 60 290t181 201q123 76 290 76q243 0 384 -153q140 -152 140 -415l-3 -75h-767q17 -127 82 -192q66 -66 166 -66q67 0 122 32q57 33 85 87h285q-51 -159 -182 -246q-132 -88 -312 -88q-252 0 -392 151q-139 149 -139 398zM337 612h484q-15 129 -78 195 q-62 65 -161 65q-101 0 -165 -67q-63 -66 -80 -193zM427 1180l207 280h309l-300 -280h-216z" />
<glyph unicode="&#xea;" horiz-adv-x="1157" d="M52 523q0 164 60 290t181 201q123 76 290 76q243 0 384 -153q140 -152 140 -415l-3 -75h-767q17 -127 82 -192q66 -66 166 -66q67 0 122 32q57 33 85 87h285q-51 -159 -182 -246q-132 -88 -312 -88q-252 0 -392 151q-139 149 -139 398zM210 1159l246 301h250l245 -301 h-245l-125 177l-125 -177h-246zM337 612h484q-15 129 -78 195q-62 65 -161 65q-101 0 -165 -67q-63 -66 -80 -193z" />
<glyph unicode="&#xeb;" horiz-adv-x="1157" d="M52 523q0 164 60 290t181 201q123 76 290 76q243 0 384 -153q140 -152 140 -415l-3 -75h-767q17 -127 82 -192q66 -66 166 -66q67 0 122 32q57 33 85 87h285q-51 -159 -182 -246q-132 -88 -312 -88q-252 0 -392 151q-139 149 -139 398zM256 1179v260h245v-260h-245z M337 612h484q-15 129 -78 195q-62 65 -161 65q-101 0 -165 -67q-63 -66 -80 -193zM658 1179v260h245v-260h-245z" />
<glyph unicode="&#xec;" horiz-adv-x="488" d="M-134 1460h309l207 -280h-216zM100 0v1063h288v-1063h-288z" />
<glyph unicode="&#xed;" horiz-adv-x="488" d="M100 0v1063h288v-1063h-288zM106 1180l207 280h310l-300 -280h-217z" />
<glyph unicode="&#xee;" horiz-adv-x="488" d="M-127 1159l246 301h250l245 -301h-245l-125 177l-125 -177h-246zM100 0v1063h288v-1063h-288z" />
<glyph unicode="&#xef;" horiz-adv-x="488" d="M-80 1179v260h245v-260h-245zM100 0v1063h288v-1063h-288zM323 1179v260h244v-260h-244z" />
<glyph unicode="&#xf0;" horiz-adv-x="1174" d="M51 541q0 153 50 277q48 120 156 197q105 75 253 75q198 0 306 -147q-38 74 -92 147q-48 64 -112 125q-54 52 -107 96q-43 36 -102 74q-16 10 -31 19.5t-26 16.5t-14 9q-6 4 -20 11.5t-17 9.5l225 103q12 -5 40 -20q37 -20 88 -55q55 -37 118 -92q61 -54 125 -133 q68 -84 116 -174q50 -92 83 -220q32 -124 32 -266q0 -286 -138 -452q-140 -168 -402 -168q-247 0 -389 154t-142 413zM266 1235l671 337l93 -95l-671 -337zM340 534q0 -158 68 -243q68 -84 178 -84q117 0 182 86q67 88 67 247q0 135 -64 226t-187 91q-112 0 -177 -83 q-67 -85 -67 -240z" />
<glyph unicode="&#xf1;" horiz-adv-x="1179" d="M92 0v1063h289v-180q15 37 38 69q25 34 64 66t104 52t142 20q167 0 264 -99q97 -98 97 -306v-685h-289v606q0 130 -45 186t-141 56q-109 0 -172 -77q-62 -75 -62 -240v-531h-289zM212 1168q5 274 217 274q70 0 169 -48q92 -42 130 -42q41 0 60 23q20 25 23 74h159 q-1 -54 -14 -101q-12 -47 -36 -85q-23 -38 -68 -61q-43 -22 -103 -22q-70 0 -166 46q-85 42 -132 42q-43 0 -63 -24q-21 -25 -22 -76h-154z" />
<glyph unicode="&#xf2;" horiz-adv-x="1191" d="M52 531q0 253 145 406t399 153t399 -153t145 -406q0 -252 -145 -405q-144 -152 -399 -152t-399 152q-145 153 -145 405zM237 1460h309l207 -280h-216zM344 531q0 -153 69 -239q69 -85 183 -85t183 85q69 86 69 239q0 154 -70 241q-69 85 -182 85t-182 -85 q-70 -87 -70 -241z" />
<glyph unicode="&#xf3;" horiz-adv-x="1191" d="M52 531q0 253 145 406t399 153t399 -153t145 -406q0 -252 -145 -405q-144 -152 -399 -152t-399 152q-145 153 -145 405zM344 531q0 -153 69 -239q69 -85 183 -85t183 85q69 86 69 239q0 154 -70 241q-69 85 -182 85t-182 -85q-70 -87 -70 -241zM440 1180l207 280h309 l-300 -280h-216z" />
<glyph unicode="&#xf4;" horiz-adv-x="1191" d="M52 531q0 253 145 406t399 153t399 -153t145 -406q0 -252 -145 -405q-144 -152 -399 -152t-399 152q-145 153 -145 405zM226 1159l246 301h250l246 -301h-246l-125 177l-125 -177h-246zM344 531q0 -153 69 -239q69 -85 183 -85t183 85q69 86 69 239q0 154 -70 241 q-69 85 -182 85t-182 -85q-70 -87 -70 -241z" />
<glyph unicode="&#xf5;" horiz-adv-x="1191" d="M52 531q0 253 145 406t399 153t399 -153t145 -406q0 -252 -145 -405q-144 -152 -399 -152t-399 152q-145 153 -145 405zM218 1171q5 274 217 274q70 0 169 -48q92 -42 130 -42q41 0 60 23q20 25 23 74h159q-1 -54 -14 -101q-12 -47 -36 -85q-23 -38 -68 -61 q-43 -22 -103 -22q-70 0 -166 46q-85 42 -132 42q-43 0 -63 -24q-21 -25 -22 -76h-154zM344 531q0 -153 69 -239q69 -85 183 -85t183 85q69 86 69 239q0 154 -70 241q-69 85 -182 85t-182 -85q-70 -87 -70 -241z" />
<glyph unicode="&#xf6;" horiz-adv-x="1191" d="M52 531q0 253 145 406t399 153t399 -153t145 -406q0 -252 -145 -405q-144 -152 -399 -152t-399 152q-145 153 -145 405zM272 1179v260h245v-260h-245zM344 531q0 -153 69 -239q69 -85 183 -85t183 85q69 86 69 239q0 154 -70 241q-69 85 -182 85t-182 -85 q-70 -87 -70 -241zM675 1179v260h245v-260h-245z" />
<glyph unicode="&#xf7;" horiz-adv-x="1175" d="M86 403v256h1004v-256h-1004zM438 -68v318h301v-318h-301zM438 805v317h301v-317h-301z" />
<glyph unicode="&#xf8;" horiz-adv-x="1191" d="M52 531q0 253 145 406t399 153t399 -153t145 -406q0 -252 -145 -405q-144 -152 -399 -152t-399 152q-145 153 -145 405zM62 11l999 1085l67 -65l-998 -1085zM344 531q0 -153 69 -239q69 -85 183 -85t183 85q69 86 69 239q0 154 -70 241q-69 85 -182 85t-182 -85 q-70 -87 -70 -241z" />
<glyph unicode="&#xf9;" horiz-adv-x="1172" d="M90 378v685h289v-603q0 -132 44 -188t138 -56q109 0 170 78q62 79 62 241v528h287v-1063h-287v177q-14 -34 -39 -69q-20 -28 -63 -64q-38 -32 -102 -52q-61 -19 -140 -19q-167 0 -263 98q-96 97 -96 307zM224 1460h310l206 -280h-216z" />
<glyph unicode="&#xfa;" horiz-adv-x="1172" d="M90 378v685h289v-603q0 -132 44 -188t138 -56q109 0 170 78q62 79 62 241v528h287v-1063h-287v177q-14 -34 -39 -69q-20 -28 -63 -64q-38 -32 -102 -52q-61 -19 -140 -19q-167 0 -263 98q-96 97 -96 307zM431 1180l207 280h309l-300 -280h-216z" />
<glyph unicode="&#xfb;" horiz-adv-x="1172" d="M90 378v685h289v-603q0 -132 44 -188t138 -56q109 0 170 78q62 79 62 241v528h287v-1063h-287v177q-14 -34 -39 -69q-20 -28 -63 -64q-38 -32 -102 -52q-61 -19 -140 -19q-167 0 -263 98q-96 97 -96 307zM215 1159l246 301h250l245 -301h-245l-125 177l-125 -177h-246z " />
<glyph unicode="&#xfc;" horiz-adv-x="1172" d="M90 378v685h289v-603q0 -132 44 -188t138 -56q109 0 170 78q62 79 62 241v528h287v-1063h-287v177q-14 -34 -39 -69q-20 -28 -63 -64q-38 -32 -102 -52q-61 -19 -140 -19q-167 0 -263 98q-96 97 -96 307zM261 1179v260h245v-260h-245zM664 1179v260h244v-260h-244z" />
<glyph unicode="&#xfd;" horiz-adv-x="1084" d="M-15 1063h310l246 -790l247 790h312l-534 -1454h-313l138 336zM389 1180l207 280h309l-300 -280h-216z" />
<glyph unicode="&#xfe;" horiz-adv-x="1210" d="M92 -391v1845h289v-526q113 162 329 162q141 0 245 -77q105 -78 154 -200q50 -126 50 -282q0 -157 -51 -282q-52 -126 -154 -200q-104 -75 -244 -75q-215 0 -329 161v-526h-289zM381 531q0 -159 66 -241q66 -83 179 -83q112 0 178 83q66 82 66 241t-66 243 q-65 83 -178 83q-114 0 -179 -83q-66 -84 -66 -243z" />
<glyph unicode="&#xff;" horiz-adv-x="1084" d="M-15 1063h310l246 -790l247 790h312l-534 -1454h-313l138 336zM217 1179v260h245v-260h-245zM620 1179v260h244v-260h-244z" />
<glyph unicode="&#x178;" horiz-adv-x="1301" d="M-15 1454h338l327 -700l329 700h338l-512 -1014v-440h-308v440zM327 1570v260h244v-260h-244zM729 1570v260h245v-260h-245z" />
<glyph unicode="&#x2c6;" horiz-adv-x="884" d="M72 1159l245 301h250l246 -301h-246l-125 177l-125 -177h-245z" />
<glyph unicode="&#x2dc;" horiz-adv-x="856" d="M49 1171q5 274 217 274q70 0 169 -48q91 -42 130 -42q41 0 60 23q20 25 23 74h159q-1 -54 -14 -101q-12 -47 -36 -85q-23 -38 -68 -61q-43 -22 -103 -22q-70 0 -166 46q-86 42 -132 42q-44 0 -63 -24q-21 -25 -22 -76h-154z" />
<glyph unicode="&#x2000;" horiz-adv-x="969" />
<glyph unicode="&#x2001;" horiz-adv-x="1939" />
<glyph unicode="&#x2002;" horiz-adv-x="969" />
<glyph unicode="&#x2003;" horiz-adv-x="1939" />
<glyph unicode="&#x2004;" horiz-adv-x="646" />
<glyph unicode="&#x2005;" horiz-adv-x="484" />
<glyph unicode="&#x2006;" horiz-adv-x="323" />
<glyph unicode="&#x2007;" horiz-adv-x="323" />
<glyph unicode="&#x2008;" horiz-adv-x="242" />
<glyph unicode="&#x2009;" horiz-adv-x="387" />
<glyph unicode="&#x200a;" horiz-adv-x="107" />
<glyph unicode="&#x2010;" horiz-adv-x="751" d="M86 403v256h580v-256h-580z" />
<glyph unicode="&#x2011;" horiz-adv-x="751" d="M86 403v256h580v-256h-580z" />
<glyph unicode="&#x2012;" horiz-adv-x="751" d="M86 403v256h580v-256h-580z" />
<glyph unicode="&#x2013;" horiz-adv-x="1130" d="M86 403v256h958v-256h-958z" />
<glyph unicode="&#x2014;" horiz-adv-x="1585" d="M86 403v256h1413v-256h-1413z" />
<glyph unicode="&#x2018;" horiz-adv-x="473" d="M86 825v312q0 79 39 162l73 154h187l-122 -286h124v-342h-301z" />
<glyph unicode="&#x2019;" horiz-adv-x="473" d="M86 1112v342h301v-311q0 -81 -39 -163l-73 -154h-187l122 286h-124z" />
<glyph unicode="&#x201a;" horiz-adv-x="473" d="M86 0v342h301v-311q0 -81 -39 -163l-73 -154h-187l122 286h-124z" />
<glyph unicode="&#x201c;" horiz-adv-x="915" d="M86 825v312q0 79 39 162l73 154h187l-122 -286h124v-342h-301zM528 825v312q0 79 39 162l73 154h187l-121 -286h123v-342h-301z" />
<glyph unicode="&#x201d;" horiz-adv-x="915" d="M86 1112v342h301v-311q0 -81 -39 -163l-73 -154h-187l122 286h-124zM528 1112v342h301v-311q0 -83 -38 -163l-73 -154h-188l122 286h-124z" />
<glyph unicode="&#x201e;" horiz-adv-x="915" d="M86 0v342h301v-311q0 -81 -39 -163l-73 -154h-187l122 286h-124zM528 0v342h301v-311q0 -83 -38 -163l-73 -154h-188l122 286h-124z" />
<glyph unicode="&#x2022;" horiz-adv-x="833" d="M106 727q0 135 90 220q91 86 221 86q132 0 221 -86t89 -220t-89 -220t-221 -86q-130 0 -221 86q-90 85 -90 220z" />
<glyph unicode="&#x2026;" horiz-adv-x="1394" d="M86 0v342h301v-342h-301zM547 0v342h301v-342h-301zM1008 0v342h301v-342h-301z" />
<glyph unicode="&#x202f;" horiz-adv-x="387" />
<glyph unicode="&#x2039;" horiz-adv-x="686" d="M80 380v321l513 357v-310l-336 -207l336 -207v-310z" />
<glyph unicode="&#x203a;" horiz-adv-x="686" d="M93 24v310l336 207l-336 207v310l513 -357v-321z" />
<glyph unicode="&#x205f;" horiz-adv-x="484" />
<glyph unicode="&#x20ac;" horiz-adv-x="1356" d="M8 496l22 168h116q-1 14 -1 63q0 50 1 64h-138l22 167h138q48 241 194 385t374 144q122 0 225 -44q100 -42 171 -123q70 -79 115 -184q45 -104 63 -234h-310q-24 160 -92 240q-69 81 -173 81q-95 0 -161 -66t-96 -199h333l-24 -167h-330q-1 -14 -1 -64q0 -49 1 -63h324 l-23 -168h-280q30 -133 96 -199t161 -66q104 0 173 81q68 80 92 240h311q-18 -130 -63 -234q-45 -105 -115 -184q-71 -80 -172 -123q-103 -44 -225 -44q-230 0 -375 144q-145 143 -193 385h-160z" />
<glyph unicode="&#x2122;" horiz-adv-x="1583" d="M70 1310v144h572v-144h-204v-538h-165v538h-203zM733 772v682h224l154 -502l154 502h224v-682h-162v469l-142 -469h-148l-142 469v-469h-162z" />
<glyph unicode="&#x25fc;" horiz-adv-x="1064" d="M0 0v1065h1065v-1065h-1065z" />
</font>
</defs>
</svg>
